<svg width="51" height="77" viewBox="0 0 51 77" fill="none" xmlns="http://www.w3.org/2000/svg">
<path id="Vector" d="M50.9894 25.3696C50.7163 32.4165 48.0365 39.1603 43.3922 44.4881C42.0169 46.0126 40.9678 47.7997 40.309 49.7405V55.1872C40.309 56.5105 39.7806 57.7797 38.84 58.7154C37.8994 59.6512 36.6236 60.1769 35.2934 60.1769H15.7065C14.3763 60.1769 13.1006 59.6512 12.16 58.7154C11.2194 57.7797 10.691 56.5105 10.691 55.1872V49.7405C10.0318 47.7998 8.98284 46.0128 7.60776 44.4881C2.95967 39.1617 0.276097 32.4178 9.08406e-09 25.3696C-0.000157011 19.5147 2.0353 13.84 5.76115 9.30794C9.487 4.77586 14.6739 1.66539 20.4421 0.504085C26.2102 -0.657225 32.2046 0.202116 37.4086 2.93636C42.6125 5.67061 46.7057 10.1114 48.9937 15.5057C50.324 18.6292 51.0064 21.9878 51 25.3801L50.9894 25.3696ZM45.9739 25.3696C45.9739 19.9675 43.8168 14.7866 39.9772 10.9668C36.1376 7.14692 30.93 5.00095 25.5 5.00095C20.07 5.00095 14.8623 7.14692 11.0227 10.9668C7.18315 14.7866 5.02608 19.9675 5.02608 25.3696C5.02608 37.7809 15.7065 43.2748 15.7065 49.7405V55.1872H35.2934V49.7405C35.2934 43.2748 45.9739 37.7809 45.9739 25.3696ZM37.8012 66.0332C37.8019 66.3613 37.7376 66.6863 37.6118 66.9896C37.4861 67.2929 37.3015 67.5686 37.0686 67.8008C36.8356 68.033 36.5589 68.2173 36.2543 68.343C35.9497 68.4687 35.6232 68.5334 35.2934 68.5334H15.7065C15.0414 68.5334 14.4035 68.2705 13.9333 67.8026C13.463 67.3348 13.1987 66.7002 13.1987 66.0385C13.1987 65.3768 13.463 64.7422 13.9333 64.2744C14.4035 63.8065 15.0414 63.5436 15.7065 63.5436H35.2934C35.9576 63.5436 36.5947 63.8058 37.0648 64.2725C37.535 64.7393 37.7998 65.3725 37.8012 66.0332ZM34.4223 72.6617C34.5078 72.9075 34.514 73.1737 34.4402 73.4232C34.3664 73.6727 34.2162 73.893 34.0105 74.0536C31.5385 75.9634 28.4978 77 25.368 77C22.2382 77 19.1974 75.9634 16.7255 74.0536C16.5178 73.8951 16.3654 73.6757 16.2896 73.4265C16.2139 73.1772 16.2186 72.9106 16.3031 72.6642C16.3876 72.4178 16.5477 72.2039 16.7608 72.0527C16.9739 71.9015 17.2292 71.8206 17.491 71.8213H33.2397C33.501 71.8212 33.7558 71.902 33.9687 72.0527C34.1816 72.2033 34.3367 72.4162 34.4223 72.6617Z" fill="#C2C72C"/>
</svg>
