<svg width="73" height="66" fill="none" xmlns="http://www.w3.org/2000/svg"><path clip-rule="evenodd" d="M57.895 63.667c6.93 0 12.55-5.617 12.554-12.547v-9.997a8.284 8.284 0 11-.004-16.568h.004v-9.99C70.456 7.631 64.844 2.007 57.914 2H14.557C7.624 2 2.004 7.617 2 14.55v10.327a8.001 8.001 0 018.277 7.718c.004.081.007.163.007.244a8.275 8.275 0 01-8.262 8.284H2v9.99c-.004 6.93 5.617 12.554 12.546 12.554h43.349z" stroke="#FEC53A" stroke-width="4" stroke-linecap="round" stroke-linejoin="round"/><path clip-rule="evenodd" d="M37.597 21.658l2.28 4.614c.221.451.65.766 1.15.84l5.095.743c1.261.185 1.761 1.732.85 2.616l-3.684 3.59a1.541 1.541 0 00-.444 1.357l.87 5.069c.214 1.254-1.1 2.209-2.224 1.617l-4.555-2.394a1.524 1.524 0 00-1.428 0l-4.551 2.394c-1.129.592-2.442-.363-2.228-1.617l.87-5.069a1.531 1.531 0 00-.444-1.358l-3.682-3.589c-.91-.884-.41-2.43.848-2.616l5.095-.743a1.54 1.54 0 001.154-.84l2.275-4.614c.563-1.14 2.19-1.14 2.753 0z" stroke="#FEC53A" stroke-width="4" stroke-linecap="round" stroke-linejoin="round"/></svg>