<svg width="79" height="79" viewBox="0 0 79 79" fill="none" xmlns="http://www.w3.org/2000/svg">
<path d="M39.5 0C17.7192 0 0 17.7192 0 39.5C0 61.2808 17.7192 79 39.5 79C61.2808 79 79 61.2808 79 39.5C79 17.7192 61.2761 0 39.5 0ZM4.76324 41.8235H18.4116C18.6161 46.5821 19.3922 51.2617 20.7956 55.7647H8.69929C6.46406 51.5545 5.09318 46.8284 4.76324 41.8235ZM18.4116 37.1765H4.76324C5.09318 32.1716 6.46406 27.4455 8.69929 23.2353H20.7816C19.3829 27.7383 18.6115 32.4179 18.4116 37.1765ZM25.7029 23.2353H53.1019C54.6355 27.7197 55.5277 32.3993 55.7461 37.1765H23.0587C23.2725 32.3993 24.1694 27.7197 25.7029 23.2353ZM23.0587 41.8235H55.7508C55.5231 46.6007 54.6308 51.2803 53.0926 55.7647H25.7168C24.1786 51.2803 23.2818 46.6007 23.0587 41.8235ZM60.3978 41.8235H74.2368C73.9068 46.8284 72.5359 51.5545 70.3007 55.7647H58.0139C59.4173 51.2617 60.1934 46.5821 60.3978 41.8235ZM60.3978 37.1765C60.198 32.4179 59.4266 27.7383 58.0278 23.2353H70.3007C72.5313 27.4455 73.9022 32.1716 74.2368 37.1765H60.3978ZM67.3173 18.5882H56.3781C54.5565 14.1503 52.1214 9.954 49.1752 6.04118C56.5082 8.16488 62.8282 12.64 67.3173 18.5882ZM42.0931 4.77718C45.9222 8.94559 48.9893 13.6066 51.2571 18.5882H27.5478C29.8109 13.6112 32.8733 8.95488 36.7025 4.78647C37.6272 4.71676 38.552 4.64706 39.5 4.64706C40.3736 4.64706 41.2334 4.71676 42.0931 4.77718ZM29.5878 6.10159C26.6648 9.99582 24.2391 14.1735 22.4314 18.5882H11.6781C16.116 12.7004 22.3524 8.25318 29.5878 6.10159ZM11.6781 60.4118H22.4453C24.2623 64.8311 26.6974 69.0135 29.6343 72.9077C22.3802 70.7654 16.1253 66.3135 11.6781 60.4118ZM36.7582 74.2135C32.9198 70.0451 29.8434 65.3888 27.5664 60.4118H51.2385C48.9614 65.3934 45.8851 70.0544 42.0419 74.2228C41.2008 74.2832 40.3551 74.3529 39.5 74.3529C38.5706 74.3529 37.6644 74.2832 36.7582 74.2135ZM49.1241 72.9728C52.0796 69.0599 54.5332 64.8544 56.3595 60.4118H67.3173C62.8189 66.3739 56.4804 70.8537 49.1241 72.9728Z" fill="#C2C72C"/>
</svg>
