<svg width="104" height="81" viewBox="0 0 104 81" fill="none" xmlns="http://www.w3.org/2000/svg">
<path d="M43.9937 70.7895L42.6789 70.0956L41.9938 66.6742L41.8598 66.005L41.3446 65.5573L40.9681 65.2301L42.6656 62.9033L43.2286 62.1317L42.9823 61.2089L42.0715 57.7958L41.781 56.7072L40.6995 56.3915L39.3356 55.9935L38.4065 54.2968L37.7234 53.0494L36.3209 53.285L31.0128 54.1769L30.6846 54.232L30.392 54.3905L28.3048 55.5205L26.1301 54.2412L25.1842 53.6847L24.2068 54.1836L22.5131 55.048L16.4557 52.7127L11.0924 47.2615L10.4315 46.5898L9.49276 46.6717L9.24682 46.6932L7.77939 45.1122L8.64124 39.4638L8.7363 38.8407L8.45702 38.2758L7.0717 35.4735L6.85062 35.0262L6.44538 34.7352L3.85379 32.8742L2.27639 26.5873L3.39512 25.8108L12.7834 24.5843L13.6769 24.4675L14.1814 23.7209L15.7406 21.4135L16.1209 20.8507L16.0798 20.1728L15.9141 17.437L17.9558 17.2104L18.9472 17.1004L19.4558 16.2423L20.8542 13.8827L23.123 14.5441L24.9786 15.0851L25.5826 13.249L26.4135 10.7232L26.6369 10.5737L30.0575 13.5759L30.5303 15.3067L29.8821 18.0497L29.4351 19.9409L31.3127 20.442L35.3546 21.5209L37.4374 22.9038L38.4808 26.0932L38.9317 27.4714H40.3817H41.6303L48.6832 28.7171L51.8538 30.556L52.4852 30.9222L53.2042 30.7956L58.4122 29.8782L62.9882 29.6801L63.5795 29.6545L64.0616 29.3113L68.3524 26.2569L69.1445 25.693L69.1903 24.7218L69.2147 24.2057L69.4972 24.2917L70.2583 24.5232L70.9704 24.1688L74.3411 22.4913L74.7598 22.2829L75.0427 21.9105L76.3222 20.2259L80.9331 18.2429L83.6933 17.0558L81.533 14.9676L79.557 13.0575L78.8341 12.3588L77.882 12.5155L78.3106 12.0152L80.7031 9.2226L80.8319 9.07223L80.9287 8.89952L83.1468 4.9435L83.2678 4.72777L83.3326 4.48906L83.8754 2.48823L85.4854 2.09695L87.7506 3.02843L91.2556 10.4616L91.7031 11.4107L92.7383 11.5819L95.0087 11.9572L97.0644 14.9416L97.7641 15.9574L98.9859 15.7881L101.436 15.4485L101.568 15.4303L101.386 17.1426L98.5183 18.688L97.2017 19.3975L97.51 20.861L98.0006 23.1895L94.7874 26.5811L93.3693 26.4048L92.2886 26.2705L91.5893 27.1055L89.6996 29.3619L88.0977 30.9124L84.0157 29.2017L82.774 28.6814L81.8246 29.6359L79.7719 31.6997L76.8021 33.4294L76.3422 33.6973L76.0763 34.1582L75.2821 35.5347L74.7786 36.4074L75.1802 37.3314L76.5822 40.5571L77.1283 41.8137L78.4973 41.7582L81.0293 41.6557L79.4753 43.1284L78.4181 44.1302L79.0472 45.4439L82.4916 52.6362L82.4635 53.9141L82.4469 54.6703L82.9347 55.2482L83.7874 56.2583L83.5301 58.1864L81.6517 60.2981L81.5521 60.41L81.4703 60.5356L79.7266 63.2119L79.6068 63.3957L79.5298 63.6012L78.8505 65.4119L75.7816 68.0111L73.764 69.4651L72.3984 69.3761L71.7951 69.3367L71.2711 69.6381L68.3243 71.333L64.0695 72.4058L62.6628 72.0146L62.4431 71.9536L62.2153 71.9435L58.6258 71.7849L58.0212 70.4047L57.7043 69.6812L56.9786 69.3695L54.5862 68.3419L53.9009 68.0475L53.1902 68.2737L50.1143 69.2528L45.9976 69.217L44.0482 69.2L43.9937 70.7895ZM76.082 12.5851L76.4697 12.748L75.9753 12.8294L76.082 12.5851Z" stroke="#C2C72C" stroke-width="4"/>
</svg>
