<svg width="79" height="79" viewBox="0 0 79 79" fill="none" xmlns="http://www.w3.org/2000/svg">
<path d="M71.6873 39.3755C70.8269 38.8903 69.8943 38.5479 68.9523 38.2645C68.2371 30.4123 63.5546 24.2656 55.6051 20.9402C48.3545 17.9022 41.8277 18.5233 36.7188 22.6033V18.137C37.8424 18.4102 39.5648 18.7455 41.6529 18.7455H41.6568C44.6721 18.7455 47.3543 18.0443 49.5745 16.6631C55.6493 12.9051 57.5954 4.55505 57.6637 4.20249C57.9099 3.10632 57.298 1.99367 56.2465 1.63325C56.1378 1.59242 53.4401 0.681569 50.028 0.681569C47.0088 0.681569 44.3406 1.37727 42.1134 2.75926C39.6984 4.25667 37.9667 6.46549 36.718 8.61541V2.20018C36.718 0.986234 35.7403 0 34.5414 0C33.3416 0 32.3663 0.986234 32.3663 2.20018V22.6072C27.2504 18.5233 20.7236 17.8983 13.4753 20.9394C1.33949 26.0213 -2.86705 37.0207 1.94985 51.1177C5.87838 62.651 14.7504 73.7571 23.0485 77.5301C26.7371 79.212 30.2743 79.4389 33.2911 78.1747C33.7081 78.0028 34.1174 77.7884 34.5476 77.5301C34.9692 77.7971 35.3738 77.9949 35.7931 78.1747C37.1164 78.733 38.5033 79 39.9647 79C43.0507 79 46.4007 77.6895 49.8734 75.2451C52.1937 76.9506 53.9992 78.1119 54.5544 78.4676C54.907 78.6914 55.3131 78.8029 55.7107 78.8029C56.1176 78.8029 56.5237 78.6914 56.8747 78.4676C58.8433 77.2215 76.1788 65.9638 78.2926 56.2719C78.7577 54.8396 79 53.3571 79 51.8582C78.9969 46.6624 76.1959 41.8765 71.6873 39.3755ZM44.391 6.50789C45.927 5.55856 47.8288 5.08193 50.0373 5.08193C51.053 5.08193 52.0019 5.18479 52.7777 5.31593C51.9406 7.57814 50.2368 11.1014 47.3132 12.9145C45.7748 13.8638 43.8715 14.3451 41.6576 14.3451C40.6403 14.3451 39.6906 14.2384 38.918 14.1064C39.8304 11.6644 41.6141 8.23694 44.391 6.50789ZM37.441 74.0932C36.9805 73.9 36.4982 73.6032 35.8925 73.1148C35.0997 72.4772 33.9869 72.4772 33.1933 73.1179C32.6202 73.5773 32.1162 73.9039 31.6324 74.1018C29.7221 74.9012 27.4337 74.7033 24.8361 73.5145C17.6609 70.2519 9.58948 60.0001 6.06863 49.68C0.913163 34.5794 8.16219 27.9271 15.1588 25.0013C20.2553 22.8726 27.4593 21.8903 32.791 29.3931C32.8205 29.4355 32.878 29.4527 32.8997 29.4896C33.0434 29.6671 33.2142 29.8061 33.4006 29.9302C33.4876 29.982 33.5381 30.044 33.6305 30.0825C33.9077 30.2199 34.223 30.3118 34.5569 30.3118C34.8869 30.3118 35.1921 30.2199 35.4849 30.0825C35.5718 30.044 35.627 29.9859 35.7062 29.9341C35.9003 29.8092 36.0711 29.6663 36.2156 29.4849C36.2498 29.4441 36.3026 29.4268 36.3243 29.3931C41.646 21.8903 48.8398 22.8616 53.9472 25.0013C58.2997 26.8191 63.4482 30.5183 64.5113 37.7022C61.3111 37.8051 58.1521 38.9225 55.7239 41.0347C51.4079 37.2853 44.7731 36.5464 39.7403 39.3653C35.2371 41.8765 32.4377 46.6545 32.4377 51.8534C32.4377 53.3618 32.6784 54.8522 33.0815 56.052C34.3395 61.8131 40.7226 68.0093 46.2268 72.4521C43.6852 73.9989 40.3561 75.3213 37.441 74.0932ZM74.0969 55.0925C72.6945 61.4967 61.2723 70.2692 55.7107 73.9817C54.4783 73.1564 52.9369 72.0571 51.2992 70.8196C51.1889 70.7293 51.0778 70.6225 50.9466 70.5534C45.2654 66.1962 38.3744 59.9137 37.2577 54.8789C36.937 53.9037 36.7755 52.8852 36.7755 51.8534C36.7755 48.2697 38.7021 44.9616 41.8277 43.2215C43.2573 42.4096 44.8717 41.9966 46.5172 41.9966C49.4316 41.9966 52.1658 43.3024 54.0318 45.5709C54.4457 46.0789 55.0615 46.371 55.7107 46.371C56.356 46.371 56.9679 46.0797 57.3857 45.5709C60.2907 42.0217 65.6108 40.9915 69.5875 43.231C72.7092 44.9702 74.6451 48.2697 74.6451 51.8668C74.6451 52.8758 74.479 53.8934 74.0969 55.0925Z" fill="#C2C72C"/>
</svg>
