<svg width="79" height="80" viewBox="0 0 79 80" fill="none" xmlns="http://www.w3.org/2000/svg">
<path d="M52.8923 26.4257L2 78M25.5803 54.1038L26.457 53.3868C27.3075 52.639 28.078 51.8012 28.7548 50.8866C34.0144 43.7799 32.5932 33.6975 25.5803 28.3674L24.7036 29.0844C23.8531 29.832 23.0827 30.6699 22.4059 31.5843C17.1461 38.6913 18.5673 48.7737 25.5803 54.1038ZM25.5803 54.1038L26.2879 54.9921C27.0256 55.854 27.8525 56.6347 28.7549 57.321C35.7679 62.6507 45.7166 61.2105 50.9763 54.1038L50.2687 53.2151C49.5313 52.3532 48.7041 51.5725 47.8016 50.8866C40.7888 45.5565 30.8401 46.9967 25.5803 54.1038ZM38.2783 41.2354L39.1549 40.5184C40.0054 39.771 40.7758 38.9332 41.4526 38.0186C46.7127 30.9117 45.2911 20.8294 38.2783 15.4992L37.4018 16.2162C36.5513 16.9638 35.7809 17.8017 35.1041 18.7162C29.8441 25.8231 31.2651 35.9053 38.2783 41.2354ZM38.2783 41.2354L38.9859 42.1241C39.7238 42.9861 40.5505 43.7668 41.453 44.4526C48.4658 49.7827 58.4145 48.3425 63.6742 41.2354L62.9667 40.3471C62.2292 39.4852 61.4021 38.7045 60.5 38.0186C53.4868 32.6885 43.538 34.1287 38.2783 41.2354ZM50.9763 28.3674L51.8533 27.6504C52.7034 26.9028 53.4742 26.0649 54.151 25.1504C59.4107 18.0435 57.9895 7.96126 50.9763 2.63105L50.0997 3.34804C49.2492 4.09564 48.4788 4.93351 47.802 5.848C42.5423 12.9549 43.9635 23.0372 50.9763 28.3674ZM50.9763 28.3674L51.6838 29.2559C52.4217 30.1178 53.2484 30.8986 54.151 31.5845C61.1638 36.9147 71.1129 35.4741 76.3722 28.3674L75.665 27.4789C74.9271 26.6169 74.1004 25.8362 73.1979 25.1503C66.1847 19.8202 56.236 21.2606 50.9763 28.3674ZM12.5817 67.2765L13.4584 66.5595C14.3089 65.8117 15.0793 64.9739 15.7561 64.0593C21.0159 56.9526 19.5947 46.8702 12.5817 41.5401L11.705 42.2572C10.8545 43.0045 10.084 43.8427 9.40723 44.7569C4.14746 51.864 5.56869 61.9464 12.5817 67.2765ZM12.5817 67.2765L13.2892 68.1648C14.0269 69.0267 14.8538 69.8074 15.7563 70.4937C22.7692 75.8234 32.718 74.3832 37.9776 67.2765L37.2701 66.3878C36.5326 65.5259 35.7055 64.7452 34.8029 64.0593C27.7902 58.7292 17.8413 60.1694 12.5817 67.2765ZM63.3705 20.36C62.2535 20.5217 61.1243 20.5621 60.0012 20.4813L58.8808 20.3599C57.6411 11.5656 63.6712 3.41799 72.3491 2.16166C73.8379 1.94611 75.3496 1.94611 76.8384 2.16166C78.0784 10.9561 72.0484 19.1037 63.3705 20.36Z" stroke="#C2C72C" stroke-width="4"/>
</svg>
