<svg width="226" height="85" viewBox="0 0 226 85" fill="none" xmlns="http://www.w3.org/2000/svg">
<path d="M0.0683594 2.23145H42.426C47.644 2.23145 51.874 6.46147 51.874 11.6795V54.0371H9.5164C4.29839 54.0371 0.0683594 49.8071 0.0683594 44.5891V2.23145Z" fill="#01556B"/>
<path d="M25.9712 24.8926C25.9712 17.2822 32.1406 11.1128 39.751 11.1128H47.2319V18.5937C47.2319 26.2041 41.0625 32.3735 33.4521 32.3735H25.9712V24.8926Z" fill="#82C75B"/>
<path d="M12.1916 28.1338C19.802 28.1338 25.9714 34.3032 25.9714 41.9136V49.3303H18.5547C10.9443 49.3303 4.7749 43.1609 4.7749 35.5505V28.1338H12.1916Z" fill="#3AB54A"/>
<path d="M36.6013 49.3305C40.5826 49.3305 43.81 46.1031 43.81 42.1218C43.81 38.1405 40.5826 34.9131 36.6013 34.9131C32.62 34.9131 29.3926 38.1405 29.3926 42.1218C29.3926 46.1031 32.62 49.3305 36.6013 49.3305Z" fill="#FAFAE2"/>
<path d="M15.3727 26.156C20.8352 26.156 25.2634 21.7277 25.2634 16.2652C25.2634 10.8027 20.8352 6.37451 15.3727 6.37451C9.91018 6.37451 5.48193 10.8027 5.48193 16.2652C5.48193 21.7277 9.91018 26.156 15.3727 26.156Z" fill="#009EDB"/>
<mask id="mask0_2003_2" style="mask-type:luminance" maskUnits="userSpaceOnUse" x="5" y="6" width="21" height="21">
<path d="M15.3727 26.156C20.8352 26.156 25.2634 21.7277 25.2634 16.2652C25.2634 10.8027 20.8352 6.37451 15.3727 6.37451C9.91018 6.37451 5.48193 10.8027 5.48193 16.2652C5.48193 21.7277 9.91018 26.156 15.3727 26.156Z" fill="white"/>
</mask>
<g mask="url(#mask0_2003_2)">
<path d="M5.90687 23.1946C11.3694 23.1946 15.7976 18.7663 15.7976 13.3038C15.7976 7.84133 11.3694 3.41309 5.90687 3.41309C0.444359 3.41309 -3.98389 7.84133 -3.98389 13.3038C-3.98389 18.7663 0.444359 23.1946 5.90687 23.1946Z" fill="#64D3ED"/>
<path d="M16.0768 34.2507C21.5393 34.2507 25.9675 29.8224 25.9675 24.3599C25.9675 18.8974 21.5393 14.4692 16.0768 14.4692C10.6143 14.4692 6.18604 18.8974 6.18604 24.3599C6.18604 29.8224 10.6143 34.2507 16.0768 34.2507Z" fill="#2EBCE8"/>
</g>
<path d="M0.590332 79.8919H1.51821C1.60326 80.3249 1.80043 80.6651 2.10972 80.9125C2.42674 81.1599 2.80949 81.2837 3.25796 81.2837C3.78375 81.2837 4.22449 81.1058 4.58018 80.7501C4.93586 80.3867 5.1137 79.9344 5.1137 79.3931C5.1137 78.8364 4.94746 78.3841 4.61497 78.0361C4.28248 77.6882 3.84948 77.5142 3.31595 77.5142C2.63551 77.5142 2.11359 77.7462 1.75017 78.2101H0.764308L1.22825 73.9187H5.57763V74.7886H2.00534L1.75017 77.1662H1.80816C2.20251 76.8183 2.74377 76.6443 3.43194 76.6443C4.1433 76.6443 4.75415 76.9111 5.26448 77.4446C5.78254 77.9704 6.04157 78.6199 6.04157 79.3931C6.04157 80.1973 5.77867 80.8584 5.25288 81.3764C4.73482 81.8945 4.06985 82.1535 3.25796 82.1535C2.56206 82.1535 1.96668 81.9525 1.47181 81.5504C0.976944 81.1483 0.683119 80.5955 0.590332 79.8919ZM7.1484 79.138V78.3261H10.8598V79.138H7.1484ZM12.3114 77.8621L14.8631 73.9187H15.9069L13.9932 76.9343H14.0512L14.2716 76.8763C14.4262 76.8376 14.604 76.8183 14.8051 76.8183C15.5396 76.8183 16.1582 77.0657 16.6608 77.5606C17.1634 78.0554 17.4147 78.6779 17.4147 79.4279C17.4147 80.1857 17.1441 80.8313 16.6028 81.3648C16.0693 81.8906 15.4121 82.1535 14.6311 82.1535C13.8502 82.1535 13.189 81.8906 12.6478 81.3648C12.1143 80.8313 11.8475 80.1857 11.8475 79.4279C11.8475 78.8635 12.0021 78.3415 12.3114 77.8621ZM13.3089 80.7501C13.6646 81.1058 14.1053 81.2837 14.6311 81.2837C15.1569 81.2837 15.5976 81.1058 15.9533 80.7501C16.309 80.3867 16.4868 79.946 16.4868 79.4279C16.4868 78.9099 16.309 78.473 15.9533 78.1173C15.5976 77.7539 15.1569 77.5722 14.6311 77.5722C14.1053 77.5722 13.6646 77.7539 13.3089 78.1173C12.9532 78.473 12.7754 78.9099 12.7754 79.4279C12.7754 79.946 12.9532 80.3867 13.3089 80.7501ZM21.0687 79.6599H21.9965C21.9965 80.1161 22.186 80.5027 22.5648 80.8197C22.9515 81.129 23.4773 81.2837 24.1422 81.2837C24.8227 81.2837 25.3291 81.1522 25.6616 80.8893C26.0018 80.6187 26.1719 80.2669 26.1719 79.8339C26.1719 79.1225 25.708 78.6779 24.7801 78.5001L23.2144 78.2101C21.8999 77.9627 21.2426 77.2668 21.2426 76.1224C21.2426 75.4419 21.4939 74.8852 21.9965 74.4522C22.4991 74.0192 23.1757 73.8027 24.0262 73.8027C24.9309 73.8027 25.6577 74.0424 26.2067 74.5218C26.7635 74.9935 27.0418 75.585 27.0418 76.2964H26.1139C26.1139 75.8402 25.9245 75.4574 25.5456 75.1481C25.1745 74.8311 24.668 74.6726 24.0262 74.6726C23.4386 74.6726 22.9824 74.8079 22.6576 75.0785C22.3329 75.3492 22.1705 75.6971 22.1705 76.1224C22.1705 76.8028 22.6151 77.2281 23.5043 77.3982L24.7801 77.6302C25.5843 77.7771 26.1719 78.0284 26.5431 78.3841C26.9142 78.7398 27.0998 79.223 27.0998 79.8339C27.0998 80.522 26.8408 81.0826 26.3227 81.5156C25.8047 81.9409 25.0778 82.1535 24.1422 82.1535C23.2144 82.1535 22.4682 81.9138 21.9037 81.4344C21.347 80.9473 21.0687 80.3558 21.0687 79.6599ZM32.4958 80.4138H33.4236C33.2226 80.9705 32.9056 81.3996 32.4726 81.7012C32.0473 82.0028 31.5331 82.1535 30.93 82.1535C30.1336 82.1535 29.4686 81.8752 28.9351 81.3185C28.4093 80.754 28.1464 80.0272 28.1464 79.138C28.1464 78.2488 28.4093 77.5258 28.9351 76.9691C29.4686 76.4046 30.1336 76.1224 30.93 76.1224C31.6955 76.1224 32.3295 76.3853 32.8321 76.9111C33.3424 77.4369 33.5976 78.1018 33.5976 78.906C33.5976 79.0297 33.586 79.196 33.5628 79.4047L33.5396 79.5439H29.0163C29.0781 80.0852 29.2869 80.522 29.6426 80.8545C30.006 81.1793 30.4351 81.3417 30.93 81.3417C31.2779 81.3417 31.5872 81.2605 31.8579 81.0981C32.1362 80.9357 32.3489 80.7076 32.4958 80.4138ZM29.0163 78.732H32.7277C32.6968 78.2062 32.5112 77.7771 32.171 77.4446C31.8385 77.1044 31.4249 76.9343 30.93 76.9343C30.4119 76.9343 29.9789 77.1005 29.631 77.433C29.283 77.7655 29.0781 78.1985 29.0163 78.732ZM34.8712 84.3572V76.2384H35.6251L35.741 77.0503H35.799C36.2862 76.4317 36.9047 76.1224 37.6548 76.1224C38.4203 76.1224 39.0543 76.4046 39.5569 76.9691C40.0672 77.5258 40.3224 78.2488 40.3224 79.138C40.3224 80.0272 40.0672 80.754 39.5569 81.3185C39.0543 81.8752 38.4203 82.1535 37.6548 82.1535C36.9047 82.1535 36.2862 81.8442 35.799 81.2257H35.741V84.3572H34.8712ZM36.2862 80.7269C36.6496 81.1367 37.0865 81.3417 37.5968 81.3417C38.1071 81.3417 38.544 81.1367 38.9074 80.7269C39.2708 80.3171 39.4525 79.7875 39.4525 79.138C39.4525 78.4885 39.2708 77.9588 38.9074 77.549C38.544 77.1392 38.1071 76.9343 37.5968 76.9343C37.0865 76.9343 36.6496 77.1392 36.2862 77.549C35.9228 77.9588 35.741 78.4885 35.741 79.138C35.741 79.7875 35.9228 80.3171 36.2862 80.7269ZM41.7785 81.0517V77.0503H40.8507V76.2384H41.7785V74.6146H42.6484V76.2384H43.9822V77.0503H42.6484V80.8777C42.6484 81.1097 42.7644 81.2257 42.9964 81.2257H43.9822V82.0376H42.8224C42.4976 82.0376 42.2425 81.9486 42.0569 81.7708C41.8713 81.5929 41.7785 81.3532 41.7785 81.0517ZM49.0891 80.4138H50.017C49.816 80.9705 49.4989 81.3996 49.0659 81.7012C48.6407 82.0028 48.1265 82.1535 47.5234 82.1535C46.7269 82.1535 46.062 81.8752 45.5284 81.3185C45.0026 80.754 44.7397 80.0272 44.7397 79.138C44.7397 78.2488 45.0026 77.5258 45.5284 76.9691C46.062 76.4046 46.7269 76.1224 47.5234 76.1224C48.2888 76.1224 48.9229 76.3853 49.4255 76.9111C49.9358 77.4369 50.191 78.1018 50.191 78.906C50.191 79.0297 50.1794 79.196 50.1562 79.4047L50.133 79.5439H45.6096C45.6715 80.0852 45.8803 80.522 46.2359 80.8545C46.5994 81.1793 47.0285 81.3417 47.5234 81.3417C47.8713 81.3417 48.1806 81.2605 48.4512 81.0981C48.7296 80.9357 48.9422 80.7076 49.0891 80.4138ZM45.6096 78.732H49.3211C49.2902 78.2062 49.1046 77.7771 48.7644 77.4446C48.4319 77.1044 48.0182 76.9343 47.5234 76.9343C47.0053 76.9343 46.5723 77.1005 46.2243 77.433C45.8764 77.7655 45.6715 78.1985 45.6096 78.732ZM51.4645 82.0376V76.2384H52.2184L52.3344 76.8763H52.3924C52.5084 76.7371 52.6437 76.6134 52.7983 76.5051C53.1618 76.25 53.529 76.1224 53.9002 76.1224C54.4028 76.1224 54.8358 76.2886 55.1992 76.6211C55.3539 76.7603 55.4814 76.9227 55.582 77.1082H55.6399C55.7714 76.9149 55.9299 76.7526 56.1155 76.6211C56.5408 76.2886 57.0202 76.1224 57.5537 76.1224C58.1568 76.1224 58.6555 76.335 59.0499 76.7603C59.4442 77.1778 59.6414 77.7191 59.6414 78.3841V82.0376H58.7715V78.3841C58.7715 77.9433 58.6517 77.5915 58.412 77.3286C58.1723 77.0657 57.8475 76.9343 57.4377 76.9343C57.0511 76.9343 56.7109 77.0773 56.417 77.3634C56.1309 77.6418 55.9879 77.982 55.9879 78.3841V82.0376H55.118V78.3841C55.118 77.9433 54.9982 77.5915 54.7585 77.3286C54.5188 77.0657 54.194 76.9343 53.7842 76.9343C53.3976 76.9343 53.0574 77.0773 52.7636 77.3634C52.4775 77.6418 52.3344 77.982 52.3344 78.3841V82.0376H51.4645ZM61.32 82.0376V73.9187H62.1899V77.0503H62.2478C62.735 76.4317 63.3536 76.1224 64.1036 76.1224C64.8691 76.1224 65.5031 76.4046 66.0057 76.9691C66.516 77.5258 66.7712 78.2488 66.7712 79.138C66.7712 80.0272 66.516 80.754 66.0057 81.3185C65.5031 81.8752 64.8691 82.1535 64.1036 82.1535C63.3536 82.1535 62.735 81.8442 62.2478 81.2257H62.1899L62.0739 82.0376H61.32ZM62.735 80.7269C63.0984 81.1367 63.5353 81.3417 64.0456 81.3417C64.5559 81.3417 64.9928 81.1367 65.3562 80.7269C65.7196 80.3171 65.9013 79.7875 65.9013 79.138C65.9013 78.4885 65.7196 77.9588 65.3562 77.549C64.9928 77.1392 64.5559 76.9343 64.0456 76.9343C63.5353 76.9343 63.0984 77.1392 62.735 77.549C62.3716 77.9588 62.1899 78.4885 62.1899 79.138C62.1899 79.7875 62.3716 80.3171 62.735 80.7269ZM72.048 80.4138H72.9759C72.7748 80.9705 72.4578 81.3996 72.0248 81.7012C71.5995 82.0028 71.0854 82.1535 70.4822 82.1535C69.6858 82.1535 69.0208 81.8752 68.4873 81.3185C67.9615 80.754 67.6986 80.0272 67.6986 79.138C67.6986 78.2488 67.9615 77.5258 68.4873 76.9691C69.0208 76.4046 69.6858 76.1224 70.4822 76.1224C71.2477 76.1224 71.8818 76.3853 72.3844 76.9111C72.8947 77.4369 73.1499 78.1018 73.1499 78.906C73.1499 79.0297 73.1383 79.196 73.1151 79.4047L73.0919 79.5439H68.5685C68.6304 80.0852 68.8391 80.522 69.1948 80.8545C69.5582 81.1793 69.9874 81.3417 70.4822 81.3417C70.8302 81.3417 71.1395 81.2605 71.4101 81.0981C71.6885 80.9357 71.9011 80.7076 72.048 80.4138ZM68.5685 78.732H72.28C72.2491 78.2062 72.0635 77.7771 71.7233 77.4446C71.3908 77.1044 70.9771 76.9343 70.4822 76.9343C69.9642 76.9343 69.5312 77.1005 69.1832 77.433C68.8353 77.7655 68.6304 78.1985 68.5685 78.732ZM74.4234 82.0376V76.2384H75.1773L75.2933 76.8183H75.3513C75.4905 76.6172 75.6335 76.4703 75.7804 76.3775C75.9351 76.2848 76.1593 76.2384 76.4531 76.2384H77.439V77.0503H76.5691C76.1593 77.0503 75.8423 77.1624 75.618 77.3866C75.4015 77.6031 75.2933 77.9163 75.2933 78.3261V82.0376H74.4234ZM80.513 82.0376V81.2837L83.8185 77.7462C84.066 77.4755 84.2438 77.2358 84.3521 77.0271C84.4603 76.8106 84.5144 76.5477 84.5144 76.2384C84.5144 75.7744 84.3675 75.3994 84.0737 75.1133C83.7876 74.8195 83.4126 74.6726 82.9487 74.6726C82.5079 74.6726 82.1368 74.835 81.8352 75.1597C81.5337 75.4845 81.3829 75.902 81.3829 76.4123H80.455C80.455 75.6546 80.687 75.0321 81.1509 74.545C81.6226 74.0501 82.2218 73.8027 82.9487 73.8027C83.6755 73.8027 84.2709 74.0308 84.7348 74.487C85.2065 74.9355 85.4423 75.5193 85.4423 76.2384C85.4423 76.6868 85.3611 77.0696 85.1988 77.3866C85.0364 77.6959 84.7889 78.0284 84.4565 78.3841L81.8468 81.1097V81.1677H85.6163V82.0376H80.513ZM87.6246 81.0517C87.0215 80.3171 86.7199 79.2926 86.7199 77.9781C86.7199 76.6636 87.0215 75.6391 87.6246 74.9046C88.2277 74.17 88.97 73.8027 89.8515 73.8027C90.733 73.8027 91.4753 74.17 92.0784 74.9046C92.6815 75.6391 92.9831 76.6636 92.9831 77.9781C92.9831 79.2926 92.6815 80.3171 92.0784 81.0517C91.4753 81.7863 90.733 82.1535 89.8515 82.1535C88.97 82.1535 88.2277 81.7863 87.6246 81.0517ZM91.4173 75.5425C90.992 74.9625 90.4701 74.6726 89.8515 74.6726C89.2329 74.6726 88.711 74.9625 88.2857 75.5425C87.8605 76.1224 87.6478 76.9343 87.6478 77.9781C87.6478 79.022 87.8605 79.8339 88.2857 80.4138C88.711 80.9937 89.2329 81.2837 89.8515 81.2837C90.4701 81.2837 90.992 80.9937 91.4173 80.4138C91.8426 79.8339 92.0552 79.022 92.0552 77.9781C92.0552 76.9343 91.8426 76.1224 91.4173 75.5425ZM94.2634 82.0376V81.2837L97.569 77.7462C97.8164 77.4755 97.9942 77.2358 98.1025 77.0271C98.2107 76.8106 98.2649 76.5477 98.2649 76.2384C98.2649 75.7744 98.1179 75.3994 97.8241 75.1133C97.538 74.8195 97.163 74.6726 96.6991 74.6726C96.2583 74.6726 95.8872 74.835 95.5856 75.1597C95.2841 75.4845 95.1333 75.902 95.1333 76.4123H94.2054C94.2054 75.6546 94.4374 75.0321 94.9013 74.545C95.373 74.0501 95.9722 73.8027 96.6991 73.8027C97.4259 73.8027 98.0213 74.0308 98.4852 74.487C98.9569 74.9355 99.1927 75.5193 99.1927 76.2384C99.1927 76.6868 99.1115 77.0696 98.9492 77.3866C98.7868 77.6959 98.5394 78.0284 98.2069 78.3841L95.5972 81.1097V81.1677H99.3667V82.0376H94.2634ZM99.7133 80.1818V79.4859L102.903 73.9187H104.411V79.3699H105.454V80.1818H104.411V82.0376H103.483V80.1818H99.7133ZM100.873 79.3699H103.483V75.1365H103.251L100.873 79.3119V79.3699ZM108.824 79.138V78.3261H114.275V79.138H108.824ZM119.961 82.0376V74.7886H117.293V73.9187H123.557V74.7886H120.889V82.0376H119.961ZM127.735 82.0376L127.619 81.3417H127.561C127.453 81.4963 127.314 81.6316 127.144 81.7476C126.788 82.0182 126.328 82.1535 125.763 82.1535C125.16 82.1535 124.669 81.9873 124.29 81.6548C123.919 81.3223 123.734 80.8893 123.734 80.3558C123.734 79.7759 123.923 79.3235 124.302 78.9988C124.689 78.6663 125.272 78.5001 126.053 78.5001H127.619V78.3261C127.619 77.8853 127.495 77.5451 127.248 77.3054C127.008 77.058 126.668 76.9343 126.227 76.9343C125.81 76.9343 125.47 77.0309 125.207 77.2242C124.952 77.4098 124.808 77.6418 124.778 77.9201H123.908C123.939 77.4253 124.159 77.0039 124.569 76.6559C124.986 76.3002 125.539 76.1224 126.227 76.1224C126.931 76.1224 127.484 76.3157 127.886 76.7023C128.288 77.0889 128.489 77.6302 128.489 78.3261V82.0376H127.735ZM127.619 79.5439V79.3119H126.053C125.559 79.3119 125.191 79.4086 124.952 79.6019C124.72 79.7952 124.604 80.0465 124.604 80.3558C124.604 80.6573 124.704 80.897 124.905 81.0749C125.106 81.2527 125.392 81.3417 125.763 81.3417C126.343 81.3417 126.796 81.1831 127.12 80.8661C127.453 80.5414 127.619 80.1006 127.619 79.5439ZM129.652 80.3558H130.522C130.522 80.6264 130.65 80.8584 130.905 81.0517C131.168 81.245 131.523 81.3417 131.972 81.3417C132.412 81.3417 132.753 81.2605 132.992 81.0981C133.24 80.928 133.364 80.7192 133.364 80.4718C133.364 80.0156 133.035 79.7256 132.378 79.6019L131.392 79.4279C130.309 79.2501 129.768 78.7088 129.768 77.8041C129.768 77.317 129.954 76.9149 130.325 76.5979C130.696 76.2809 131.226 76.1224 131.914 76.1224C132.586 76.1224 133.132 76.3002 133.549 76.6559C133.967 77.0116 134.175 77.433 134.175 77.9201H133.306C133.306 77.6495 133.178 77.4175 132.923 77.2242C132.675 77.0309 132.339 76.9343 131.914 76.9343C131.496 76.9343 131.179 77.0193 130.963 77.1894C130.746 77.3518 130.638 77.5567 130.638 77.8041C130.638 78.2294 130.947 78.5001 131.566 78.616L132.552 78.79C133.132 78.8983 133.557 79.0916 133.827 79.3699C134.098 79.6406 134.233 80.0078 134.233 80.4718C134.233 80.9589 134.036 81.361 133.642 81.678C133.255 81.995 132.699 82.1535 131.972 82.1535C131.276 82.1535 130.715 81.9757 130.29 81.62C129.865 81.2643 129.652 80.8429 129.652 80.3558ZM135.509 82.0376V73.9187H136.379V76.8763H136.437C136.56 76.7216 136.703 76.5979 136.866 76.5051C137.268 76.25 137.705 76.1224 138.176 76.1224C138.849 76.1224 139.402 76.3505 139.835 76.8067C140.276 77.2552 140.496 77.8389 140.496 78.558V82.0376H139.626V78.558C139.626 78.0941 139.475 77.7075 139.174 77.3982C138.872 77.0889 138.501 76.9343 138.06 76.9343C137.596 76.9343 137.198 77.0966 136.866 77.4214C136.541 77.7384 136.379 78.1173 136.379 78.558V82.0376H135.509ZM142.18 82.0376V73.9187H143.05V78.906L145.66 76.2384H146.761L143.978 79.08L146.877 82.0376H145.776L143.05 79.2539V82.0376H142.18ZM151.47 80.4138H152.398C152.196 80.9705 151.879 81.3996 151.446 81.7012C151.021 82.0028 150.507 82.1535 149.904 82.1535C149.107 82.1535 148.442 81.8752 147.909 81.3185C147.383 80.754 147.12 80.0272 147.12 79.138C147.12 78.2488 147.383 77.5258 147.909 76.9691C148.442 76.4046 149.107 76.1224 149.904 76.1224C150.669 76.1224 151.303 76.3853 151.806 76.9111C152.316 77.4369 152.572 78.1018 152.572 78.906C152.572 79.0297 152.56 79.196 152.537 79.4047L152.514 79.5439H147.99C148.052 80.0852 148.261 80.522 148.616 80.8545C148.98 81.1793 149.409 81.3417 149.904 81.3417C150.252 81.3417 150.561 81.2605 150.832 81.0981C151.11 80.9357 151.323 80.7076 151.47 80.4138ZM147.99 78.732H151.702C151.671 78.2062 151.485 77.7771 151.145 77.4446C150.812 77.1044 150.399 76.9343 149.904 76.9343C149.386 76.9343 148.953 77.1005 148.605 77.433C148.257 77.7655 148.052 78.1985 147.99 78.732ZM153.845 82.0376V76.2384H154.599L154.715 76.8763H154.773C154.897 76.7216 155.04 76.5979 155.202 76.5051C155.604 76.25 156.041 76.1224 156.513 76.1224C157.185 76.1224 157.738 76.3505 158.171 76.8067C158.612 77.2552 158.832 77.8389 158.832 78.558V82.0376H157.962V78.558C157.962 78.0941 157.812 77.7075 157.51 77.3982C157.209 77.0889 156.837 76.9343 156.397 76.9343C155.933 76.9343 155.535 77.0966 155.202 77.4214C154.877 77.7384 154.715 78.1173 154.715 78.558V82.0376H153.845ZM160.639 81.0517V77.0503H159.711V76.2384H160.639V74.6146H161.509V76.2384H162.843V77.0503H161.509V80.8777C161.509 81.1097 161.625 81.2257 161.857 81.2257H162.843V82.0376H161.683C161.358 82.0376 161.103 81.9486 160.918 81.7708C160.732 81.5929 160.639 81.3532 160.639 81.0517ZM163.885 82.9654L164.117 80.9937H165.161L164.639 82.9654H163.885ZM169.283 78.848V73.9187H170.211V78.848C170.211 79.5671 170.424 80.1548 170.849 80.611C171.282 81.0594 171.823 81.2837 172.473 81.2837C173.114 81.2837 173.652 81.0556 174.085 80.5994C174.518 80.1432 174.734 79.5594 174.734 78.848V73.9187H175.662V78.848C175.662 79.83 175.361 80.6264 174.758 81.2373C174.154 81.8481 173.393 82.1535 172.473 82.1535C171.553 82.1535 170.791 81.8481 170.188 81.2373C169.585 80.6264 169.283 79.83 169.283 78.848ZM176.769 82.0376V81.2837L180.017 77.0503H176.827V76.2384H181.118V76.9923L177.871 81.2257H181.176V82.0376H176.769ZM182.333 82.0376V73.9187H183.203V77.0503H183.261C183.748 76.4317 184.366 76.1224 185.116 76.1224C185.882 76.1224 186.516 76.4046 187.018 76.9691C187.529 77.5258 187.784 78.2488 187.784 79.138C187.784 80.0272 187.529 80.754 187.018 81.3185C186.516 81.8752 185.882 82.1535 185.116 82.1535C184.366 82.1535 183.748 81.8442 183.261 81.2257H183.203L183.087 82.0376H182.333ZM183.748 80.7269C184.111 81.1367 184.548 81.3417 185.058 81.3417C185.569 81.3417 186.005 81.1367 186.369 80.7269C186.732 80.3171 186.914 79.7875 186.914 79.138C186.914 78.4885 186.732 77.9588 186.369 77.549C186.005 77.1392 185.569 76.9343 185.058 76.9343C184.548 76.9343 184.111 77.1392 183.748 77.549C183.384 77.9588 183.203 78.4885 183.203 79.138C183.203 79.7875 183.384 80.3171 183.748 80.7269ZM193.061 80.4138H193.989C193.788 80.9705 193.47 81.3996 193.037 81.7012C192.612 82.0028 192.098 82.1535 191.495 82.1535C190.698 82.1535 190.034 81.8752 189.5 81.3185C188.974 80.754 188.711 80.0272 188.711 79.138C188.711 78.2488 188.974 77.5258 189.5 76.9691C190.034 76.4046 190.698 76.1224 191.495 76.1224C192.26 76.1224 192.894 76.3853 193.397 76.9111C193.907 77.4369 194.163 78.1018 194.163 78.906C194.163 79.0297 194.151 79.196 194.128 79.4047L194.105 79.5439H189.581C189.643 80.0852 189.852 80.522 190.207 80.8545C190.571 81.1793 191 81.3417 191.495 81.3417C191.843 81.3417 192.152 81.2605 192.423 81.0981C192.701 80.9357 192.914 80.7076 193.061 80.4138ZM189.581 78.732H193.293C193.262 78.2062 193.076 77.7771 192.736 77.4446C192.403 77.1044 191.99 76.9343 191.495 76.9343C190.977 76.9343 190.544 77.1005 190.196 77.433C189.848 77.7655 189.643 78.1985 189.581 78.732ZM195.494 82.0376V73.9187H196.364V78.906L198.974 76.2384H200.075L197.292 79.08L200.191 82.0376H199.09L196.364 79.2539V82.0376H195.494ZM201.067 82.0376V76.2384H201.937V82.0376H201.067ZM201.009 75.0205V74.0347H201.995V75.0205H201.009ZM203.15 80.3558H204.02C204.02 80.6264 204.147 80.8584 204.403 81.0517C204.665 81.245 205.021 81.3417 205.47 81.3417C205.91 81.3417 206.251 81.2605 206.49 81.0981C206.738 80.928 206.861 80.7192 206.861 80.4718C206.861 80.0156 206.533 79.7256 205.876 79.6019L204.89 79.4279C203.807 79.2501 203.266 78.7088 203.266 77.8041C203.266 77.317 203.451 76.9149 203.823 76.5979C204.194 76.2809 204.723 76.1224 205.412 76.1224C206.084 76.1224 206.629 76.3002 207.047 76.6559C207.465 77.0116 207.673 77.433 207.673 77.9201H206.803C206.803 77.6495 206.676 77.4175 206.421 77.2242C206.173 77.0309 205.837 76.9343 205.412 76.9343C204.994 76.9343 204.677 77.0193 204.461 77.1894C204.244 77.3518 204.136 77.5567 204.136 77.8041C204.136 78.2294 204.445 78.5001 205.064 78.616L206.049 78.79C206.629 78.8983 207.055 79.0916 207.325 79.3699C207.596 79.6406 207.731 80.0078 207.731 80.4718C207.731 80.9589 207.534 81.361 207.14 81.678C206.753 81.995 206.196 82.1535 205.47 82.1535C204.774 82.1535 204.213 81.9757 203.788 81.62C203.363 81.2643 203.15 80.8429 203.15 80.3558ZM209.128 81.0517V77.0503H208.2V76.2384H209.128V74.6146H209.998V76.2384H211.332V77.0503H209.998V80.8777C209.998 81.1097 210.114 81.2257 210.346 81.2257H211.332V82.0376H210.172C209.847 82.0376 209.592 81.9486 209.406 81.7708C209.221 81.5929 209.128 81.3532 209.128 81.0517ZM216.207 82.0376L216.091 81.3417H216.033C215.924 81.4963 215.785 81.6316 215.615 81.7476C215.259 82.0182 214.799 82.1535 214.235 82.1535C213.632 82.1535 213.141 81.9873 212.762 81.6548C212.391 81.3223 212.205 80.8893 212.205 80.3558C212.205 79.7759 212.395 79.3235 212.774 78.9988C213.16 78.6663 213.744 78.5001 214.525 78.5001H216.091V78.3261C216.091 77.8853 215.967 77.5451 215.72 77.3054C215.48 77.058 215.14 76.9343 214.699 76.9343C214.281 76.9343 213.941 77.0309 213.678 77.2242C213.423 77.4098 213.28 77.6418 213.249 77.9201H212.379C212.41 77.4253 212.631 77.0039 213.04 76.6559C213.458 76.3002 214.011 76.1224 214.699 76.1224C215.403 76.1224 215.955 76.3157 216.357 76.7023C216.76 77.0889 216.961 77.6302 216.961 78.3261V82.0376H216.207ZM216.091 79.5439V79.3119H214.525C214.03 79.3119 213.663 79.4086 213.423 79.6019C213.191 79.7952 213.075 80.0465 213.075 80.3558C213.075 80.6573 213.176 80.897 213.377 81.0749C213.578 81.2527 213.864 81.3417 214.235 81.3417C214.815 81.3417 215.267 81.1831 215.592 80.8661C215.924 80.5414 216.091 80.1006 216.091 79.5439ZM218.588 82.0376V76.2384H219.341L219.457 76.8763H219.515C219.639 76.7216 219.782 76.5979 219.945 76.5051C220.347 76.25 220.783 76.1224 221.255 76.1224C221.928 76.1224 222.481 76.3505 222.914 76.8067C223.354 77.2552 223.575 77.8389 223.575 78.558V82.0376H222.705V78.558C222.705 78.0941 222.554 77.7075 222.253 77.3982C221.951 77.0889 221.58 76.9343 221.139 76.9343C220.675 76.9343 220.277 77.0966 219.945 77.4214C219.62 77.7384 219.457 78.1173 219.457 78.558V82.0376H218.588Z" fill="white"/>
<path d="M62.7213 16.4229V2.98349H65.2172V14.023H71.5528V16.4229H62.7213ZM73.3707 16.4229V2.98349H75.8666V14.023H82.2023V16.4229H73.3707ZM84.0202 16.4229V2.98349H88.916C90.7463 2.98349 92.2886 3.62986 93.5429 4.92259C94.8101 6.20253 95.4436 7.79605 95.4436 9.70315C95.4436 11.6103 94.8101 13.2102 93.5429 14.5029C92.2886 15.7829 90.7463 16.4229 88.916 16.4229H84.0202ZM86.5161 14.023H88.916C90.0807 14.023 91.0406 13.6262 91.7958 12.8326C92.5638 12.0391 92.9478 10.9959 92.9478 9.70315C92.9478 8.41042 92.5638 7.36727 91.7958 6.57371C91.0406 5.78015 90.0807 5.38337 88.916 5.38337H86.5161V14.023ZM107.152 11.6231H109.744C109.667 11.9815 109.552 12.3527 109.398 12.7366C109.257 13.1206 109.021 13.5558 108.688 14.0422C108.368 14.5157 107.997 14.9381 107.574 15.3093C107.152 15.6805 106.602 15.9941 105.923 16.2501C105.245 16.4932 104.502 16.6148 103.696 16.6148C101.853 16.6148 100.304 15.9621 99.05 14.6565C97.7957 13.351 97.1685 11.6999 97.1685 9.70315C97.1685 7.70645 97.7957 6.05533 99.05 4.7498C100.304 3.44427 101.853 2.7915 103.696 2.7915C104.451 2.7915 105.149 2.90669 105.789 3.13708C106.442 3.35467 106.986 3.63626 107.421 3.98184C107.856 4.32742 108.24 4.7306 108.573 5.19138C108.905 5.63935 109.161 6.06813 109.341 6.47771C109.52 6.88729 109.654 7.29047 109.744 7.68725H107.152C106.896 7.02169 106.48 6.43931 105.904 5.94014C105.341 5.44096 104.605 5.19138 103.696 5.19138C102.519 5.19138 101.552 5.60736 100.797 6.43931C100.042 7.25847 99.6644 8.34642 99.6644 9.70315C99.6644 11.0599 100.042 12.1543 100.797 12.9862C101.552 13.8054 102.519 14.215 103.696 14.215C104.618 14.215 105.36 13.959 105.923 13.447C106.499 12.935 106.909 12.3271 107.152 11.6231ZM110.998 13.447H113.302C113.302 13.7414 113.469 14.023 113.802 14.2918C114.147 14.5605 114.621 14.6949 115.222 14.6949C116.438 14.6949 117.046 14.343 117.046 13.639C117.046 13.3318 116.95 13.095 116.758 12.9286C116.566 12.7494 116.214 12.6214 115.702 12.5446L114.166 12.2951C112.054 11.9495 110.998 11.0215 110.998 9.51116C110.998 8.6536 111.363 7.93044 112.093 7.34167C112.822 6.7401 113.834 6.43931 115.126 6.43931C116.419 6.43931 117.43 6.7913 118.16 7.49526C118.889 8.19923 119.254 8.90319 119.254 9.60715H116.95C116.95 9.28717 116.784 8.99919 116.451 8.7432C116.118 8.48721 115.677 8.35922 115.126 8.35922C114.576 8.35922 114.147 8.47441 113.84 8.7048C113.546 8.92239 113.398 9.19118 113.398 9.51116C113.398 9.98474 113.846 10.2856 114.742 10.4136L116.374 10.6631C118.422 10.9703 119.446 11.9623 119.446 13.639C119.446 14.4965 119.081 15.2069 118.352 15.7701C117.635 16.3333 116.592 16.6148 115.222 16.6148C114.531 16.6148 113.917 16.5252 113.379 16.3461C112.854 16.1669 112.445 15.9557 112.15 15.7125C111.869 15.4565 111.632 15.1685 111.44 14.8485C111.261 14.5285 111.139 14.2598 111.075 14.0422C111.024 13.8118 110.998 13.6134 110.998 13.447ZM126.355 16.4229V2.98349H135.283V5.28737H128.851V8.55121H134.803V10.8551H128.851V16.4229H126.355ZM139.294 13.6006C139.793 14.1382 140.408 14.407 141.137 14.407C141.867 14.407 142.481 14.1382 142.98 13.6006C143.48 13.063 143.729 12.3719 143.729 11.5271C143.729 10.6823 143.48 9.99114 142.98 9.45356C142.481 8.91599 141.867 8.6472 141.137 8.6472C140.408 8.6472 139.793 8.91599 139.294 9.45356C138.795 9.99114 138.545 10.6823 138.545 11.5271C138.545 12.3719 138.795 13.063 139.294 13.6006ZM137.547 7.87924C138.494 6.91929 139.691 6.43931 141.137 6.43931C142.584 6.43931 143.774 6.91929 144.708 7.87924C145.655 8.82639 146.129 10.0424 146.129 11.5271C146.129 13.0118 145.655 14.2342 144.708 15.1941C143.774 16.1413 142.584 16.6148 141.137 16.6148C139.691 16.6148 138.494 16.1413 137.547 15.1941C136.613 14.2342 136.145 13.0118 136.145 11.5271C136.145 10.0424 136.613 8.82639 137.547 7.87924ZM148.137 16.4229V6.6313H150.153L150.345 7.49526H150.441C150.556 7.34167 150.697 7.20088 150.864 7.07288C151.26 6.7785 151.696 6.6313 152.169 6.6313H154.089V8.93519H152.361C151.145 8.93519 150.537 9.54316 150.537 10.7591V16.4229H148.137ZM155.524 12.487V6.6313H157.924V12.2951C157.924 12.9222 158.116 13.4342 158.5 13.831C158.897 14.215 159.409 14.407 160.036 14.407C160.663 14.407 161.169 14.215 161.553 13.831C161.95 13.4342 162.148 12.9222 162.148 12.2951V6.6313H164.548V16.4229H162.34L162.148 15.4629H162.052C161.899 15.6549 161.681 15.8469 161.399 16.0389C160.811 16.4229 160.132 16.6148 159.364 16.6148C158.251 16.6148 157.329 16.2373 156.6 15.4821C155.883 14.7141 155.524 13.7158 155.524 12.487ZM167.036 16.4229V6.6313H169.244L169.436 7.59126H169.532C169.686 7.38647 169.878 7.19448 170.108 7.01529C170.62 6.6313 171.196 6.43931 171.836 6.43931C172.604 6.43931 173.289 6.6633 173.89 7.11128C174.159 7.34167 174.37 7.56566 174.524 7.78325H174.62C174.786 7.56566 175.017 7.34167 175.311 7.11128C175.938 6.6633 176.668 6.43931 177.5 6.43931C178.511 6.43931 179.369 6.8233 180.073 7.59126C180.789 8.34642 181.148 9.27437 181.148 10.3752V16.4229H178.748V10.5671C178.748 9.95274 178.601 9.47916 178.306 9.14638C178.012 8.81359 177.615 8.6472 177.116 8.6472C176.578 8.6472 176.137 8.83279 175.791 9.20398C175.458 9.56236 175.292 10.0168 175.292 10.5671V16.4229H172.892V10.5671C172.892 9.95274 172.745 9.47916 172.451 9.14638C172.156 8.81359 171.759 8.6472 171.26 8.6472C170.723 8.6472 170.281 8.83279 169.935 9.20398C169.603 9.56236 169.436 10.0168 169.436 10.5671V16.4229H167.036ZM65.198 31.6006C65.6971 32.1382 66.3115 32.407 67.0411 32.407C67.7706 32.407 68.385 32.1382 68.8842 31.6006C69.3833 31.063 69.6329 30.3719 69.6329 29.5271C69.6329 28.6823 69.3833 27.9912 68.8842 27.4536C68.385 26.916 67.7706 26.6472 67.0411 26.6472C66.3115 26.6472 65.6971 26.916 65.198 27.4536C64.6988 27.9912 64.4492 28.6823 64.4492 29.5271C64.4492 30.3719 64.6988 31.063 65.198 31.6006ZM63.4508 25.8793C64.398 24.9193 65.5947 24.4394 67.0411 24.4394C68.4874 24.4394 69.6777 24.9193 70.6121 25.8793C71.5592 26.8264 72.0328 28.0424 72.0328 29.5271C72.0328 31.0118 71.5592 32.2342 70.6121 33.1941C69.6777 34.1413 68.4874 34.6148 67.0411 34.6148C65.5947 34.6148 64.398 34.1413 63.4508 33.1941C62.5165 32.2342 62.0493 31.0118 62.0493 29.5271C62.0493 28.0424 62.5165 26.8264 63.4508 25.8793ZM74.0412 34.4229V24.6313H76.2491L76.4411 25.5913H76.5371C76.6907 25.3993 76.9083 25.2073 77.1898 25.0153C77.7786 24.6313 78.457 24.4394 79.2249 24.4394C80.3385 24.4394 81.2536 24.8233 81.9704 25.5913C82.7 26.3465 83.0648 27.3384 83.0648 28.5671V34.4229H80.6649V28.7591C80.6649 28.132 80.4665 27.6264 80.0697 27.2424C79.6857 26.8456 79.1801 26.6472 78.553 26.6472C77.9258 26.6472 77.4138 26.8456 77.0171 27.2424C76.6331 27.6264 76.4411 28.132 76.4411 28.7591V34.4229H74.0412ZM90.4511 34.4229V20.9835H99.3787V23.2874H92.947V26.5512H98.8987V28.8551H92.947V34.4229H90.4511ZM103.39 31.6006C103.889 32.1382 104.503 32.407 105.233 32.407C105.962 32.407 106.577 32.1382 107.076 31.6006C107.575 31.063 107.825 30.3719 107.825 29.5271C107.825 28.6823 107.575 27.9912 107.076 27.4536C106.577 26.916 105.962 26.6472 105.233 26.6472C104.503 26.6472 103.889 26.916 103.39 27.4536C102.89 27.9912 102.641 28.6823 102.641 29.5271C102.641 30.3719 102.89 31.063 103.39 31.6006ZM101.643 25.8793C102.59 24.9193 103.786 24.4394 105.233 24.4394C106.679 24.4394 107.869 24.9193 108.804 25.8793C109.751 26.8264 110.225 28.0424 110.225 29.5271C110.225 31.0118 109.751 32.2342 108.804 33.1941C107.869 34.1413 106.679 34.6148 105.233 34.6148C103.786 34.6148 102.59 34.1413 101.643 33.1941C100.708 32.2342 100.241 31.0118 100.241 29.5271C100.241 28.0424 100.708 26.8264 101.643 25.8793ZM114.902 31.6006C115.401 32.1382 116.015 32.407 116.745 32.407C117.474 32.407 118.089 32.1382 118.588 31.6006C119.087 31.063 119.337 30.3719 119.337 29.5271C119.337 28.6823 119.087 27.9912 118.588 27.4536C118.089 26.916 117.474 26.6472 116.745 26.6472C116.015 26.6472 115.401 26.916 114.902 27.4536C114.402 27.9912 114.153 28.6823 114.153 29.5271C114.153 30.3719 114.402 31.063 114.902 31.6006ZM113.154 25.8793C114.102 24.9193 115.298 24.4394 116.745 24.4394C118.191 24.4394 119.381 24.9193 120.316 25.8793C121.263 26.8264 121.736 28.0424 121.736 29.5271C121.736 31.0118 121.263 32.2342 120.316 33.1941C119.381 34.1413 118.191 34.6148 116.745 34.6148C115.298 34.6148 114.102 34.1413 113.154 33.1941C112.22 32.2342 111.753 31.0118 111.753 29.5271C111.753 28.0424 112.22 26.8264 113.154 25.8793ZM126.356 31.6582C126.817 32.1574 127.418 32.407 128.161 32.407C128.903 32.407 129.505 32.1574 129.965 31.6582C130.426 31.1462 130.656 30.4359 130.656 29.5271C130.656 28.6183 130.426 27.9144 129.965 27.4152C129.505 26.9032 128.903 26.6472 128.161 26.6472C127.418 26.6472 126.817 26.9032 126.356 27.4152C125.895 27.9144 125.665 28.6183 125.665 29.5271C125.665 30.4359 125.895 31.1462 126.356 31.6582ZM130.944 34.4229L130.752 33.3669H130.656C130.465 33.6101 130.234 33.8213 129.965 34.0005C129.351 34.4101 128.621 34.6148 127.777 34.6148C126.497 34.6148 125.422 34.1477 124.551 33.2133C123.694 32.2662 123.265 31.0374 123.265 29.5271C123.265 28.0168 123.694 26.7944 124.551 25.8601C125.422 24.9129 126.497 24.4394 127.777 24.4394C128.545 24.4394 129.249 24.6505 129.889 25.0729C130.157 25.2521 130.381 25.4569 130.561 25.6873H130.656V20.9835H133.056V34.4229H130.944ZM139.874 30.1991H142.37C142.37 30.8006 142.639 31.3062 143.177 31.7158C143.727 32.1126 144.45 32.311 145.346 32.311C146.255 32.311 146.927 32.1574 147.362 31.8502C147.81 31.5302 148.034 31.1078 148.034 30.583C148.034 29.6871 147.298 29.1111 145.826 28.8551L143.522 28.4712C141.282 28.1 140.162 26.884 140.162 24.8233C140.162 23.6714 140.61 22.7114 141.506 21.9435C142.402 21.1755 143.618 20.7915 145.154 20.7915C146.818 20.7915 148.098 21.2011 148.994 22.0203C149.89 22.8394 150.338 23.9018 150.338 25.2073H147.842C147.842 24.6057 147.605 24.1066 147.132 23.7098C146.658 23.3002 145.999 23.0954 145.154 23.0954C144.322 23.0954 143.695 23.2554 143.273 23.5754C142.863 23.8826 142.658 24.2986 142.658 24.8233C142.658 25.2329 142.793 25.5657 143.061 25.8217C143.33 26.0649 143.804 26.2441 144.482 26.3593L146.594 26.7432C147.963 26.9864 148.962 27.4152 149.589 28.0296C150.216 28.6311 150.53 29.4823 150.53 30.583C150.53 31.7862 150.082 32.7589 149.186 33.5013C148.29 34.2437 147.01 34.6148 145.346 34.6148C143.656 34.6148 142.319 34.2053 141.333 33.3861C140.361 32.5541 139.874 31.4918 139.874 30.1991ZM154.557 28.6631H159.549C159.434 28.0104 159.165 27.4792 158.742 27.0696C158.333 26.66 157.802 26.4553 157.149 26.4553C156.458 26.4553 155.888 26.66 155.44 27.0696C155.005 27.4664 154.711 27.9976 154.557 28.6631ZM159.165 31.543H161.661C161.597 31.7862 161.469 32.0614 161.277 32.3686C161.098 32.6629 160.835 32.9957 160.49 33.3669C160.157 33.7253 159.696 34.0261 159.107 34.2693C158.518 34.4996 157.866 34.6148 157.149 34.6148C155.703 34.6148 154.506 34.1413 153.559 33.1941C152.624 32.2342 152.157 31.0118 152.157 29.5271C152.157 28.0424 152.624 26.8264 153.559 25.8793C154.506 24.9193 155.703 24.4394 157.149 24.4394C158.493 24.4394 159.626 24.9129 160.547 25.8601C161.481 26.7944 161.949 27.9528 161.949 29.3351C161.949 29.4503 161.929 29.6807 161.891 30.0263L161.853 30.2951H154.557C154.659 30.9862 154.947 31.543 155.421 31.9654C155.895 32.3878 156.471 32.5989 157.149 32.5989C157.661 32.5989 158.096 32.4901 158.454 32.2726C158.813 32.0422 159.05 31.799 159.165 31.543ZM170.681 30.775H173.081C172.992 31.2102 172.844 31.6326 172.64 32.0422C172.448 32.4518 172.179 32.8613 171.833 33.2709C171.488 33.6677 171.02 33.9941 170.432 34.2501C169.856 34.4932 169.203 34.6148 168.473 34.6148C167.027 34.6148 165.83 34.1413 164.883 33.1941C163.949 32.2342 163.482 31.0118 163.482 29.5271C163.482 28.0424 163.949 26.8264 164.883 25.8793C165.83 24.9193 167.027 24.4394 168.473 24.4394C169.203 24.4394 169.856 24.5673 170.432 24.8233C171.02 25.0665 171.488 25.3865 171.833 25.7833C172.179 26.1801 172.448 26.5768 172.64 26.9736C172.844 27.3704 172.992 27.7736 173.081 28.1832H170.681C170.297 27.1592 169.561 26.6472 168.473 26.6472C167.744 26.6472 167.129 26.916 166.63 27.4536C166.131 27.9912 165.881 28.6823 165.881 29.5271C165.881 30.3719 166.131 31.063 166.63 31.6006C167.129 32.1382 167.744 32.407 168.473 32.407C169.6 32.407 170.336 31.863 170.681 30.775ZM175.005 30.487V24.6313H177.405V30.2951C177.405 30.9222 177.597 31.4342 177.981 31.831C178.377 32.215 178.889 32.407 179.517 32.407C180.144 32.407 180.649 32.215 181.033 31.831C181.43 31.4342 181.628 30.9222 181.628 30.2951V24.6313H184.028V34.4229H181.82L181.628 33.4629H181.532C181.379 33.6549 181.161 33.8469 180.88 34.0389C180.291 34.4229 179.613 34.6148 178.845 34.6148C177.731 34.6148 176.809 34.2373 176.08 33.4821C175.363 32.7141 175.005 31.7158 175.005 30.487ZM186.517 34.4229V24.6313H188.533L188.725 25.4953H188.821C188.936 25.3417 189.077 25.2009 189.243 25.0729C189.64 24.7785 190.075 24.6313 190.548 24.6313H192.468V26.9352H190.74C189.525 26.9352 188.917 27.5432 188.917 28.7591V34.4229H186.517ZM193.904 34.4229V24.6313H196.304V34.4229H193.904ZM193.808 23.0954V20.7915H196.4V23.0954H193.808ZM199.565 32.119V26.9352H198.029V24.6313H199.565V21.8475H201.965V24.6313H204.173V26.9352H201.965V31.639C201.965 32.087 202.189 32.311 202.637 32.311H204.173V34.4229H202.061C201.255 34.4229 200.634 34.2245 200.199 33.8277C199.776 33.4181 199.565 32.8485 199.565 32.119ZM206.182 38.2627V36.0548H208.102C208.486 36.0548 208.729 35.8948 208.832 35.5748L209.004 35.0948L205.03 24.6313H207.526L210.022 31.255H210.406L212.71 24.6313H215.206L211.078 36.3428C210.835 37.0467 210.508 37.5395 210.099 37.8211C209.702 38.1155 209.068 38.2627 208.198 38.2627H206.182ZM68.673 52.4229L68.481 51.4629H68.385C68.2186 51.6677 67.9946 51.8597 67.713 52.0389C67.0987 52.4229 66.3947 52.6148 65.6011 52.6148C64.526 52.6148 63.662 52.3269 63.0093 51.7509C62.3693 51.1749 62.0493 50.4709 62.0493 49.639C62.0493 48.6406 62.3949 47.8471 63.0861 47.2583C63.7772 46.6695 64.7756 46.3752 66.0811 46.3752H68.289V46.1832C68.289 45.6328 68.129 45.1912 67.809 44.8584C67.5018 44.5256 67.0859 44.3593 66.5611 44.3593C66.0619 44.3593 65.6587 44.4873 65.3515 44.7432C65.0572 44.9992 64.8844 45.2872 64.8332 45.6072H62.4333C62.5485 44.724 62.9581 43.9753 63.662 43.3609C64.366 42.7465 65.3323 42.4394 66.5611 42.4394C67.7898 42.4394 68.7818 42.7977 69.5369 43.5145C70.3049 44.2313 70.6889 45.1208 70.6889 46.1832V52.4229H68.673ZM68.289 48.487V48.1991H66.2731C65.0572 48.1991 64.4492 48.615 64.4492 49.447C64.4492 49.831 64.5836 50.1382 64.8524 50.3686C65.1212 50.5861 65.4987 50.6949 65.9851 50.6949C66.7147 50.6949 67.2778 50.5029 67.6746 50.119C68.0842 49.7222 68.289 49.1782 68.289 48.487ZM73.085 52.4229V42.6313H75.2929L75.4849 43.5913H75.5809C75.7345 43.3993 75.9521 43.2073 76.2336 43.0153C76.8224 42.6313 77.5008 42.4394 78.2687 42.4394C79.3823 42.4394 80.2974 42.8233 81.0142 43.5913C81.7438 44.3465 82.1086 45.3384 82.1086 46.5671V52.4229H79.7087V46.7591C79.7087 46.132 79.5103 45.6264 79.1135 45.2424C78.7295 44.8456 78.2239 44.6472 77.5968 44.6472C76.9696 44.6472 76.4576 44.8456 76.0609 45.2424C75.6769 45.6264 75.4849 46.132 75.4849 46.7591V52.4229H73.085ZM87.1142 49.6582C87.575 50.1574 88.1766 50.407 88.919 50.407C89.6613 50.407 90.2629 50.1574 90.7237 49.6582C91.1844 49.1462 91.4148 48.4359 91.4148 47.5271C91.4148 46.6183 91.1844 45.9144 90.7237 45.4152C90.2629 44.9032 89.6613 44.6472 88.919 44.6472C88.1766 44.6472 87.575 44.9032 87.1142 45.4152C86.6535 45.9144 86.4231 46.6183 86.4231 47.5271C86.4231 48.4359 86.6535 49.1462 87.1142 49.6582ZM91.7028 52.4229L91.5108 51.3669H91.4148C91.2228 51.6101 90.9925 51.8213 90.7237 52.0005C90.1093 52.4101 89.3797 52.6148 88.535 52.6148C87.255 52.6148 86.1799 52.1477 85.3095 51.2133C84.452 50.2662 84.0232 49.0374 84.0232 47.5271C84.0232 46.0168 84.452 44.7944 85.3095 43.8601C86.1799 42.9129 87.255 42.4394 88.535 42.4394C89.3029 42.4394 90.0069 42.6505 90.6469 43.0729C90.9157 43.2521 91.1396 43.4569 91.3188 43.6873H91.4148V38.9835H93.8147V52.4229H91.7028ZM101.976 50.119V44.9352H100.441V42.6313H101.976V39.8475H104.376V42.6313H106.584V44.9352H104.376V49.639C104.376 50.087 104.6 50.311 105.048 50.311H106.584V52.4229H104.472C103.666 52.4229 103.045 52.2245 102.61 51.8277C102.188 51.4181 101.976 50.8485 101.976 50.119ZM108.785 52.4229V38.9835H111.185V43.5913H111.281C111.435 43.3993 111.652 43.2073 111.934 43.0153C112.523 42.6313 113.201 42.4394 113.969 42.4394C115.083 42.4394 115.998 42.8233 116.715 43.5913C117.444 44.3465 117.809 45.3384 117.809 46.5671V52.4229H115.409V46.7591C115.409 46.132 115.211 45.6264 114.814 45.2424C114.43 44.8456 113.924 44.6472 113.297 44.6472C112.67 44.6472 112.158 44.8456 111.761 45.2424C111.377 45.6264 111.185 46.132 111.185 46.7591V52.4229H108.785ZM122.121 46.6631H127.113C126.998 46.0104 126.729 45.4792 126.307 45.0696C125.897 44.66 125.366 44.4553 124.713 44.4553C124.022 44.4553 123.452 44.66 123.004 45.0696C122.569 45.4664 122.275 45.9976 122.121 46.6631ZM126.729 49.543H129.225C129.161 49.7862 129.033 50.0614 128.841 50.3686C128.662 50.6629 128.399 50.9957 128.054 51.3669C127.721 51.7253 127.26 52.0261 126.671 52.2693C126.083 52.4996 125.43 52.6148 124.713 52.6148C123.267 52.6148 122.07 52.1413 121.123 51.1941C120.188 50.2342 119.721 49.0118 119.721 47.5271C119.721 46.0424 120.188 44.8264 121.123 43.8793C122.07 42.9193 123.267 42.4394 124.713 42.4394C126.057 42.4394 127.19 42.9129 128.111 43.8601C129.046 44.7944 129.513 45.9528 129.513 47.3351C129.513 47.4503 129.494 47.6807 129.455 48.0263L129.417 48.2951H122.121C122.224 48.9862 122.512 49.543 122.985 49.9654C123.459 50.3878 124.035 50.5989 124.713 50.5989C125.225 50.5989 125.66 50.4901 126.019 50.2726C126.377 50.0422 126.614 49.799 126.729 49.543ZM135.749 48.1991H138.245C138.245 48.8006 138.514 49.3062 139.052 49.7158C139.602 50.1126 140.325 50.311 141.221 50.311C142.13 50.311 142.802 50.1574 143.237 49.8502C143.685 49.5302 143.909 49.1078 143.909 48.583C143.909 47.6871 143.173 47.1111 141.701 46.8551L139.397 46.4712C137.157 46.1 136.037 44.884 136.037 42.8233C136.037 41.6714 136.485 40.7114 137.381 39.9435C138.277 39.1755 139.493 38.7915 141.029 38.7915C142.693 38.7915 143.973 39.2011 144.869 40.0203C145.765 40.8394 146.213 41.9018 146.213 43.2073H143.717C143.717 42.6057 143.48 42.1066 143.007 41.7098C142.533 41.3002 141.874 41.0954 141.029 41.0954C140.197 41.0954 139.57 41.2554 139.148 41.5754C138.738 41.8826 138.533 42.2986 138.533 42.8233C138.533 43.2329 138.668 43.5657 138.937 43.8217C139.205 44.0649 139.679 44.2441 140.357 44.3593L142.469 44.7432C143.839 44.9864 144.837 45.4152 145.464 46.0296C146.091 46.6311 146.405 47.4823 146.405 48.583C146.405 49.7862 145.957 50.7589 145.061 51.5013C144.165 52.2437 142.885 52.6148 141.221 52.6148C139.532 52.6148 138.194 52.2053 137.209 51.3861C136.236 50.5541 135.749 49.4918 135.749 48.1991ZM148.704 52.4229V38.9835H153.6C155.43 38.9835 156.973 39.6299 158.227 40.9226C159.494 42.2026 160.128 43.7961 160.128 45.7032C160.128 47.6103 159.494 49.2102 158.227 50.5029C156.973 51.7829 155.43 52.4229 153.6 52.4229H148.704ZM151.2 50.023H153.6C154.765 50.023 155.725 49.6262 156.48 48.8326C157.248 48.0391 157.632 46.9959 157.632 45.7032C157.632 44.4105 157.248 43.3673 156.48 42.5737C155.725 41.7802 154.765 41.3834 153.6 41.3834H151.2V50.023ZM172.604 52.4229L172.412 50.8869H172.316C172.073 51.2069 171.753 51.4949 171.356 51.7509C170.486 52.3269 169.494 52.6148 168.38 52.6148C166.537 52.6148 164.989 51.9621 163.734 50.6565C162.48 49.351 161.853 47.6999 161.853 45.7032C161.853 43.7065 162.48 42.0554 163.734 40.7498C164.989 39.4443 166.537 38.7915 168.38 38.7915C169.251 38.7915 170.051 38.9387 170.78 39.2331C171.51 39.5275 172.118 39.9179 172.604 40.4043C173.091 40.8906 173.481 41.4026 173.775 41.9402C174.082 42.4778 174.3 43.0281 174.428 43.5913H171.836C171.094 41.9914 169.942 41.1914 168.38 41.1914C167.203 41.1914 166.236 41.6074 165.481 42.4394C164.726 43.2585 164.349 44.3465 164.349 45.7032C164.349 47.0599 164.726 48.1543 165.481 48.9862C166.236 49.8054 167.203 50.215 168.38 50.215C168.969 50.215 169.507 50.1062 169.993 49.8886C170.479 49.671 170.863 49.4086 171.145 49.1014C171.427 48.7814 171.644 48.4679 171.798 48.1607C171.951 47.8407 172.028 47.5655 172.028 47.3351V47.2391H168.668V45.3192H174.524V52.4229H172.604ZM176.245 49.447H178.549C178.549 49.7414 178.715 50.023 179.048 50.2918C179.394 50.5605 179.867 50.6949 180.469 50.6949C181.685 50.6949 182.293 50.343 182.293 49.639C182.293 49.3318 182.197 49.095 182.005 48.9286C181.813 48.7494 181.461 48.6214 180.949 48.5446L179.413 48.2951C177.301 47.9495 176.245 47.0215 176.245 45.5112C176.245 44.6536 176.61 43.9305 177.34 43.3417C178.069 42.7401 179.08 42.4394 180.373 42.4394C181.666 42.4394 182.677 42.7913 183.406 43.4953C184.136 44.1993 184.501 44.9032 184.501 45.6072H182.197C182.197 45.2872 182.031 44.9992 181.698 44.7432C181.365 44.4873 180.923 44.3593 180.373 44.3593C179.823 44.3593 179.394 44.4745 179.087 44.7048C178.792 44.9224 178.645 45.1912 178.645 45.5112C178.645 45.9848 179.093 46.2856 179.989 46.4136L181.621 46.6631C183.669 46.9703 184.693 47.9623 184.693 49.639C184.693 50.4965 184.328 51.2069 183.598 51.7701C182.882 52.3333 181.839 52.6148 180.469 52.6148C179.778 52.6148 179.163 52.5252 178.626 52.3461C178.101 52.1669 177.692 51.9557 177.397 51.7125C177.116 51.4565 176.879 51.1685 176.687 50.8485C176.508 50.5285 176.386 50.2598 176.322 50.0422C176.271 49.8118 176.245 49.6134 176.245 49.447Z" fill="white"/>
<path d="M224.898 65.792H0.0683594" stroke="white" stroke-width="0.892182"/>
</svg>
