<?xml version="1.0" encoding="UTF-8"?>
<!DOCTYPE svg PUBLIC "-//W3C//DTD SVG 1.1//EN" "http://www.w3.org/Graphics/SVG/1.1/DTD/svg11.dtd">
<!-- Creator: CorelDRAW -->
<svg xmlns="http://www.w3.org/2000/svg" xml:space="preserve" width="74.9999mm" height="77.762mm" version="1.1" style="shape-rendering:geometricPrecision; text-rendering:geometricPrecision; image-rendering:optimizeQuality; fill-rule:evenodd; clip-rule:evenodd"
viewBox="0 0 7485.75 7761.43"
 xmlns:xlink="http://www.w3.org/1999/xlink"
 xmlns:xodm="http://www.corel.com/coreldraw/odm/2003">
 <defs>
  <style type="text/css">
   <![CDATA[
    .fil1 {fill:#FEFEFE}
    .fil0 {fill:#FEFEFE;fill-rule:nonzero}
   ]]>
  </style>
 </defs>
 <g id="Слой_x0020_1">
  <metadata id="CorelCorpID_0Corel-Layer"/>
  <path class="fil0" d="M3150.73 5979.54c158.71,75.36 330.89,160.79 504.88,242.75 -83.55,25.99 -166.73,50.5 -248.09,73.03 22.52,38.26 43.45,77.63 63.06,117.84 109.23,-39.58 218.35,-81.51 326.74,-125.26 76.8,34.86 153.31,68.32 228.56,99.2 19.44,-38.33 40.16,-75.84 62.39,-112.27 -49.32,-14.32 -99.22,-29.39 -149.54,-45.13 88.54,-37.18 176.36,-75.41 263.12,-114.35 39.61,-47.72 81.99,-91.76 127.29,-132.57 -167.88,68.07 -354.17,135.89 -542.42,197.68 -245.15,-82 -495.54,-177.64 -730.8,-278.06 32.92,24.38 64.51,50.04 94.81,77.14zm2612.34 -885.72c68.24,-94.54 128.75,-196.59 181.45,-306.4 171.76,-357.56 292.96,-753.12 310.81,-1150.35 24.66,-550.42 -160.08,-1090.25 -446.53,-1554.01 -83.95,-135.78 -177.76,-271.2 -281.71,-396.92 8.96,-35.18 10.15,-69 4.15,-100.99 -6.89,-37.77 -21.91,-74.25 -44.29,-106.91 -43.76,-66.63 -114.31,-120.33 -186.63,-160.36 -72.93,-39.84 -148.47,-64.79 -204.95,-78.41 -28.29,-6.97 -51.75,-10.81 -67.98,-13.27 -8.13,-0.79 -14.64,-1.62 -18.8,-1.9 -3.83,-0.16 -6.06,-0.16 -6.06,-0.16 0,0 0.88,1.76 2.44,5.62 2.01,3.85 4.68,9.47 8.28,16.73 7.41,14.45 18.16,35.1 31.55,60.15 26.8,49.68 63.46,115.25 106.85,178.87 21.38,32.42 45.75,63.01 70.77,92.09 12.75,14.44 26,27.99 40.13,40.5 13.63,12.89 28,24.81 42.96,35.24 30.58,20.73 62.48,37.61 98.39,46.8 27.24,6.73 55.88,9.7 86.7,7.86 199.76,236.25 363.32,510.64 487.68,786.06 158.61,350.71 243.23,733.27 234.12,1118.44 -9.99,420.01 -150.06,846.18 -338.37,1219.26 -39.11,77.42 -82.95,151.04 -131.42,220.72 8.53,12.72 15.32,26.63 20.46,41.34zm-4007.94 -59.6c-100.08,-142.15 -178.28,-299.76 -243.92,-460.19 -159.93,-390.63 -261.14,-795.11 -236.34,-1219.64 28.94,-494.95 223.37,-968.57 494.36,-1379.06 69.45,-105.21 144.75,-210.06 226.77,-308.97 29.63,1.35 57.32,-1.33 83.68,-7.91 35.91,-9.25 67.81,-26.15 98.32,-46.72 15.03,-10.51 29.32,-22.52 43.01,-35.25 13.99,-12.57 27.33,-26.19 40.06,-40.57 25.16,-29.22 49.45,-59.75 70.92,-92.09 43.18,-63.66 79.97,-129.42 106.71,-179.04 13.4,-24.87 24.21,-45.59 31.46,-60.1 3.71,-7.28 6.38,-12.82 8.37,-16.74 1.55,-3.57 2.29,-5.47 2.29,-5.47l-5.99 0c-4.23,0.36 -10.45,1.17 -18.59,2.14 -16.37,2.23 -40.04,6.29 -68.1,13.17 -56.5,13.62 -132.1,38.59 -204.8,78.27 -72.34,40.19 -142.96,93.63 -186.65,160.5 -22.51,32.66 -37.61,69.01 -44.35,106.91 -6.01,31.4 -4.81,64.57 3.77,98.92 -191.09,227.24 -349.32,488.88 -471.92,751.06 -151.55,323.97 -242.7,674.42 -256.55,1032.33 -15.76,410.92 95.96,804.96 250.48,1181.96 67.2,164.22 150.07,320.47 252.29,462.69 6.67,-13.11 14.86,-25.29 24.72,-36.19zm436.69 -3000.81c28.5,-20.89 55.82,-41.97 79.23,-63.01 23.84,-20.79 45.75,-40.21 63.21,-57.45 17.26,-17.71 32.22,-31.85 42.15,-42.12 9.9,-10.3 15.17,-16.37 15.17,-16.37 0,0 -37.02,-8.22 -94.7,-13.98 -28.65,-2.75 -61.89,-4.08 -98.55,-3.92 -36.56,0.06 -76.19,2.59 -115.26,8.87 -79.67,11.63 -159.72,38.72 -220.88,84.12 -29.61,23.32 -54.72,50.78 -72.17,82.62 -16.52,32.34 -24.81,69.51 -22.88,110.17 82.39,35.9 159.99,32.8 230.92,12.22 36.12,-10.14 70.19,-25.03 101.97,-42.8 32.57,-17.34 63.74,-37.24 91.8,-58.35zm-621.99 44.87c38.05,-19.18 66.49,-44.72 88.31,-74.64 22.97,-28.93 38.67,-63.23 49.33,-100.84 23.03,-73.97 26.74,-162.06 25.92,-247.29 -0.44,-21.4 -1.5,-42.96 -2.66,-63.84 -0.76,-20.71 -2.02,-40.86 -3.42,-60.48 -2.96,-39.39 -6.8,-76.03 -10.43,-107.44 -6.45,-61.89 -13.32,-103.34 -13.32,-103.34 0,0 -7.04,8.14 -19.48,21.98 -12.28,13.99 -29.61,34.15 -48.48,60.35 -18.97,26.07 -41.32,56.43 -61.97,91.97 -20.36,35.23 -41.92,73.52 -59.4,114.7 -17.03,41.6 -32.58,84.23 -42.12,127.76 -9.17,43.92 -13.77,87.37 -11.7,128.84 5.25,83.66 38.2,158.74 109.43,212.28zm460.88 223.78c7.65,-11.91 11.63,-18.79 11.63,-18.79 0,0 -9.55,0 -26.36,0.67 -17.11,0.59 -40.27,2.37 -68.4,5.92 -28.29,3.54 -61.3,8.95 -97.07,17.02 -17.63,4.16 -36.66,8.66 -54.95,14.29 -18.07,5.86 -36.5,12.22 -55.01,19.76 -36.79,14.83 -74.93,32.52 -108.1,54.73 -32.73,22.35 -62.86,48.26 -87.67,77.38 -12.66,14.44 -22.35,30.33 -30.72,46.62 -8.29,16.53 -14.79,33.63 -19.3,51.24 -4.54,17.69 -6.89,35.91 -6.89,54.57 0.94,19.09 4.66,38.42 10.87,58.19 43.99,7.27 84.62,5.33 121.94,-3.01 37.02,-8.38 73.22,-22.23 105.15,-40.74 16.05,-9.01 31.39,-19.24 45.83,-30.35 7.25,-5.18 14.27,-11.1 21.18,-17.04 7.1,-5.62 14.35,-11.46 21.32,-17.39 27.9,-24 52.55,-50.19 74.64,-76.84 23.61,-26.07 44.84,-52.43 62.62,-77.67 4.51,-6.16 8.81,-12.6 13.04,-18.65 4.45,-6.02 8.66,-11.78 12.95,-17.56 8.23,-11.54 15.85,-22.38 22.59,-32.5 13.41,-20.21 23.55,-37.61 30.72,-49.84zm-702.11 321.1c11.84,-15.48 21.32,-31.85 28.74,-48.87 7.41,-17.1 12.89,-34.96 16.58,-53.62 3.63,-18.42 5.18,-37.77 7.03,-56.92 2.96,-38.87 0.09,-80.04 -6.36,-122.31 -6.38,-42.16 -13.76,-83.98 -24.36,-126.25 -21.7,-84.33 -45.01,-163.7 -65.9,-224.18 -20.71,-60.48 -35.3,-99.22 -35.3,-99.22 0,0 -5.79,9.04 -14.87,25.84 -8.75,16.88 -20.74,41.25 -34.21,71.14 -28.29,59.17 -56.64,143.85 -74.57,232.64 -7.24,45.09 -11.92,91.52 -12.07,136.37 -0.5,22.22 1.85,45.01 5.18,66.72 3.19,21.76 7.71,42.94 13.77,63.09 12.45,40.47 29.17,76.54 55.97,107.57 26.36,30.86 59.61,55.82 100.85,73.16 15.78,-14.3 28.73,-29.26 39.53,-45.16zm259.96 572.99c26.65,-26.06 49.15,-55.44 68.18,-85.88 20.95,-30.52 39.32,-61.74 54.05,-93.23 7.79,-15.6 13.7,-31.22 20.88,-46.34 7.27,-15.11 13.91,-29.9 19.77,-44.34 11.92,-28.5 20.36,-55.23 28.3,-78.04 17.54,-45.31 25.24,-75.88 25.24,-75.88 0,0 -36.43,8.79 -90.41,29.08 -55.36,19.91 -121.86,53.54 -187.9,100.46 -16.23,11.77 -33.25,24.28 -47.92,38 -14.58,13.47 -28.71,27.83 -41.89,42.78 -26.36,30.21 -50.34,63.01 -66.27,97.75 -14.74,34.94 -23.24,71.58 -23.09,108.36 0.21,18.23 1.61,36.68 7.47,54.87 5.86,18.3 14.35,36.22 25.46,53.78 89.3,-8.45 153.42,-49.39 208.13,-101.38zm-479.15 -338.64c-19.83,-38.13 -41.3,-75.45 -62.04,-109.87 -21.47,-34.88 -40.73,-66.47 -57.02,-93.07 -33.39,-53.68 -57.67,-88.49 -57.67,-88.49 0,0 -12.6,42.15 -25.84,107.6 -5.03,33.17 -9.69,72.1 -12.66,114.24 -1.7,21.18 -2.89,42.86 -3.48,65.24 0.15,22.51 1.56,45.38 3.48,68.4 3.93,46.12 9.76,92.56 21.54,136.47 13.17,43.96 30.13,85.59 51.9,121.57 42.14,72.71 110.1,123.06 198.14,135.56 11.46,-17.99 20.21,-35.99 26.57,-54.2 6.21,-18.3 12.3,-36.65 14.88,-55.1 6.07,-37.16 3.25,-75.29 -5.54,-114.02 -7.71,-38.48 -19.48,-77.72 -36.21,-117.12 -16.51,-39.41 -37.16,-79.07 -56.05,-117.21zm308.03 1071.9c84.79,-29.23 141.35,-85.5 178.58,-150 9.34,-16.29 17.34,-32.86 24.43,-50.05 8.31,-17.32 15.34,-34.7 21.7,-52.39 12.37,-35.25 21.18,-71.23 27.24,-106.18 6.6,-34.88 13.85,-68.79 17.26,-100.03 1.93,-15.93 3.42,-30.88 4.36,-45.17 0.91,-14.14 1.41,-27.47 3.19,-39.68 5.27,-48.71 4.66,-80.78 4.66,-80.78 0,0 -32.87,18.07 -79.82,51.84 -11.61,8.49 -24.28,17.98 -37.46,28.27 -13.33,10.59 -26.87,21.99 -39.67,34.29 -26.21,24.72 -53.16,53.17 -78.72,84.54 -12.66,15.78 -25.01,32.14 -36.79,49.23 -5.77,8.52 -11.48,17.34 -16.81,26.01 -4.81,8.87 -9.47,17.75 -13.92,26.86 -17.61,36.07 -31.16,74.13 -38.57,112.26 -3.4,18.88 -6.07,37.98 -5.55,56.63 1.04,18.65 3.93,37.18 8.8,55.01 10.07,36 28.37,69.89 57.08,99.36zm-514.34 -142.42c10.81,19.92 22.21,38.95 35.32,56.56 13.68,17.39 28.21,33.77 43.38,48.41 61.3,59.4 135.06,93.46 223.81,84.94 15.26,-40.64 19.7,-79.28 15.4,-116.92 -2.14,-18.79 -6.29,-37.31 -12.45,-55.6 -5.54,-18.22 -11.69,-36.43 -20.12,-54.26 -16.37,-35.98 -39.02,-71 -65.46,-105.28 -13.54,-16.9 -27.02,-33.92 -40.34,-50.64 -13.62,-16.74 -27.85,-33.03 -42.29,-48.95 -58.11,-64.11 -122.38,-122.98 -167.1,-166.73 -45.9,-43.53 -78.41,-71.21 -78.41,-71.21 0,0 -1.26,44.35 2.66,111.13 2.31,33.38 9.11,72.17 16.67,113.64 4.07,20.73 8.58,42.13 13.7,63.74 5.25,21.7 10.66,43.84 18.95,65.38 15.76,43.32 34.26,86.11 56.26,125.8zm612.37 672.48c16.66,33.63 41.18,63.52 75.31,87.36 77.67,-44.57 122.1,-111.2 145.63,-183.68 6,-18.16 10.51,-36.66 13.99,-55.47 1.85,-9.3 3.19,-18.65 4.3,-28.12 1.47,-9.39 2.81,-19.03 4.36,-28.68 4.89,-38.25 6.16,-76.53 4.89,-113.49 -4.82,-73.22 -9.33,-142.38 -18.65,-192.49 -4.3,-25.24 -8.96,-45.83 -12.01,-60.19 -2.37,-14.3 -4.07,-22.37 -4.07,-22.37 0,0 -7.11,6.61 -19.01,18.67 -12.38,12.21 -27.85,29.6 -46.06,51.95 -36.35,44.59 -81.72,108.26 -118.68,182.21 -34.8,73.46 -57.53,156.15 -56.94,234.64 -0.29,19.75 3.04,38.59 7.64,56.85 4.51,18.51 10.96,36.07 19.31,52.79zm-162.85 165.91c11.12,-1.82 22.34,-4.35 33.7,-7.68 7.18,-42.86 3.92,-81.94 -7.25,-118.3 -5.71,-18.01 -13.4,-35.39 -22.96,-52.12 -9.34,-16.89 -21.09,-32.82 -32.22,-49.01 -23.22,-32.33 -52.86,-62.5 -85.76,-90.8 19.21,24.3 35.06,51.65 48.08,81.41 20.91,47.82 38.85,96.97 49.04,148.27 5.84,29.4 11.63,58.81 17.37,88.23zm-242.03 -413.1c-61.89,-42.47 -124.68,-78.9 -174.06,-106.4 -57.3,-30.56 -93.37,-49.85 -93.37,-49.85 0,0 1.72,10.75 6.23,29.26 5.1,18.51 12.89,44.59 23.47,75.75 14.52,42.52 32.9,95.01 58.85,148.28 7.1,-13.18 14.99,-26.17 23.77,-38.92l22.61 -32.81 128.8 -27.17 3.7 1.85zm631.65 734.31c7.71,24.78 18.79,48.09 33.19,68.85 10.59,-8.15 22.51,-15.11 35.83,-20.66 48.39,-20.15 99.26,-14.36 145.58,4.74 13.7,-38.7 19.92,-77.82 22.39,-115.8 3.92,-71.6 -5.24,-139.56 -13.04,-196.5 -2.58,-24.14 -12.28,-65.01 -21.32,-96.7 -9.02,-32.8 -19.09,-62.42 -28.44,-87.14 -9.02,-24.79 -17.84,-45 -23.67,-59 -5.27,-14.3 -8.6,-22.21 -8.6,-22.21 0,0 -5.77,7.9 -15.09,22.34 -9.63,14.8 -21.47,35.38 -35.03,61.22 -26.94,51.4 -59.37,123.43 -81.8,203.33 -5.77,20.06 -10.75,40.33 -14.96,61.21 -3.78,19.19 -6.66,38.81 -8.35,59.03 -1.26,19.82 -0.38,39.59 1.47,59.66 1.93,19.78 6.45,38.81 11.86,57.62zm-230.87 306.89c70.71,15.24 138.75,4.82 198.76,-35.67 -1.46,-15.55 -2.2,-31.24 -2.18,-47.04l0.04 -4.17c-24.41,-63.16 -66.6,-110.22 -120.05,-152.11 -15.93,-12.9 -33.78,-24.66 -51.55,-36.87 -17.76,-12.23 -36.85,-23.76 -56.32,-35.3 -19.1,-12.07 -38.96,-23.55 -59.46,-35.12 -4.8,-2.65 -9.59,-5.24 -14.39,-7.77 25.58,120.72 57.16,239.74 105.15,354.06zm898.06 227.03c22.66,-72.4 15.68,-141.55 -4.84,-205.69 -23.41,-72.21 -64.71,-138.46 -106.48,-196.22 -41.91,-57.68 -84.7,-106.77 -116.02,-142.15 -15.4,-17.85 -28.59,-31.99 -37.84,-41.62 -8.73,-9.84 -14.2,-15.09 -14.2,-15.09 0,0 -2.9,8.95 -7.04,24.72 -4.3,16.06 -8.96,38.8 -13.55,66.84 -6.44,39.53 -10.33,89.23 -7.96,143.29 37.24,47.4 75.43,93.99 110.56,143.01 59.01,82.32 125.13,156.27 197.37,222.91zm-617.58 -14.84c-56.61,-1.24 -112.32,-0.83 -161.7,-0.34 34.97,46.76 74.99,89.96 121.15,128.86 58.9,49.64 122.59,97.68 192.67,131.42 -10.73,-18.38 -22.29,-36.11 -33.15,-52.84 -43.42,-66.86 -82.51,-136.27 -118.97,-207.11zm859.76 83.56c33.39,75.07 81.89,148.29 145.56,196.07 3.63,2.69 7.31,5.3 11.03,7.85l13.13 6.63c16.88,8.44 33.49,17.07 49.85,25.9 10.18,3.58 20.62,6.45 31.28,8.47 37.84,7.56 78.7,5.48 118.18,-11.1 2.15,-89.89 -22.52,-160.8 -60.86,-223.07 -38.51,-61.74 -93.28,-115.15 -149.64,-161.27 -56.56,-45.83 -114.23,-84.09 -158,-111.73 -43.53,-27.17 -73.3,-43.16 -73.3,-43.16 0,0 0.37,9.54 1.93,26.58 1.64,16.58 4.45,40.64 9.19,69.6 9.61,57.3 28.13,134.45 61.66,209.23zm2969.67 -3578c-61.09,-45.36 -141.12,-72.49 -220.79,-84.09 -39.1,-6.45 -78.7,-8.66 -115.43,-8.95 -36.5,-0.1 -69.75,1.4 -98.33,3.98 -57.75,5.92 -94.78,13.84 -94.78,13.84 0,0 5.19,6.08 15.26,16.53 9.78,10.43 24.72,24.43 42.06,41.96 17.4,17.56 39.45,36.81 63.15,57.59 23.41,21.04 50.64,42.3 79.29,63.04 28,21.09 59.17,41.01 91.83,58.34 31.75,17.75 65.9,32.72 101.88,42.79 70.94,20.71 148.59,23.84 231.01,-12.24 1.91,-40.63 -6.39,-77.64 -22.88,-110.3 -17.41,-31.55 -42.59,-59.32 -72.26,-82.49zm292.46 148.74c71.14,-53.51 104.18,-128.43 109.42,-212.26 1.94,-41.46 -2.58,-85.06 -11.69,-128.81 -9.63,-43.53 -25.04,-86.03 -42.14,-127.8 -17.47,-41.25 -39.09,-79.3 -59.53,-114.85 -20.5,-35.37 -43.02,-65.58 -61.89,-91.65 -18.8,-26.36 -36.14,-46.48 -48.5,-60.64 -12.37,-13.83 -19.33,-21.69 -19.33,-21.69 0,0 -6.95,41.31 -13.47,103.21 -3.69,31.4 -7.47,68.05 -10.28,107.43 -1.56,19.48 -2.75,39.75 -3.63,60.48 -1.03,20.9 -2.14,42.42 -2.52,63.84 -0.82,85.21 2.89,173.3 25.77,247.3 10.66,37.51 26.51,71.58 49.45,100.81 21.7,30.07 50.2,55.33 88.34,74.63zm55.76 441.57c-8.44,-16.43 -18.06,-32.35 -30.88,-46.64 -24.78,-29.24 -54.86,-55 -87.57,-77.52 -33.17,-22.21 -71.23,-39.97 -108.02,-54.79 -18.57,-7.4 -37.02,-13.99 -55.16,-19.62 -18.16,-5.86 -37.17,-10.37 -54.8,-14.35 -35.91,-8.23 -68.87,-13.48 -96.99,-17.05 -28.3,-3.54 -51.38,-5.32 -68.42,-5.91 -16.88,-0.83 -26.51,-0.67 -26.51,-0.67 0,0 4.07,6.89 11.63,18.95 7.33,12.07 17.25,29.45 30.72,49.68 6.74,10.29 14.29,20.96 22.67,32.66 4.22,5.48 8.5,11.47 13.04,17.39 4.07,6.08 8.43,12.22 12.87,18.65 17.87,25.25 38.96,51.77 62.71,77.82 21.85,26.52 46.8,52.73 74.57,76.57 7.04,6.12 14.35,11.78 21.39,17.69 6.89,5.78 13.85,11.41 21.18,17.03 14.37,10.96 29.69,21.12 45.68,30.19 31.9,18.38 68.19,32.52 105.28,40.89 37.25,8.05 77.96,10.28 121.96,2.72 6.15,-19.46 9.84,-38.93 10.81,-58.04 0,-18.49 -2.32,-36.96 -6.89,-54.49 -4.45,-17.71 -11.04,-34.8 -19.26,-51.17zm265.03 -628.04c0,0 -14.56,38.73 -35.38,99.22 -20.74,60.64 -44.06,139.79 -65.9,224.19 -10.49,42.12 -17.84,84.25 -24.19,126.25 -6.6,42.27 -9.49,83.42 -6.45,122.23 1.94,19.09 3.33,38.58 7.12,56.94 3.69,18.64 9.02,36.5 16.5,53.66 7.35,16.9 16.81,33.33 28.67,49.03 10.96,15.62 23.84,30.88 39.52,45.07 41.23,-17.39 74.48,-42.19 100.93,-73.06 26.86,-31.18 43.53,-67.22 55.97,-107.74 6.06,-20.21 10.57,-41.31 13.82,-63.16 3.27,-21.76 5.57,-44.4 5.12,-66.62 -0.14,-44.88 -4.8,-91.31 -12.15,-136.39 -17.84,-88.92 -46.34,-173.62 -74.4,-232.63 -13.47,-29.75 -25.63,-54.35 -34.21,-71.29 -9.25,-16.5 -14.96,-25.7 -14.96,-25.7zm-121.56 1188.69c-15.99,-34.88 -39.77,-67.54 -66.25,-97.65 -13.18,-14.97 -27.33,-29.4 -42.06,-42.94 -14.59,-13.63 -31.55,-26.01 -47.77,-37.78 -66.02,-47.08 -132.6,-80.84 -187.9,-100.62 -53.9,-20.27 -90.33,-29.02 -90.33,-29.02 0,0 7.47,30.58 25.16,75.75 7.71,22.74 16.22,49.77 28.38,78.34 5.77,14.28 12.36,29.09 19.6,44.13 7.2,15.1 13.12,30.8 20.96,46.42 14.74,31.16 33.1,62.85 54.05,93.13 19.03,30.65 41.53,59.82 68.04,86.04 54.95,51.9 119.06,92.93 208.28,101.28 11.16,-17.53 19.62,-35.51 25.45,-53.66 5.86,-18.37 7.27,-36.58 7.5,-55.18 0.06,-36.65 -8.52,-73.23 -23.11,-108.23zm169.05 11.4c-9.04,38.72 -11.77,76.54 -5.85,113.85 2.74,18.65 8.73,36.81 15.02,55.18 6.3,18.29 15.03,36.36 26.66,54.19 87.95,-12.44 156.08,-62.94 198.14,-135.4 21.62,-36.2 38.64,-77.83 51.82,-121.73 11.86,-44.06 17.63,-90.25 21.7,-136.23 1.7,-23.02 3.25,-46.27 3.39,-68.63 -0.67,-22.23 -1.93,-44 -3.39,-65.02 -3.27,-42.13 -7.79,-81.22 -12.75,-114.46 -13.32,-65.44 -25.83,-107.74 -25.83,-107.74 0,0 -24.43,34.88 -57.82,88.86 -16.23,26.43 -35.61,57.88 -57.02,92.7 -20.74,34.71 -42.21,71.96 -61.89,110.22 -18.89,37.85 -39.6,77.59 -56.12,116.85 -16.73,39.54 -28.51,78.63 -36.06,117.36zm-158.96 738.22c5.04,-17.85 7.91,-36.21 8.88,-54.87 0.52,-18.79 -2.08,-37.91 -5.63,-57.09 -7.33,-38.04 -20.8,-75.74 -38.43,-112.03 -4.45,-9.01 -9.1,-17.9 -13.91,-26.71 -5.27,-8.9 -11.1,-17.41 -16.9,-25.93 -11.61,-17.31 -24.04,-33.62 -36.64,-49.52 -25.69,-31.31 -52.72,-59.68 -78.85,-84.42 -12.81,-12.37 -26.28,-23.75 -39.68,-34.21 -13.18,-10.34 -25.84,-19.82 -37.53,-28.35 -46.87,-33.75 -79.9,-51.9 -79.9,-51.9 0,0 -0.36,31.99 4.89,80.87 1.7,12.22 2.29,25.54 3.1,39.74 1.11,14.14 2.52,29.1 4.45,44.86 3.25,31.32 10.66,65.24 17.17,100.18 6,35.02 14.81,70.87 27.32,106.24 6.3,17.73 13.41,35.12 21.77,52.44 7.03,17.02 15.03,33.82 24.36,50.05 37.17,64.48 93.65,120.76 178.44,149.99 28.8,-29.7 47.24,-63.54 57.08,-99.36zm320.1 -285.02c-14.41,15.93 -28.56,32.37 -42.27,49.11 -13.32,16.81 -26.8,33.67 -40.41,50.62 -26.28,34.21 -49.01,69.32 -65.47,105.15 -8.35,17.99 -14.58,36.2 -20.12,54.49 -6.07,18.37 -10.22,36.74 -12.37,55.53 -4.22,37.61 0.06,76.41 15.32,117.05 88.84,8.22 162.65,-25.6 223.81,-85.06 15.25,-14.5 29.77,-30.88 43.4,-48.42 13.18,-17.69 24.34,-36.64 35.45,-56.42 21.85,-39.61 40.35,-82.56 56.14,-125.93 8.43,-21.56 13.76,-43.63 19.01,-65.32 5.03,-21.69 9.63,-43.09 13.61,-63.66 7.65,-41.63 14.38,-80.29 16.75,-113.82 3.93,-66.78 2.66,-110.84 2.66,-110.84 0,0 -32.59,27.34 -78.64,71.09 -44.43,43.61 -108.69,102.26 -166.89,166.42zm-550.5 1001.94c34.16,-23.9 58.64,-53.9 75.39,-87.51 8.44,-16.67 14.65,-34.55 19.31,-52.71 4.53,-18.37 7.85,-37.18 7.79,-56.92 0.36,-78.65 -22.29,-161.27 -57.08,-234.64 -36.96,-73.97 -82.42,-137.63 -118.77,-182.07 -18.14,-22.43 -33.54,-39.98 -45.9,-52.18 -12.07,-12.08 -19.03,-18.66 -19.03,-18.66 0,0 -1.85,8.14 -4.13,22.52 -3.04,14.26 -7.71,34.85 -12.07,60.12 -9.25,50.34 -13.85,119.19 -18.51,192.63 -1.34,36.66 0,75.09 4.81,113.36 1.55,9.71 2.95,19.18 4.36,28.67 1.2,9.46 2.61,18.79 4.3,28.13 3.4,18.79 8.06,37.45 14,55.46 23.61,72.4 67.89,139.1 145.54,183.82zm741.39 -461.59c4.57,-18.51 6.3,-29.32 6.3,-29.32 0,0 -35.91,19.18 -93.29,49.91 -35.8,19.74 -78.68,44.44 -123.12,72.7l81.47 17.17 22.62 32.82c13.21,19.18 24.44,38.89 33.92,59.04 20.75,-45.7 36.26,-89.82 48.77,-126.56 10.51,-31.32 18.36,-57.39 23.34,-75.75zm-441.42 272.51c-12.04,13.06 -23.15,26.49 -33.11,40.3 -11.02,16.22 -22.8,32.14 -32.2,49.04 -9.4,16.73 -17.25,34.17 -22.82,52.25 -11.48,36.29 -14.43,75.39 -7.26,118.33 8.66,2.5 17.26,4.53 25.77,6.15 8.31,-42.87 16.71,-85.73 25.22,-128.56 9.42,-47.47 25.46,-93.09 44.39,-137.52zm-461.25 351.01c-22.44,-79.77 -54.95,-151.79 -81.95,-203.24 -13.62,-25.93 -25.33,-46.36 -35.09,-61.01 -9.26,-14.43 -15.03,-22.52 -15.03,-22.52 0,0 -3.18,7.92 -8.51,22.08 -5.92,14.14 -14.59,34.26 -23.84,59.14 -9.19,24.8 -19.24,54.37 -28.44,87.15 -8.82,31.85 -18.72,72.42 -21.24,96.56 -7.65,56.99 -16.96,124.89 -13.04,196.79 1.69,25.85 5.13,52.25 11.51,78.71 49.17,-22.82 104.28,-31.27 156.51,-9.52 20.64,8.59 37.92,20.6 52.07,35.11 6.79,-13.25 12.42,-27.23 16.9,-41.72 5.41,-18.67 10.16,-37.78 12.07,-57.47 1.64,-20.07 2.52,-39.83 1.26,-59.82 -1.62,-20.07 -4.42,-39.83 -8.43,-59.02 -4.13,-20.58 -9.17,-41.16 -14.73,-61.21zm335.53 196.05l-4.01 2.21c-20.36,11.57 -40.34,23.18 -59.44,35.04 -19.33,11.78 -38.43,23.17 -56.29,35.52 -17.84,12.07 -35.67,23.84 -51.44,36.87 -54.89,42.75 -97.76,90.91 -121.9,156.34 -1.22,14.57 -3.04,29.02 -5.48,43.37 55.58,39.34 118.26,52.49 183.63,42.86 6.58,-14.02 12.89,-28.23 18.96,-42.61 42.34,-100.24 71.99,-204.11 95.97,-309.6zm-684.26 167.06c-0.56,-37.54 -3.95,-71.94 -8.73,-100.82 -4.39,-28.06 -9.11,-50.55 -13.47,-66.77 -4.24,-15.92 -7.06,-24.73 -7.06,-24.73 0,0 -5.33,5.28 -14.12,14.96 -9.4,9.77 -22.52,23.9 -37.78,41.6 -31.37,35.55 -74.17,84.65 -116.08,142.32 -41.68,57.74 -83,123.86 -106.41,196.19 -17.24,54.1 -24.99,111.72 -13.44,171.78 75.58,-68.65 144.58,-145.13 205.9,-230.68 35.33,-49.32 73.76,-96.17 111.2,-143.85zm293.08 394.15l-6.36 0.21c-30.05,56.13 -61.99,111.2 -96.7,164.65 -10.86,16.73 -22.42,34.46 -33.15,52.84 70.09,-33.74 133.78,-81.78 192.67,-131.42 32.2,-27.13 61.4,-56.36 87.99,-87.43 -45.42,-0.32 -94.8,-0.28 -144.47,1.16zm-908.2 195.35c25.55,-34.71 47.01,-73.19 64.34,-112.18 33.57,-74.92 51.99,-152.06 61.77,-209.53 4.72,-28.8 7.47,-52.85 9.17,-69.46 1.49,-16.86 1.85,-26.57 1.85,-26.57 0,0 -29.82,15.92 -73.29,43.18 -43.62,27.45 -101.37,65.88 -157.85,111.72 -56.43,45.98 -111.21,99.51 -149.87,161.27 -38.34,62.24 -62.85,133.18 -60.54,222.92 18.81,8.11 38.05,12.77 57.15,14.58 45.07,-28.28 92.35,-54.66 141.92,-79.45 35.85,-17.93 70.98,-36.74 105.36,-56.48z"/>
  <path class="fil0" d="M921.33 6504.11l97.92 -2.07c-0.68,14.06 0.42,27.25 3.28,39.61 6.51,29.89 20.93,55.55 43.27,76.96 18.99,18.23 36.85,28.3 53.55,30.23 16.69,1.93 30.79,-3.11 42.29,-15.1 10.23,-10.67 12.78,-25.34 7.65,-44.01 -5.13,-18.67 -13.72,-38.91 -25.77,-60.69 -12.06,-21.79 -23.15,-44.58 -33.29,-68.36 -10.13,-23.78 -13.93,-49.02 -11.39,-75.69 2.54,-26.67 14.67,-51.34 36.4,-74 27.48,-28.67 62.31,-41.82 104.48,-39.44 42.19,2.39 82.6,22.11 121.27,59.18 32.67,31.3 54.33,67.43 64.99,108.35 4.26,16.24 6.59,33.5 6.97,51.78l-97.92 2.07c-0.26,-12.42 -1.31,-23 -3.12,-31.79 -5.74,-24.7 -16.78,-44.86 -33.12,-60.53 -34.99,-33.54 -63.68,-38.66 -86.05,-15.32 -10.22,10.66 -12.78,25.32 -7.64,43.99 5.12,18.69 13.71,38.92 25.77,60.7 12.05,21.79 23.14,44.57 33.28,68.37 10.14,23.79 13.93,49.02 11.4,75.68 -2.55,26.67 -14.67,51.34 -36.4,74 -28.77,30 -65.21,43.85 -109.35,41.51 -44.14,-2.35 -86.2,-22.69 -126.19,-61.02 -38.34,-36.75 -63.38,-78.35 -75.14,-124.79 -5.66,-20.8 -8.04,-40.66 -7.14,-59.62zm509.64 266.19l95.65 68.65 46.2 -162.93 -2.26 -1.63 -139.59 95.91zm-271.06 56.92l434.64 -284.8 95.65 68.65 -130.8 502.91 -90.03 -64.63 30.86 -114.25 -151.91 -109.04 -98.38 65.78 -90.03 -64.63zm448.94 333.93l217.07 -433.52 83.6 41.87 55.61 260.21 241.66 -111.38 83.61 41.85 -217.06 433.53 -92.9 -46.51 142.64 -284.88 -226.17 103.63 -52.52 -243.18 -142.64 284.89 -92.9 -46.52zm772.88 136.46l109.79 42.52 3.93 -169.3 -2.59 -1.01 -111.14 127.79zm-248.17 122.98l349.48 -384.56 109.8 42.53 -0.73 519.65 -103.33 -40.02 1.27 -118.35 -174.38 -67.54 -78.77 88.32 -103.33 -40.02zm524.68 188.51l109.02 -472.4 209.21 48.28c50.39,11.64 87.19,35.42 110.42,71.34 23.22,35.92 29.32,77.73 18.33,125.42 -10.7,46.33 -32.66,79.88 -65.87,100.65 -14.06,9.56 -29.73,15.88 -47.04,19l57.36 198.04 -111.35 -25.7 -48.54 -174.69 -94.48 -21.8 -35.82 155.22 -101.24 -23.38zm158.86 -226.33l104.61 24.14c18.89,4.36 35.67,1.95 50.35,-7.23 14.67,-9.17 24.18,-23.2 28.55,-42.09 4.36,-18.89 1.96,-35.68 -7.22,-50.36 -9.17,-14.67 -23.21,-24.17 -42.1,-28.56l-104.6 -24.12 -29.59 128.22zm318.83 326.89l58.43 -481.28 103.13 12.51 -25.04 206.29 210.68 -183.74 123.76 15.03 -202.97 177.67 158.29 305.29 -120.32 -14.61 -115.9 -223.38 -69.82 57.81 -17.11 140.95 -103.13 -12.53zm604.55 -158.71l117.69 -3.62 -62.34 -157.46 -2.77 0.09 -52.57 160.99zm-180.65 209.95l172.03 -490.33 117.7 -3.62 201.79 478.86 -110.76 3.41 -44.93 -109.49 -186.91 5.74 -38.14 112.04 -110.77 3.39zm557.03 -23.21l-58.43 -481.29 92.82 -11.26 270.08 270.69 -36.31 -299.07 103.13 -12.53 58.43 481.27 -92.82 11.27 -270.08 -270.7 36.31 299.09 -103.13 12.53zm550.26 -88.65l-130.82 -466.84 170.07 -47.66c71.13,-19.92 136.34,-13.97 195.61,17.85 59.27,31.82 98.12,80.64 116.56,146.43 18.44,65.8 10.61,127.71 -23.5,185.69 -34.1,57.99 -86.72,96.95 -157.85,116.9l-170.07 47.64zm73.87 -121.39l70.03 -19.62c41.35,-11.59 71.85,-34.52 91.5,-68.81 19.64,-34.27 23.86,-71.41 12.65,-111.43 -11.21,-40.02 -34.12,-69.56 -68.71,-88.63 -34.59,-19.09 -72.57,-22.84 -113.92,-11.25l-70.03 19.62 78.49 280.12zm609.02 -216.09l189.63 -84.94 39.63 88.49 -312.88 140.16c-12.65,-28.25 -20.15,-55.73 -22.53,-82.5 -2.38,-26.76 -0.79,-50.6 4.75,-71.55 5.54,-20.95 13.17,-41.21 22.89,-60.72 9.72,-19.54 20.05,-37.71 30.99,-54.5 10.95,-16.78 20.61,-32.49 28.97,-47.13 8.37,-14.62 14.02,-29.41 16.94,-44.38 2.9,-14.97 1.43,-28.97 -4.42,-42.06 -7.36,-16.43 -19.34,-27.37 -35.96,-32.84 -16.61,-5.45 -34.18,-4.03 -52.73,4.27 -22.33,10.01 -37.66,27.76 -45.97,53.24 -3.81,11.83 -5.75,23.31 -5.81,34.46l-92.83 -3.94c-0.45,-23.59 2.76,-45.77 9.64,-66.55 16.79,-49.51 50.67,-85.7 101.66,-108.53 46.35,-20.76 89.65,-24.33 129.89,-10.74 40.24,13.58 69.33,40.4 87.26,80.44 10.57,23.59 15.21,46.94 13.91,70.04 -1.29,23.09 -6.81,44.67 -16.55,64.71 -9.74,20.04 -20.37,39.24 -31.9,57.55 -11.53,18.33 -22.85,37.94 -33.98,58.85 -11.12,20.93 -17.99,40.31 -20.61,58.18zm342.14 -209.36c31.53,13.5 59.49,13.23 83.88,-0.87 24.39,-14.08 38.62,-38.16 42.66,-72.22 4.06,-34.08 -6.15,-72.29 -30.63,-114.67 -24.48,-42.38 -52.49,-70.33 -84.02,-83.84 -31.54,-13.52 -59.5,-13.22 -83.89,0.85 -24.38,14.1 -38.61,38.17 -42.66,72.24 -4.05,34.06 6.16,72.29 30.64,114.67 24.48,42.39 52.48,70.33 84.02,83.84zm225.01 -50.78c-11.78,60.4 -42.65,105.02 -92.63,133.89 -49.97,28.88 -104.07,33.31 -162.26,13.33 -58.19,-19.96 -106.23,-62.74 -144.1,-128.33 -37.88,-65.58 -50.92,-128.55 -39.16,-188.94 11.78,-60.39 42.66,-105.02 92.63,-133.89 49.98,-28.87 104.07,-33.32 162.27,-13.33 58.19,19.97 106.22,62.76 144.1,128.32 37.87,65.58 50.92,128.57 39.15,188.95zm171.82 -175.78l164.16 -127.38 59.45 76.59 -270.86 210.19c-18.96,-24.44 -32.77,-49.39 -41.4,-74.82 -8.64,-25.45 -12.75,-49 -12.32,-70.67 0.43,-21.67 3.06,-43.14 7.88,-64.41 4.82,-21.29 10.56,-41.38 17.23,-60.29 6.67,-18.9 12.33,-36.45 17.01,-52.65 4.67,-16.18 6.66,-31.89 5.95,-47.12 -0.72,-15.23 -5.46,-28.5 -14.24,-39.79 -11.04,-14.24 -25.27,-22.04 -42.7,-23.42 -17.44,-1.38 -34.17,4.16 -50.22,16.63 -19.33,14.99 -30.03,35.86 -32.09,62.58 -0.91,12.41 -0.07,24.01 2.52,34.86l-91.14 18.13c-6.01,-22.81 -8.13,-45.11 -6.37,-66.94 4.59,-52.08 28.96,-95.24 73.1,-129.48 40.12,-31.14 81.36,-44.85 123.66,-41.17 42.32,3.68 76.92,22.87 103.81,57.52 15.85,20.42 25.88,42.02 30.08,64.77 4.21,22.73 3.95,44.99 -0.77,66.77 -4.73,21.79 -10.52,42.95 -17.39,63.47 -6.87,20.53 -13.23,42.27 -19.08,65.22 -5.86,22.95 -7.94,43.42 -6.27,61.4zm186 -124.9l-76.66 -80.02 -46.33 -353.68 87.52 -83.85 208.43 217.54 40.01 -38.33 67.07 70.01 -40 38.34 59.9 62.5 -75.02 71.87 -59.9 -62.51 -165.03 158.13zm10.43 -144.28l87.51 -83.87 -115 -120.02 27.49 203.89z"/>
  <path class="fil0" d="M1037.66 4327.06c-60.57,87.9 -67.29,193.46 -57.86,302.76 14.74,170.72 45.61,341.44 83,512.13 34.91,159.4 91.04,315.38 156.67,468.35 424.82,989.93 2383.96,1462.1 2363.81,1397.5 -83.07,-266.22 -157.56,-492.32 -274.86,-683.64 -117.3,-191.34 -277.41,-347.91 -531.75,-475.11 -255.82,-127.97 -477.48,-298.51 -645.75,-533.29 -34.65,-48.35 -72.75,-94.68 -109.64,-141.69 -19.38,-24.71 -41.92,-46.62 -68.46,-64.05 -81.94,-53.8 -144.93,-28.08 -145.06,60.9 -0.12,72.62 20.05,144.01 54.78,213.48 39.82,79.78 82.72,158.15 131.99,234.01 33.68,51.86 66.59,104.57 82.42,162.97 17.84,65.8 -7.04,91.24 -75.37,72.38 -118.81,-32.79 -219.91,-103.45 -314.61,-183.25 -123.49,-104.07 -206.42,-233.45 -266.36,-375.38 -64.27,-152.14 -99.99,-307.97 -130.01,-464.5 -17.53,-91.37 -35.09,-182.71 -53.24,-274.04 -8.63,-43.47 -24.33,-85.98 -42.59,-127.72 -20.88,-47.72 -51.3,-88.73 -101.28,-113.62l-55.83 11.78zm5408.18 -0.01c60.57,87.91 67.29,193.47 57.86,302.77 -14.73,170.72 -45.61,341.44 -83,512.13 -34.9,159.4 -91.03,315.38 -156.67,468.35 -462.89,1078.65 -2381.07,1452.81 -2363.81,1397.5 83.09,-266.24 157.57,-492.33 274.87,-683.64 117.29,-191.33 277.39,-347.9 531.74,-475.13 255.82,-127.95 477.49,-298.49 645.76,-533.27 34.64,-48.35 72.74,-94.68 109.63,-141.69 19.38,-24.71 41.93,-46.62 68.46,-64.05 81.95,-53.79 144.93,-28.08 145.07,60.9 0.11,72.62 -20.06,144.01 -54.78,213.48 -39.83,79.78 -82.72,158.15 -132,234.01 -33.67,51.87 -66.58,104.57 -82.42,162.97 -17.83,65.8 7.04,91.24 75.37,72.38 118.82,-32.79 219.91,-103.45 314.61,-183.25 123.49,-104.07 206.43,-233.45 266.36,-375.38 64.27,-152.14 100,-307.97 130.01,-464.5 17.53,-91.37 35.1,-182.71 53.24,-274.04 8.63,-43.47 24.33,-85.98 42.59,-127.72 20.89,-47.72 51.3,-88.73 101.28,-113.62l55.83 11.77z"/>
  <path class="fil0" d="M726.32 5582.28l-43.95 -76.6 -82.17 96.85 1.03 1.8 125.09 -22.04zm202.7 45.39l-385.19 59.28 -43.95 -76.59 245.61 -302.59 41.35 72.1 -56.58 68.39 69.8 121.65 87.59 -14.31 41.36 72.08zm-221.88 -396.66l-264.87 120.27 42.96 94.61 -66.21 30.07 -118.14 -260.15 66.21 -30.06 42.97 94.59 264.86 -120.29 32.22 70.95zm-377.87 -208.03c28.79,14.17 58.58,16.03 89.4,5.54 30.82,-10.49 53.31,-30.12 67.48,-58.91 14.17,-28.78 16.01,-58.57 5.53,-89.39 -10.49,-30.81 -30.12,-53.31 -58.9,-67.48 -28.78,-14.17 -58.58,-16.01 -89.4,-5.52 -30.82,10.47 -53.31,30.11 -67.48,58.89 -14.16,28.78 -16.01,58.59 -5.53,89.41 10.49,30.81 30.12,53.31 58.9,67.46zm223.89 -15.26c-22.87,47.84 -59.06,80.19 -108.56,97.03 -49.51,16.84 -97.9,13.27 -145.19,-10.69 -47.29,-23.96 -79.92,-62.33 -97.87,-115.13 -17.97,-52.78 -15.5,-103.09 7.36,-150.92 22.87,-47.83 59.06,-80.16 108.56,-97.01 49.51,-16.84 97.9,-13.28 145.19,10.69 47.29,23.96 79.92,62.34 97.88,115.11 17.96,52.79 15.49,103.09 -7.37,150.92zm-89.35 -401.78l-358.13 62.92 -12.14 -69.08 131.92 -149.75 -175.06 -95.82 -12.14 -69.07 358.14 -62.93 13.47 76.76 -235.34 41.34 163.48 89.95 -123.04 140.27 235.34 -41.34 13.48 76.73zm-93.79 -584.96l-363.53 8.23 -6.04 -267.46 72.7 -1.64 4.28 189.55 85.7 -1.94 -3.35 -148.01 72.71 -1.66 3.34 148.01 132.43 -2.98 1.76 77.89zm-269.17 -433.28c20.9,24.33 47.58,37.75 80.04,40.2 32.47,2.47 60.85,-6.74 85.2,-27.65 24.33,-20.9 37.74,-47.58 40.2,-80.04 2.47,-32.45 -6.76,-60.85 -27.66,-85.19 -20.89,-24.33 -47.57,-37.74 -80.03,-40.2 -32.46,-2.48 -60.86,6.75 -85.2,27.65 -24.33,20.89 -37.74,47.57 -40.2,80.04 -2.47,32.47 6.75,60.85 27.65,85.19zm211.88 73.93c-39.81,35 -85.8,50.52 -137.94,46.56 -52.14,-3.96 -95.25,-26.26 -129.32,-66.88 -34.08,-40.6 -49,-88.71 -44.77,-144.31 4.22,-55.58 26.25,-100.9 66.06,-135.9 39.82,-35.01 85.81,-50.52 137.95,-46.55 52.14,3.96 95.25,26.25 129.32,66.87 34.08,40.61 49,88.72 44.77,144.32 -4.22,55.59 -26.25,100.88 -66.07,135.89zm84.61 -402.68l-358.13 -62.91 27.86 -158.61c6.72,-38.2 23.06,-66.7 49.05,-85.53 25.98,-18.82 57.05,-25.05 93.2,-18.69 35.13,6.18 61.13,21.29 78,45.35 7.72,10.14 13.08,21.63 16.1,34.46l146.05 -50.81 -14.83 84.41 -128.9 43.28 -12.59 71.63 117.68 20.67 -13.48 76.74zm-175.82 -109.99l13.93 -79.3c2.52,-14.34 0.05,-26.8 -7.41,-37.43 -7.45,-10.63 -18.34,-17.2 -32.66,-19.72 -14.33,-2.53 -26.81,-0.05 -37.43,7.41 -10.63,7.45 -17.2,18.35 -19.72,32.67l-13.92 79.3 97.21 17.08zm217.12 -335.64l-32.91 -65.68c9.74,-4.05 18.34,-9.05 25.78,-14.97 18.18,-14.02 30.92,-32.05 38.24,-54.08 6.23,-18.72 7.32,-34.06 3.25,-45.99 -4.06,-11.94 -12.01,-19.87 -23.83,-23.79 -10.52,-3.5 -21.27,-0.52 -32.28,8.97 -11,9.48 -21.94,21.81 -32.82,36.97 -10.89,15.19 -22.76,30.04 -35.61,44.55 -12.87,14.53 -28.74,25.22 -47.62,32.07 -18.88,6.86 -39.5,6.57 -61.84,-0.86 -28.27,-9.4 -48.38,-28.76 -60.34,-58.1 -11.96,-29.33 -11.6,-63.07 1.08,-101.2 10.71,-32.19 28.22,-58.5 52.51,-78.89 9.63,-8.09 20.57,-15.22 32.84,-21.37l32.9 65.68c-8.31,4.17 -15.16,8.28 -20.52,12.35 -14.88,11.84 -25,25.8 -30.36,41.91 -11.47,34.5 -5.71,55.58 17.3,63.22 10.51,3.5 21.27,0.52 32.27,-8.96 11,-9.48 21.94,-21.82 32.83,-36.99 10.89,-15.17 22.76,-30.01 35.61,-44.55 12.87,-14.51 28.74,-25.21 47.62,-32.06 18.88,-6.87 39.5,-6.58 61.84,0.85 29.57,9.84 50.67,30.08 63.29,60.73 12.62,30.65 12.37,65.71 -0.75,105.14 -12.57,37.79 -32.69,68.14 -60.39,91.04 -12.26,10.53 -24.95,18.52 -38.09,24.01zm16.53 -366.93l-194.07 -87.71 32.09 -70.99 194.07 87.71c23.36,10.56 45.27,12.3 65.76,5.2 20.5,-7.07 35.66,-21.5 45.5,-43.28 9.84,-21.76 10.65,-42.69 2.43,-62.74 -8.22,-20.06 -24.01,-35.36 -47.37,-45.92l-194.07 -87.71 32.09 -71.01 194.08 87.73c42.6,19.25 71.24,48.35 85.95,87.29 14.7,38.95 12.43,79.73 -6.83,122.32 -19.26,42.6 -48.36,71.26 -87.3,85.97 -38.96,14.69 -79.73,12.41 -122.33,-6.85zm251.5 -298.99l-19.32 -70.88c10.35,-2.08 19.76,-5.27 28.23,-9.61 20.57,-10.16 36.61,-25.32 48.13,-45.47 9.79,-17.15 13.87,-31.95 12.25,-44.47 -1.64,-12.5 -7.86,-21.83 -18.68,-28.03 -9.62,-5.5 -20.75,-4.67 -33.41,2.46 -12.65,7.13 -25.8,17.06 -39.46,29.78 -13.66,12.74 -28.23,24.96 -43.69,36.67 -15.46,11.71 -33.13,19.05 -53,22.05 -19.86,3.02 -40.02,-1.33 -60.46,-13.02 -25.86,-14.77 -41.76,-37.73 -47.71,-68.84 -5.94,-31.13 1.06,-64.12 20.99,-98.99 16.84,-29.46 39.18,-51.8 67.01,-67 11.04,-6.07 23.17,-10.9 36.4,-14.49l19.32 70.88c-8.98,2.44 -16.5,5.13 -22.55,8.04 -16.93,8.68 -29.6,20.38 -38.02,35.11 -18.05,31.57 -16.55,53.36 4.5,65.4 9.62,5.49 20.75,4.69 33.41,-2.45 12.65,-7.13 25.8,-17.07 39.46,-29.8 13.66,-12.74 28.23,-24.94 43.69,-36.65 15.47,-11.71 33.13,-19.06 53,-22.07 19.86,-2.99 40.02,1.35 60.46,13.02 27.06,15.47 43.76,39.48 50.08,72.01 6.34,32.54 -0.81,66.84 -21.43,102.92 -19.76,34.58 -45.46,60.37 -77.13,77.38 -14.08,7.9 -28.11,13.25 -42.07,16.04zm249.55 -314.69l-237.43 -168.07 -60.03 84.81 -59.36 -42.02 165.07 -233.19 59.36 42.02 -60.03 84.8 237.44 168.07 -45.02 63.58zm66.5 -343.08l57.74 -66.81 -118.58 -45.49 -1.36 1.57 62.2 110.74zm24.23 206.32l-183.4 -343.88 57.74 -66.81 366.82 131.65 -54.35 62.87 -83.27 -30.75 -91.71 106.11 42.51 77.93 -54.35 62.88zm278.01 -312.22l-262.71 -251.4 53.88 -56.29 262.7 251.41 -53.87 56.28zm121.88 -120.57l-237.88 -275.01 53.04 -45.88 281.4 55.36 -147.83 -170.91 58.93 -50.96 237.89 275.01 -53.04 45.87 -281.4 -55.34 147.83 170.88 -58.94 50.98zm320.31 -448.37l74.45 -47.5 -100.61 -77.53 -1.76 1.12 27.92 123.91zm-35.81 204.62l-77.34 -381.98 74.45 -47.5 313.81 231.1 -70.07 44.72 -70.97 -53.31 -118.25 75.43 18.43 86.83 -70.07 44.7zm354.11 -222.52l-166.56 -323.23 136.21 -70.19c31.4,-16.19 60.81,-20.92 88.23,-14.2 27.42,6.71 47.31,22.08 59.69,46.09 10.79,20.93 12.45,42.28 4.96,64.05 -3.74,10.12 -8.52,18.61 -14.32,25.51 12.36,-2.48 25.06,-2.4 38.11,0.22 28.73,6.63 49.52,22.42 62.37,47.35 13.32,25.85 14.5,52.89 3.54,81.15 -10.96,28.25 -33.22,51 -66.77,68.31l-145.45 74.94zm38.33 -95.71l71.57 -36.88c13.54,-6.98 22.42,-16.03 26.62,-27.16 4.2,-11.14 3.2,-22.69 -2.97,-34.69 -6.19,-12.01 -15.03,-19.54 -26.53,-22.57 -11.5,-3.02 -24.02,-1.07 -37.57,5.91l-71.57 36.88 40.45 78.51zm-71.38 -138.53l62.33 -32.13c11.4,-5.87 18.85,-13.5 22.38,-22.92 3.52,-9.41 2.83,-18.88 -2.09,-28.44 -4.92,-9.55 -12.24,-15.61 -21.94,-18.21 -9.72,-2.6 -20.27,-0.96 -31.66,4.91l-62.33 32.13 33.31 64.65zm354.28 75.33l-132.47 -338.63 72.56 -28.4 105.98 270.9 157.22 -61.5 26.5 67.72 -229.79 89.9zm284.1 -108.04l-99.92 -349.63 259.72 -74.21 19.99 69.92 -184.81 52.81 19.27 67.43 144.84 -41.4 19.26 67.44 -144.83 41.38 21.41 74.92 189.79 -54.23 19.98 69.92 -264.71 75.66zm440.24 -113.37l-46.81 -360.58 131.36 -17.06c54.95,-7.13 102.69,4.3 143.26,34.3 40.56,29.99 64.15,70.42 70.75,121.25 6.6,50.82 -5.88,95.92 -37.44,135.28 -31.55,39.38 -74.81,62.63 -129.75,69.76l-131.36 17.05zm67.91 -82.15l54.09 -7.02c31.94,-4.15 57.04,-17.88 75.32,-41.21 18.28,-23.33 25.4,-50.43 21.39,-81.34 -4.01,-30.91 -17.83,-55.3 -41.45,-73.2 -23.63,-17.88 -51.41,-24.75 -83.34,-20.6l-54.09 7.02 28.09 216.35zm324.16 35.7l-8.18 -363.54 270.05 -6.08 1.64 72.71 -192.14 4.33 1.58 70.1 150.6 -3.38 1.58 70.1 -150.6 3.4 1.76 77.89 197.34 -4.45 1.64 72.71 -275.25 6.21zm441.3 2.67l-107.13 -372.8 82.87 6.29 74.52 273.97 2.08 0.14 115.05 -259.55 82.88 6.31 -162.22 352.33 -88.05 -6.69zm276.37 28.55l62.91 -358.14 266.04 46.73 -12.59 71.64 -189.29 -33.27 -12.14 69.07 148.37 26.07 -12.14 69.06 -148.37 -26.06 -13.47 76.75 194.41 34.14 -12.59 71.63 -271.15 -47.63zm338.62 67.79l99.91 -349.62 74.92 21.42 -79.93 279.69 162.32 46.4 -19.98 69.91 -237.24 -67.79zm454.45 -133c-29.45,12.69 -50.2,34.16 -62.23,64.42 -12.03,30.24 -11.7,60.09 1,89.56 12.69,29.45 34.16,50.19 64.41,62.23 30.25,12.03 60.11,11.69 89.57,-1 29.45,-12.69 50.2,-34.16 62.23,-64.42 12.03,-30.24 11.7,-60.11 -1,-89.56 -12.7,-29.46 -34.16,-50.19 -64.42,-62.24 -30.24,-12.02 -60.1,-11.7 -89.56,1.01zm-133.73 180.21c-21.54,-48.44 -22.65,-96.96 -3.32,-145.55 19.33,-48.59 53.46,-83.1 102.39,-103.51 48.93,-20.41 99.3,-20.33 151.1,0.29 51.81,20.6 88.48,55.13 110.03,103.57 21.54,48.44 22.65,96.96 3.31,145.55 -19.31,48.59 -53.45,83.09 -102.38,103.51 -48.93,20.4 -99.3,20.32 -151.1,-0.29 -51.81,-20.6 -88.48,-55.13 -110.03,-103.57zm358.36 203.29l180.43 -315.69 133.05 76.05c33.37,19.07 54.84,44.5 64.39,76.29 9.55,31.77 5.48,63.15 -12.22,94.12 -17.71,30.96 -42.67,50.4 -74.91,58.3 -32.24,7.9 -65.05,2.33 -98.41,-16.75l-65.4 -37.39 -59.29 103.74 -67.64 -38.68zm163.02 -128.21l63.13 36.09c13.53,7.74 26.71,9.99 39.53,6.75 12.82,-3.25 22.84,-11.18 30.05,-23.81 7.22,-12.63 8.97,-25.29 5.26,-37.98 -3.71,-12.69 -12.34,-22.9 -25.87,-30.63l-63.14 -36.09 -48.97 85.68zm143.38 304.27l210.09 -296.8 57.24 40.51 11.72 199.23 191.79 -55.17 57.24 40.5 -210.08 296.8 -63.6 -45.02 138.06 -195.03 -179.43 51.18 -11.37 -186.23 -138.06 195.03 -63.6 -45.01zm387.2 288.9l250.56 -263.51 195.76 186.13 -50.11 52.7 -139.28 -132.44 -48.33 50.82 109.17 103.81 -48.32 50.81 -109.17 -103.8 -53.7 56.47 143.06 136.01 -50.11 52.7 -199.52 -189.71zm249.03 239.56l275.01 -237.89 45.87 53.04 -55.35 281.4 170.89 -147.83 50.98 58.93 -275.01 237.89 -45.88 -53.05 55.35 -281.4 -170.89 147.83 -50.97 -58.92zm304.88 377.64l237.17 -168.43 -60.16 -84.7 59.3 -42.12 165.43 232.93 -59.29 42.12 -60.16 -84.71 -237.17 168.45 -45.12 -63.54zm410.71 473.32l-22.38 69.97c-16.62,-3.52 -33.34,-9.52 -50.17,-17.99 -37.73,-20.29 -66.34,-49.38 -85.86,-87.23 -25.53,-49.56 -30.52,-99.69 -14.95,-150.35 15.57,-50.69 46.6,-88 93.08,-111.97 46.48,-23.95 94.88,-27.55 145.18,-10.81 50.31,16.73 88.23,49.88 113.77,99.43 19.5,37.88 26.26,77.43 20.26,118.71 -2.58,17.69 -7.48,34.63 -14.72,50.82l-69.97 -22.39c4.83,-10.27 8.48,-22.09 10.95,-35.44 4.92,-28.25 1.2,-54.38 -11.17,-78.4 -14.91,-28.92 -37.65,-48.29 -68.19,-58.06 -30.56,-9.77 -60.31,-7.2 -89.24,7.72 -28.94,14.91 -48.3,37.63 -58.06,68.2 -9.78,30.54 -7.22,60.28 7.7,89.23 12.54,24.31 32.05,43.28 58.54,56.9 12.47,6.05 24.2,9.92 35.22,11.66zm214.59 132.88c-29.38,-12.87 -59.24,-13.35 -89.56,-1.51 -30.31,11.88 -51.9,32.5 -64.76,61.87 -12.87,29.38 -13.36,59.25 -1.51,89.56 11.86,30.31 32.49,51.91 61.87,64.77 29.38,12.86 59.24,13.35 89.55,1.51 30.32,-11.87 51.91,-32.49 64.77,-61.87 12.87,-29.39 13.36,-59.25 1.51,-89.56 -11.86,-30.31 -32.49,-51.91 -61.87,-64.77zm-222.98 25.32c20.69,-48.82 55.38,-82.74 104.08,-101.81 48.71,-19.04 97.22,-17.67 145.53,4.15 48.33,21.81 82.64,58.68 102.95,110.6 20.31,51.92 20.12,102.31 -0.57,151.12 -20.69,48.8 -55.39,82.74 -104.09,101.78 -48.7,19.06 -97.21,17.69 -145.52,-4.14 -48.33,-21.81 -82.64,-58.69 -102.95,-110.6 -20.32,-51.92 -20.12,-102.31 0.57,-151.1zm91.37 402.16l354.38 -81.44 15.7 68.34 -180.67 222.75 220.22 -50.61 17.46 75.95 -354.39 81.43 -15.71 -68.34 180.68 -222.74 -220.22 50.6 -17.45 -75.94zm83.49 409.57l360.59 -46.82 34.43 265.29 -72.12 9.36 -24.4 -188.02 -85 11.04 19.06 146.81 -72.12 9.36 -19.05 -146.81 -131.36 17.06 -10.03 -77.26zm33 330.67l363.53 -8.19 6.08 270.06 -72.71 1.63 -4.32 -192.13 -70.11 1.58 3.39 150.59 -70.12 1.58 -3.38 -150.6 -77.9 1.76 4.44 197.35 -72.7 1.64 -6.2 -275.25zm-0.45 345.33l362.57 27.57 -12.2 160.56c-2.94,38.67 -16.42,68.65 -40.43,89.91 -24.01,21.28 -54.33,30.52 -90.93,27.74 -35.57,-2.69 -62.93,-15.19 -82.07,-37.49 -8.66,-9.34 -15.12,-20.26 -19.38,-32.74l-140.38 64.87 6.5 -85.46 124.04 -55.68 5.51 -72.53 -119.12 -9.05 5.9 -77.69zm185.75 92.25l-6.1 80.29c-1.11,14.51 2.57,26.68 11.03,36.53 8.45,9.85 19.93,15.33 34.43,16.43 14.5,1.1 26.68,-2.59 36.52,-11.03 9.84,-8.45 15.32,-19.93 16.42,-34.43l6.11 -80.3 -98.41 -7.49zm-225.2 271.65l358.14 62.91 -46.74 266.03 -71.62 -12.58 33.26 -189.29 -69.07 -12.14 -26.07 148.37 -69.07 -12.14 26.07 -148.37 -76.74 -13.47 -34.16 194.4 -71.62 -12.58 47.63 -271.15zm-66.93 339.22l345.05 114.73 -22.13 66.55 -270.16 96.28 214.42 71.3 -24.58 73.94 -345.04 -114.74 22.13 -66.53 270.15 -96.29 -214.42 -71.3 24.58 -73.94zm-144.69 696.53l-68.73 25.94c-7.57,-15.2 -13.26,-32.04 -17.09,-50.47 -7.55,-42.17 -2.55,-82.67 15,-121.49 22.96,-50.8 59.14,-85.85 108.52,-105.15 49.38,-19.29 97.89,-18.17 145.54,3.37 47.66,21.52 80.56,57.21 98.7,107.03 18.15,49.81 15.74,100.13 -7.23,150.92 -17.54,38.82 -44.35,68.7 -80.41,89.64 -15.46,8.97 -31.78,15.67 -48.97,20.06l-25.94 -68.73c11.05,-2.61 22.58,-7.09 34.57,-13.45 25.19,-13.7 43.35,-32.85 54.48,-57.47 13.4,-29.65 14.44,-59.5 3.11,-89.51 -11.33,-30 -31.82,-51.72 -61.48,-65.13 -29.66,-13.41 -59.5,-14.44 -89.51,-3.1 -30.01,11.31 -51.72,31.81 -65.14,61.47 -11.27,24.92 -13.99,52.01 -8.2,81.24 3.01,13.51 7.27,25.12 12.76,34.83zm-160.66 46.77l315.69 180.43 -134.03 234.5 -63.13 -36.08 95.37 -166.86 -60.88 -34.8 -74.76 130.79 -60.87 -34.79 74.75 -130.79 -67.65 -38.67 -97.94 171.37 -63.14 -36.08 136.61 -239.02z"/>
  <g id="_2079196569840">
   <path class="fil1" d="M3741.79 1327.1l-575.26 297.66c-293.89,152.08 -471.41,506.45 -471.41,837.37l0 273.89c15.26,-0.68 30.77,-1.07 46.51,-1.22l0 -172.96c0,-316.24 169.61,-654.8 450.47,-800.14l549.68 -284.42 549.67 284.42c280.88,145.33 450.47,483.92 450.47,800.14l0 172.96c15.74,0.15 31.25,0.54 46.51,1.22l0 -273.89c0,-330.97 -177.52,-685.28 -471.42,-837.37l-575.24 -297.66z"/>
   <path class="fil1" d="M3741.79 873.8l-695.3 359.79c-355.21,183.81 -569.8,612.13 -569.8,1012.09l0 554.97c18.13,-5.15 36.88,-9.72 56.22,-13.7l0 -420.74c0,-382.25 205,-791.45 544.48,-967.13l664.39 -343.78 664.39 343.78c339.47,175.68 544.47,584.93 544.47,967.13l0 420.74c19.34,3.98 38.09,8.55 56.22,13.7l0 -554.97c0,-400.03 -214.58,-828.27 -569.81,-1012.09l-695.28 -359.79z"/>
  </g>
  <path class="fil1" d="M4060.18 4319.58c876.9,-506.28 1445.25,-1163.58 1269.42,-1468.11 -149.72,-259.32 -790.79,-179.16 -1519.28,162.95l123.9 63.85c603.56,-278.91 1105.07,-367.6 1207.68,-189.86 127.58,220.98 -409.68,770.02 -1200.01,1226.31 -174.46,100.74 -346.67,188.5 -510.48,261.77l33.15 237.39c191.91,-78.81 393.12,-177.39 595.61,-294.3zm-1048.24 -838.78c-76.8,54.74 -149.71,110.14 -218.31,165.7l81.47 71.22c45.1,-34.97 92.23,-70.11 141.2,-105.22l-4.36 -131.71zm-442.26 362.11c-351.4,335.85 -523.45,655.23 -415.64,841.98 106.66,184.75 462.72,197.18 922.08,65.38l-44.15 -218.16c-387.13,126.11 -676.85,139.03 -752.09,8.7 -74.56,-129.12 78.01,-370.32 375.39,-639.52l-85.59 -58.37z"/>
  <path class="fil1" d="M3105.13 3768.18c-0.01,-223.95 13.96,-438.51 39.48,-636.88l224.01 79.7c-17.44,174.08 -26.96,361.65 -26.96,557.18 0,912.59 206.86,1652.39 462.01,1652.39 144.89,0 274.17,-238.56 358.87,-611.82l92.54 44.33c-115.88,453.92 -302.61,748.52 -513.26,748.52 -351.64,0 -636.7,-820.85 -636.7,-1833.41zm109.55 -1028.45c114.51,-485.78 307.88,-804.97 527.15,-804.97 216.6,0 407.89,311.53 522.92,787.36l-95.88 33.86c-84.52,-389.47 -216.66,-640.19 -365.19,-640.19 -155.8,0 -293.6,275.88 -377.28,698.49l-211.72 -74.55zm1011.96 1694c6.21,-50.35 11.74,-102.02 16.53,-154.88l116.95 -71.84c-8.03,94.22 -18.62,185.51 -31.5,273.37l-101.98 -46.65zm11.97 -1224.13c-5.2,-51.78 -11.1,-102.37 -17.67,-151.6l105 -20.23c12.73,84.21 23.32,171.7 31.58,261.9l-118.91 -90.07z"/>
  <path class="fil1" d="M4060.18 3216.78c-876.91,-506.28 -1730.32,-669.84 -1906.13,-365.3 -144.56,250.37 213.99,739.2 833.42,1186.52l-13.75 -144.99c-498.47,-365.55 -791.67,-727.97 -693.83,-897.45 127.58,-220.98 871.69,-30.22 1662.02,426.09 167.31,96.59 323.23,197.34 463.95,298.26l187.66 -149.31c-159.44,-121.71 -338.77,-241.49 -533.34,-353.82zm671.98 760.91c319.9,281.5 487.12,536.23 409.75,670.25 -101.96,176.59 -597.63,90.22 -1195.97,-184.46l-113.81 68.67c719.46,333.52 1349.26,409.46 1497.48,152.73 108.97,-188.75 -67.97,-512.99 -427.01,-852.8l-170.44 145.6z"/>
  <path class="fil1" d="M3618.53 3554.61c117.96,-68.11 268.78,-27.7 336.89,90.26 68.1,117.96 27.69,268.79 -90.27,336.89 -117.97,68.11 -268.79,27.69 -336.89,-90.26 -68.11,-117.96 -27.69,-268.79 90.27,-336.89z"/>
 </g>
</svg>
