<?xml version="1.0" encoding="UTF-8"?>
<!DOCTYPE svg PUBLIC "-//W3C//DTD SVG 1.1//EN" "http://www.w3.org/Graphics/SVG/1.1/DTD/svg11.dtd">
<!-- Creator: CorelDRAW -->
<svg xmlns="http://www.w3.org/2000/svg" xml:space="preserve" width="33.5514mm" height="34.787mm" version="1.1" style="shape-rendering:geometricPrecision; text-rendering:geometricPrecision; image-rendering:optimizeQuality; fill-rule:evenodd; clip-rule:evenodd"
viewBox="0 0 3778.65 3917.8"
 xmlns:xlink="http://www.w3.org/1999/xlink"
 xmlns:xodm="http://www.corel.com/coreldraw/odm/2003">
 <defs>
  <style type="text/css">
   <![CDATA[
    .fil3 {fill:#00A0E3}
    .fil2 {fill:#16509D}
    .fil1 {fill:#16509D;fill-rule:nonzero}
    .fil0 {fill:#7DC24E;fill-rule:nonzero}
   ]]>
  </style>
 </defs>
 <g id="Слой_x0020_1">
  <metadata id="CorelCorpID_0Corel-Layer"/>
  <g id="_1985527776928">
   <g>
    <g>
     <path class="fil0" d="M1470.87 2993.34c-19.65,-14.76 -37.56,-25.26 -56.81,-32.14 -19.13,-6.79 -38.87,-10.46 -59.72,-11.27 -41.46,-1.95 -86.66,5.9 -130.06,16.32 -43.36,10.69 -84.47,23.63 -115.34,34.17 -30.64,10.2 -50.65,18.15 -50.65,18.15 0,0 19.6,11.36 51.05,24.78 31.48,13.54 75.09,28.74 122.56,37 47.23,8.31 98.78,9.27 143.74,-3.62 44.62,-12.6 82.63,-40.03 95.22,-83.39z"/>
     <path class="fil0" d="M1338.47 2801.14c16.86,37.9 41.34,74.86 73.49,98.97 16.07,11.92 33.85,20.99 53.14,24.66 19.1,3.81 39.72,2.76 59.66,-5.61 1.08,-45.38 -11.36,-81.17 -30.72,-112.6 -19.44,-31.17 -47.09,-58.12 -75.54,-81.41 -28.55,-23.13 -57.66,-42.45 -79.75,-56.39 -21.97,-13.72 -37.01,-21.79 -37.01,-21.79 0,0 0.19,4.82 0.97,13.42 0.83,8.37 2.25,20.51 4.64,35.13 4.85,28.92 14.2,67.87 31.13,105.62z"/>
     <path class="fil0" d="M1026.8 2902.27c43.38,-2.11 81.83,-18.76 108.71,-54.99 -21.53,-38.53 -54.23,-59.37 -93.35,-71.41 -39.1,-11.99 -84.74,-15.25 -129.62,-16.7 -44.81,-1.24 -89.14,-0.26 -122.51,-0.08 -34.2,0.56 -55.66,0.97 -55.66,0.97 0,0 4.16,4.6 11.86,12.15 7.77,7.1 18.99,17.72 33.11,29.26 28.18,23.29 68.05,50.39 112.04,70.27 44,20 92.06,32.63 135.42,30.54z"/>
     <path class="fil0" d="M1109.33 2731.05c24.59,31.16 59.05,51.73 101.72,49.6 17.41,-41.72 14.43,-81.48 2.74,-118.03 -11.81,-36.44 -32.67,-69.89 -53.74,-99.05 -21.16,-29.11 -42.76,-53.89 -58.58,-71.75 -7.77,-9 -14.43,-16.14 -19.1,-21 -4.4,-4.97 -7.16,-7.61 -7.16,-7.61 0,0 -1.46,4.5 -3.55,12.48 -2.17,8.1 -4.53,19.57 -6.85,33.74 -4.63,28.44 -6.66,67.31 -0.64,108.12 5.95,40.51 20.55,82.11 45.16,113.51z"/>
     <path class="fil0" d="M578.29 2419.99c-30.85,-9.72 -50.68,-15.35 -50.68,-15.35 0,0 1.87,5.11 5.79,13.63 4.07,8.45 10.32,20.41 18.23,34.54 7.93,14.17 17.65,30.58 28.85,47.73 5.65,8.66 11.7,17.37 18.01,26.2l4.99 6.76 6.31 8.33c4.26,5.53 8.67,10.99 13.04,16.41 35.96,42.8 80.36,75.57 123.93,89.29 43.69,13.98 85.99,9.43 122.09,-17.68 -10.08,-43.35 -34.5,-72.91 -67.3,-98.62 -8.04,-6.51 -17.04,-12.46 -26.02,-18.62 -8.96,-6.17 -18.61,-11.99 -28.44,-17.82 -9.64,-6.09 -19.66,-11.89 -30.01,-17.73 -9.64,-5.34 -19.25,-10.08 -29.03,-14.75 -39.09,-18.43 -79.28,-32.56 -109.76,-42.31z"/>
     <path class="fil0" d="M879.45 2496.94c11.62,37.4 38.53,68.16 79.64,77.66 28.56,-34.98 37.64,-73.22 39.99,-109.4 1.98,-36.14 -2.65,-70.45 -6.58,-99.19 -1.31,-12.19 -6.19,-32.81 -10.77,-48.81 -4.55,-16.56 -9.64,-31.5 -14.35,-43.98 -4.56,-12.52 -9.01,-22.73 -11.96,-29.8 -2.66,-7.21 -4.34,-11.21 -4.34,-11.21 0,0 -2.92,4 -7.62,11.28 -4.85,7.47 -10.83,17.86 -17.68,30.9 -13.59,25.95 -29.97,62.3 -41.29,102.63 -2.92,10.12 -5.43,20.36 -7.56,30.9 -1.9,9.69 -3.36,19.59 -4.21,29.79 -0.64,10.01 -0.19,19.99 0.74,30.13 0.97,9.98 3.24,19.59 5.98,29.08z"/>
     <path class="fil0" d="M531.12 2267.96c7.06,8.71 15.41,16.41 23.82,23.54 8.39,7.14 17.07,13.72 26,19.4 35.84,22.99 75.57,32.69 118.84,20.02 3.63,-21.62 1.98,-41.37 -3.65,-59.71 -2.88,-9.09 -6.77,-17.87 -11.59,-26.32 -4.72,-8.51 -10.65,-16.56 -16.26,-24.73 -23.18,-32.27 -59.01,-60.25 -95.19,-85.13 -35.13,-25.19 -72.09,-46.73 -100.35,-62.46 -28.92,-15.43 -47.13,-25.16 -47.13,-25.16 0,0 0.87,5.43 3.14,14.78 2.58,9.34 6.51,22.5 11.85,38.22 10.73,31.43 25.63,73.63 50.6,112.09 11.93,19.35 25.31,38.48 39.91,55.46z"/>
     <path class="fil0" d="M764.98 2251.06c8.41,16.97 20.79,32.06 38.01,44.1 39.22,-22.5 61.64,-56.14 73.52,-92.72 3.03,-9.17 5.3,-18.5 7.06,-28 0.93,-4.71 1.61,-9.42 2.17,-14.2 0.74,-4.74 1.42,-9.61 2.2,-14.47 2.48,-19.3 3.11,-38.63 2.48,-57.29 -2.44,-36.96 -4.72,-71.86 -9.43,-97.16 -2.16,-12.75 -4.52,-23.14 -6.06,-30.39 -1.19,-7.22 -2.05,-11.28 -2.05,-11.28 0,0 -3.59,3.32 -9.6,9.42 -6.25,6.17 -14.07,14.95 -23.26,26.23 -18.35,22.5 -41.25,54.64 -59.92,91.98 -17.56,37.08 -29.03,78.82 -28.74,118.45 -0.15,9.97 1.54,19.47 3.86,28.7 2.27,9.35 5.53,18.2 9.74,26.65z"/>
     <path class="fil0" d="M455.86 1911.6c5.46,10.06 11.22,19.66 17.83,28.55 6.92,8.78 14.25,17.05 21.91,24.44 30.95,29.98 68.17,47.18 112.97,42.88 7.7,-20.52 9.94,-40.03 7.78,-59.01 -1.08,-9.49 -3.19,-18.84 -6.28,-28.07 -2.8,-9.2 -5.9,-18.39 -10.16,-27.4 -8.27,-18.15 -19.7,-35.84 -33.04,-53.14 -6.84,-8.53 -13.64,-17.12 -20.36,-25.57 -6.88,-8.46 -14.07,-16.68 -21.35,-24.71 -29.33,-32.36 -61.77,-62.08 -84.34,-84.16 -23.18,-21.97 -39.59,-35.95 -39.59,-35.95 0,0 -0.63,22.39 1.35,56.1 1.16,16.85 4.6,36.43 8.41,57.37 2.05,10.46 4.32,21.26 6.92,32.17 2.65,10.96 5.38,22.13 9.56,33.01 7.96,21.86 17.31,43.46 28.4,63.5z"/>
     <path class="fil0" d="M715.49 1983.49c42.81,-14.75 71.36,-43.16 90.14,-75.72 4.72,-8.22 8.75,-16.59 12.33,-25.26 4.2,-8.74 7.75,-17.52 10.96,-26.46 6.24,-17.78 10.69,-35.96 13.75,-53.6 3.32,-17.6 6.99,-34.71 8.71,-50.49 0.98,-8.04 1.73,-15.59 2.21,-22.79 0.45,-7.14 0.71,-13.88 1.61,-20.04 2.66,-24.59 2.35,-40.78 2.35,-40.78 0,0 -16.59,9.12 -40.3,26.17 -5.86,4.29 -12.25,9.08 -18.91,14.27 -6.72,5.35 -13.56,11.1 -20.02,17.31 -13.23,12.48 -26.83,26.84 -39.73,42.67 -6.39,7.96 -12.62,16.22 -18.57,24.86 -2.92,4.3 -5.8,8.75 -8.49,13.12 -2.42,4.48 -4.78,8.96 -7.02,13.56 -8.89,18.2 -15.73,37.42 -19.47,56.66 -1.72,9.53 -3.06,19.17 -2.8,28.59 0.53,9.42 1.98,18.76 4.45,27.76 5.08,18.17 14.31,35.28 28.81,50.15z"/>
     <path class="fil0" d="M560 1442.43c-10.01,-19.26 -20.85,-38.09 -31.32,-55.47 -10.83,-17.6 -20.55,-33.56 -28.78,-46.99 -16.86,-27.1 -29.11,-44.65 -29.11,-44.65 0,0 -6.36,21.26 -13.04,54.3 -2.55,16.76 -4.9,36.41 -6.39,57.67 -0.87,10.7 -1.46,21.63 -1.77,32.93 0.08,11.35 0.79,22.91 1.77,34.53 1.97,23.28 4.92,46.72 10.87,68.88 6.64,22.2 15.2,43.2 26.2,61.37 21.27,36.7 55.58,62.11 100.02,68.43 5.78,-9.08 10.2,-18.17 13.41,-27.36 3.13,-9.24 6.21,-18.5 7.51,-27.81 3.05,-18.76 1.63,-38.01 -2.8,-57.56 -3.89,-19.43 -9.83,-39.24 -18.27,-59.13 -8.35,-19.88 -18.76,-39.9 -28.3,-59.15z"/>
     <path class="fil0" d="M801.87 1613.35c13.45,-13.15 24.81,-27.99 34.42,-43.35 10.58,-15.41 19.84,-31.16 27.28,-47.05 3.93,-7.88 6.92,-15.77 10.54,-23.39 3.66,-7.64 7.03,-15.1 9.98,-22.39 6.01,-14.38 10.27,-27.89 14.28,-39.38 8.85,-22.87 12.75,-38.31 12.75,-38.31 0,0 -18.39,4.44 -45.65,14.69 -27.94,10.06 -61.5,27.03 -94.85,50.71 -8.19,5.95 -16.78,12.25 -24.18,19.18 -7.37,6.79 -14.49,14.04 -21.15,21.6 -13.3,15.24 -25.41,31.79 -33.45,49.33 -7.44,17.64 -11.74,36.14 -11.66,54.71 0.1,9.19 0.81,18.5 3.77,27.69 2.95,9.24 7.24,18.28 12.85,27.14 45.07,-4.27 77.44,-24.93 105.07,-51.18z"/>
     <path class="fil0" d="M670.65 1324.12c5.98,-7.8 10.77,-16.07 14.51,-24.66 3.74,-8.63 6.51,-17.65 8.37,-27.06 1.84,-9.3 2.62,-19.06 3.55,-28.73 1.5,-19.62 0.05,-40.41 -3.21,-61.74 -3.22,-21.27 -6.95,-42.39 -12.3,-63.72 -10.95,-42.57 -22.72,-82.64 -33.26,-113.17 -10.46,-30.53 -17.83,-50.07 -17.83,-50.07 0,0 -2.92,4.55 -7.51,13.04 -4.41,8.51 -10.46,20.81 -17.27,35.92 -14.28,29.86 -28.59,72.61 -37.64,117.42 -3.66,22.76 -6.01,46.2 -6.09,68.83 -0.25,11.23 0.93,22.73 2.61,33.69 1.61,10.98 3.9,21.67 6.96,31.84 6.27,20.44 14.72,38.64 28.25,54.3 13.31,15.59 30.09,28.19 50.91,36.94 7.97,-7.22 14.51,-14.78 19.96,-22.81z"/>
     <path class="fil0" d="M1025.06 1162.04c3.86,-6.01 5.88,-9.49 5.88,-9.49 0,0 -4.82,0 -13.31,0.34 -8.64,0.3 -20.33,1.21 -34.53,2.98 -14.28,1.79 -30.94,4.53 -48.99,8.59 -8.9,2.11 -18.5,4.38 -27.74,7.22 -9.12,2.95 -18.43,6.16 -27.76,9.98 -18.57,7.48 -37.82,16.41 -54.58,27.62 -16.51,11.28 -31.73,24.37 -44.25,39.07 -6.39,7.29 -11.28,15.32 -15.51,23.54 -4.18,8.33 -7.47,16.97 -9.74,25.86 -2.3,8.93 -3.48,18.12 -3.48,27.55 0.47,9.64 2.35,19.39 5.48,29.37 22.21,3.67 42.72,2.69 61.56,-1.52 18.68,-4.23 36.96,-11.22 53.07,-20.56 8.11,-4.56 15.86,-9.72 23.14,-15.32 3.65,-2.62 7.2,-5.61 10.69,-8.6 3.58,-2.84 7.24,-5.79 10.77,-8.78 14.08,-12.11 26.52,-25.33 37.67,-38.79 11.92,-13.15 22.64,-26.47 31.61,-39.2 2.27,-3.11 4.45,-6.36 6.58,-9.42 2.24,-3.03 4.37,-5.95 6.53,-8.86 4.16,-5.82 8,-11.3 11.4,-16.41 6.77,-10.2 11.89,-18.99 15.51,-25.15z"/>
     <path class="fil0" d="M792.41 1049.08c19.21,-9.69 33.56,-22.58 44.59,-37.67 11.59,-14.62 19.51,-31.93 24.89,-50.91 11.62,-37.33 13.5,-81.81 13.09,-124.83 -0.23,-10.8 -0.75,-21.68 -1.34,-32.22 -0.38,-10.45 -1.02,-20.62 -1.73,-30.53 -1.49,-19.88 -3.43,-38.38 -5.26,-54.23 -3.25,-31.24 -6.73,-52.17 -6.73,-52.17 0,0 -3.55,4.11 -9.83,11.09 -6.19,7.06 -14.95,17.23 -24.46,30.45 -9.58,13.17 -20.87,28.49 -31.29,46.42 -10.28,17.79 -21.16,37.12 -29.98,57.9 -8.59,21 -16.44,42.53 -21.26,64.5 -4.63,22.16 -6.95,44.1 -5.9,65.04 2.65,42.22 19.28,80.12 55.23,107.15z"/>
     <path class="fil0" d="M1106.38 1026.42c14.38,-10.53 28.18,-21.18 39.99,-31.79 12.04,-10.51 23.1,-20.31 31.91,-29.01 8.72,-8.93 16.26,-16.07 21.27,-21.26 5,-5.19 7.66,-8.27 7.66,-8.27 0,0 -18.68,-4.13 -47.8,-7.05 -14.46,-1.39 -31.24,-2.06 -49.75,-1.98 -18.46,0.03 -38.46,1.31 -58.19,4.48 -40.21,5.87 -80.62,19.54 -111.49,42.46 -14.95,11.77 -27.62,25.64 -36.43,41.72 -8.33,16.32 -12.52,35.08 -11.54,55.6 41.59,18.13 80.75,16.56 116.56,6.17 18.23,-5.12 35.42,-12.64 51.47,-21.6 16.43,-8.75 32.17,-18.8 46.33,-29.46z"/>
     <path class="fil0" d="M1026.37 2724.46c118.22,97.96 262.22,165 403.61,222.1 115.71,46.73 264.15,123.12 415.3,194.31 -136.01,42.31 -270.04,76.89 -377.82,94.96 -14.06,2.37 58.53,76.1 72.01,72.03 125.17,-37.67 252.24,-83.39 377.33,-133.87 136.83,62.11 271.88,115.37 383.15,134.02 13.93,2.27 57.45,-72.18 43.46,-74.52 -105.46,-17.6 -227.76,-49 -355.23,-88.88 209.96,-88.16 411.96,-187.9 586.76,-283.03 189.74,-103.33 332.1,-249.94 425.72,-444.99 86.7,-180.48 147.88,-380.16 156.88,-580.67 12.44,-277.84 -80.8,-550.33 -225.39,-784.44 -42.38,-68.53 -89.74,-136.89 -142.21,-200.36 4.53,-17.75 5.12,-34.83 2.09,-50.97 -3.47,-19.06 -11.06,-37.48 -22.36,-53.97 -22.09,-33.64 -57.7,-60.74 -94.21,-80.95 -36.82,-20.1 -74.94,-32.69 -103.46,-39.58 -14.28,-3.51 -26.12,-5.45 -34.3,-6.69 -4.11,-0.41 -7.4,-0.82 -9.49,-0.97 -1.94,-0.08 -3.06,-0.08 -3.06,-0.08 0,0 0.44,0.89 1.23,2.84 1.01,1.95 2.37,4.79 4.19,8.45 3.74,7.29 9.16,17.72 15.91,30.35 13.54,25.08 32.04,58.18 53.93,90.3 10.8,16.36 23.1,31.79 35.72,46.48 6.43,7.29 13.13,14.13 20.26,20.45 6.88,6.5 14.13,12.51 21.68,17.78 15.44,10.46 31.55,18.99 49.67,23.63 13.75,3.4 28.21,4.89 43.77,3.96 100.83,119.26 183.39,257.76 246.17,396.78 80.06,177.04 122.78,370.15 118.19,564.57 -5.05,212.02 -75.75,427.14 -170.8,615.46 -74.03,146.56 -181.74,266.1 -319.47,355.12 -123.29,79.73 -258.51,139.48 -392.79,197.61 -100.72,43.61 -220.23,88.31 -341.37,128.06 -259.55,-86.81 -530.73,-203.9 -718.72,-310.08 -98.22,-55.41 -187.25,-123.37 -260.83,-209.25 -73.46,-85.81 -126.5,-187.51 -169.07,-291.55 -80.73,-197.19 -131.82,-401.35 -119.3,-615.65 14.61,-249.84 112.76,-488.92 249.55,-696.11 35.05,-53.11 73.06,-106.03 114.47,-155.97 14.96,0.68 28.93,-0.66 42.23,-3.99 18.13,-4.67 34.23,-13.21 49.63,-23.58 7.59,-5.32 14.8,-11.37 21.7,-17.81 7.07,-6.34 13.8,-13.22 20.23,-20.47 12.7,-14.75 24.96,-30.16 35.8,-46.49 21.79,-32.14 40.36,-65.33 53.86,-90.37 6.77,-12.56 12.23,-23.03 15.88,-30.35 1.88,-3.66 3.22,-6.45 4.22,-8.44 0.79,-1.8 1.16,-2.77 1.16,-2.77l-3.02 0c-2.14,0.18 -5.28,0.6 -9.39,1.08 -8.26,1.13 -20.2,3.18 -34.37,6.66 -28.52,6.87 -66.68,19.47 -103.38,39.51 -36.51,20.28 -72.17,47.27 -94.22,81.02 -11.36,16.49 -18.99,34.83 -22.39,53.97 -3.03,15.85 -2.42,32.58 1.9,49.93 -96.45,114.71 -176.32,246.78 -238.21,379.12 -76.5,163.54 -122.51,340.42 -129.5,521.09 -7.96,207.43 48.44,406.33 126.44,596.63 62.6,152.96 152.11,292.26 280.25,398.58z"/>
     <path class="fil0" d="M2545.62 3101.33c47.49,-8.12 91.08,-23.36 122.54,-36.86 31.51,-13.48 51.1,-24.78 51.1,-24.78 0,0 -20.04,-8 -50.71,-18.23 -30.84,-10.46 -71.94,-23.48 -115.34,-34.12 -43.43,-10.46 -88.5,-18.24 -130.02,-16.36 -20.89,0.81 -40.59,4.45 -59.76,11.21 -19.22,6.95 -37.11,17.38 -56.81,32.22 12.7,43.27 50.67,70.72 95.34,83.34 44.81,12.93 96.38,11.88 143.66,3.59z"/>
     <path class="fil0" d="M2312.48 2945.84c19.18,-3.67 37.04,-12.67 53.11,-24.6 32.11,-24.26 56.63,-61.14 73.43,-98.96 16.94,-37.83 26.24,-76.76 31.19,-105.78 2.38,-14.54 3.77,-26.68 4.63,-35.06 0.75,-8.51 0.93,-13.41 0.93,-13.41 0,0 -15.06,8.03 -37,21.79 -22.02,13.86 -51.18,33.26 -79.68,56.4 -28.48,23.21 -56.14,50.22 -75.65,81.4 -19.36,31.42 -31.74,67.22 -30.57,112.52 19.77,8.53 40.47,9.49 59.6,5.69z"/>
     <path class="fil0" d="M2865 2780.29c-44.89,1.46 -90.56,4.64 -129.58,16.63 -39.2,12.11 -71.9,32.96 -93.4,71.35 26.88,36.29 65.3,53.03 108.74,55.05 43.35,2.09 91.33,-10.54 135.33,-30.46 44.01,-19.96 83.94,-47.04 112.04,-70.38 14.17,-11.35 25.42,-22.04 33.22,-29.29 7.66,-7.55 11.88,-12.07 11.88,-12.07 0,0 -21.49,-0.42 -55.76,-0.97 -33.3,-0.18 -77.65,-1.16 -122.47,0.15z"/>
     <path class="fil0" d="M2566.47 2801.62c42.68,2.27 77.17,-18.27 101.73,-49.59 24.59,-31.25 39.2,-72.89 45.15,-113.48 6.05,-40.69 4,-79.7 -0.71,-108.12 -2.22,-14.17 -4.6,-25.52 -6.8,-33.71 -2.14,-8.03 -3.56,-12.48 -3.56,-12.48 0,0 -2.69,2.66 -7.13,7.55 -4.74,4.93 -11.36,12.07 -19.07,21 -15.85,17.94 -37.45,42.73 -58.6,71.83 -21.04,29.15 -41.9,62.53 -53.71,99.04 -11.66,36.56 -14.72,76.31 2.69,117.95z"/>
     <path class="fil0" d="M3154.67 2579.29c4.45,-5.42 8.83,-10.95 13.09,-16.41l6.28 -8.41 4.97 -6.68c6.35,-8.83 12.33,-17.61 17.97,-26.2 11.25,-17.13 20.93,-33.54 28.92,-47.66 7.89,-14.2 14.07,-26.16 18.18,-34.56 3.99,-8.53 5.82,-13.72 5.82,-13.72 0,0 -19.89,5.82 -50.64,15.4 -30.53,9.75 -70.75,23.95 -109.81,42.31 -9.8,4.63 -19.44,9.42 -29.05,14.75 -10.27,5.83 -20.36,11.7 -30,17.68 -9.75,5.95 -19.39,11.7 -28.41,17.94 -9,6.08 -18.01,12.03 -25.96,18.61 -32.93,25.64 -57.29,55.14 -67.39,98.56 36.14,27.1 78.49,31.74 122.09,17.67 43.58,-13.71 87.99,-46.48 123.93,-89.28z"/>
     <path class="fil0" d="M2893.07 2398.04c-11.32,-40.26 -27.73,-76.62 -41.37,-102.6 -6.87,-13.09 -12.78,-23.4 -17.72,-30.79 -4.67,-7.3 -7.58,-11.37 -7.58,-11.37 0,0 -1.61,4.01 -4.3,11.15 -2.98,7.14 -7.37,17.3 -12.04,29.86 -4.64,12.52 -9.71,27.43 -14.35,43.99 -4.45,16.07 -9.45,36.56 -10.72,48.73 -3.86,28.78 -8.56,63.05 -6.58,99.34 2.34,36.11 11.5,74.36 40.01,109.28 41.07,-9.54 68.02,-40.22 79.61,-77.7 2.73,-9.42 5.12,-19.07 6.08,-29 0.83,-10.14 1.27,-20.11 0.64,-30.19 -0.82,-10.14 -2.24,-20.11 -4.26,-29.79 -2.09,-10.4 -4.63,-20.78 -7.44,-30.9z"/>
     <path class="fil0" d="M3348.72 2083.29c2.32,-9.34 3.19,-14.8 3.19,-14.8 0,0 -18.13,9.69 -47.1,25.19 -28.25,15.59 -65.25,37.26 -100.31,62.43 -36.29,24.77 -72.06,52.84 -95.3,85.09 -5.56,8.19 -11.51,16.22 -16.25,24.74 -4.74,8.45 -8.71,17.27 -11.51,26.39 -5.8,18.31 -7.3,38.04 -3.67,59.72 43.2,12.43 83,2.84 118.82,-20.1 8.96,-5.69 17.6,-12.26 26,-19.33 8.33,-7.17 16.78,-14.88 23.84,-23.55 14.63,-17.04 27.96,-36.1 39.92,-55.53 24.88,-38.53 39.9,-80.62 50.59,-112.01 5.32,-15.8 9.28,-28.97 11.78,-38.24z"/>
     <path class="fil0" d="M2974.49 2316.3c17.24,-12.06 29.61,-27.2 38.06,-44.17 4.26,-8.41 7.4,-17.46 9.75,-26.61 2.29,-9.27 3.96,-18.76 3.93,-28.73 0.18,-39.7 -11.25,-81.4 -28.82,-118.45 -18.65,-37.33 -41.6,-69.48 -59.95,-91.9 -9.16,-11.33 -16.93,-20.18 -23.17,-26.35 -6.09,-6.09 -9.62,-9.42 -9.62,-9.42 0,0 -0.92,4.11 -2.08,11.36 -1.53,7.21 -3.89,17.6 -6.09,30.35 -4.67,25.41 -6.99,60.16 -9.34,97.24 -0.69,18.5 0,37.91 2.42,57.21 0.79,4.91 1.5,9.69 2.21,14.47 0.6,4.79 1.31,9.49 2.16,14.2 1.72,9.49 4.08,18.91 7.07,28 11.92,36.55 34.27,70.22 73.46,92.79z"/>
     <path class="fil0" d="M3252.37 1810.54c-7.28,8.04 -14.42,16.33 -21.33,24.78 -6.73,8.49 -13.54,17.01 -20.41,25.57 -13.27,17.27 -24.74,34.98 -33.04,53.08 -4.21,9.08 -7.37,18.27 -10.16,27.5 -3.06,9.27 -5.16,18.54 -6.24,28.03 -2.13,18.98 0.03,38.57 7.73,59.08 44.85,4.16 82.11,-12.93 112.98,-42.94 7.7,-7.32 15.04,-15.58 21.91,-24.44 6.66,-8.93 12.29,-18.49 17.9,-28.47 11.03,-20 20.37,-41.68 28.34,-63.58 4.26,-10.88 6.95,-22.02 9.6,-32.98 2.55,-10.94 4.87,-21.75 6.88,-32.13 3.85,-21 7.25,-40.52 8.46,-57.45 1.97,-33.71 1.34,-55.95 1.34,-55.95 0,0 -16.45,13.8 -39.7,35.88 -22.42,22.02 -54.86,51.61 -84.24,84.02z"/>
     <path class="fil0" d="M3090.79 1954.41c2.55,-9 4,-18.27 4.48,-27.69 0.26,-9.49 -1.05,-19.13 -2.84,-28.81 -3.69,-19.21 -10.5,-38.24 -19.39,-56.56 -2.25,-4.55 -4.61,-9.03 -7.03,-13.48 -2.66,-4.49 -5.61,-8.78 -8.53,-13.09 -5.87,-8.74 -12.14,-16.97 -18.5,-25 -12.96,-15.8 -26.61,-30.12 -39.8,-42.61 -6.46,-6.24 -13.27,-11.99 -20.04,-17.27 -6.64,-5.23 -13.04,-10.01 -18.94,-14.31 -23.65,-17.04 -40.33,-26.21 -40.33,-26.21 0,0 -0.18,16.15 2.47,40.83 0.87,6.16 1.16,12.9 1.58,20.06 0.56,7.14 1.27,14.7 2.24,22.66 1.64,15.8 5.38,32.92 8.67,50.56 3.03,17.68 7.48,35.77 13.79,53.63 3.19,8.94 6.77,17.73 10.99,26.47 3.55,8.59 7.58,17.07 12.3,25.26 18.76,32.56 47.27,60.96 90.06,75.72 14.54,-14.99 23.85,-32.06 28.82,-50.15z"/>
     <path class="fil0" d="M3171.04 1581.77c-4.57,19.55 -5.95,38.64 -2.96,57.47 1.39,9.43 4.41,18.58 7.59,27.85 3.18,9.24 7.58,18.36 13.45,27.36 44.41,-6.28 78.79,-31.77 100.02,-68.35 10.91,-18.28 19.51,-39.28 26.16,-61.45 5.98,-22.23 8.9,-45.56 10.95,-68.77 0.87,-11.62 1.64,-23.36 1.72,-34.64 -0.34,-11.22 -0.98,-22.2 -1.72,-32.82 -1.64,-21.26 -3.93,-40.99 -6.43,-57.78 -6.72,-33.03 -13.04,-54.39 -13.04,-54.39 0,0 -12.33,17.61 -29.18,44.86 -8.19,13.33 -17.97,29.21 -28.79,46.79 -10.46,17.52 -21.31,36.32 -31.24,55.64 -9.54,19.1 -19.99,39.17 -28.32,58.98 -8.45,19.96 -14.39,39.7 -18.2,59.24z"/>
     <path class="fil0" d="M3085.7 1576.02c-8.08,-17.6 -20.08,-34.09 -33.45,-49.29 -6.66,-7.55 -13.8,-14.83 -21.23,-21.67 -7.37,-6.89 -15.92,-13.13 -24.11,-19.07 -33.33,-23.76 -66.93,-40.81 -94.85,-50.79 -27.21,-10.24 -45.6,-14.65 -45.6,-14.65 0,0 3.77,15.44 12.7,38.24 3.9,11.48 8.19,25.11 14.33,39.55 2.92,7.2 6.24,14.67 9.9,22.27 3.63,7.62 6.62,15.55 10.58,23.44 7.44,15.72 16.71,31.73 27.29,47.01 9.61,15.47 20.96,30.19 34.34,43.43 27.74,26.2 60.11,46.91 105.13,51.13 5.64,-8.86 9.91,-17.94 12.85,-27.1 2.96,-9.27 3.67,-18.46 3.78,-27.85 0.03,-18.49 -4.3,-36.96 -11.66,-54.63z"/>
     <path class="fil0" d="M3147.06 976c0,0 -7.35,19.54 -17.86,50.08 -10.46,30.61 -22.23,70.56 -33.27,113.17 -5.29,21.26 -9,42.52 -12.21,63.72 -3.33,21.33 -4.79,42.11 -3.25,61.69 0.97,9.64 1.68,19.47 3.59,28.74 1.86,9.42 4.55,18.43 8.32,27.09 3.71,8.54 8.49,16.83 14.47,24.75 5.53,7.88 12.04,15.59 19.95,22.75 20.82,-8.77 37.6,-21.3 50.95,-36.88 13.56,-15.73 21.97,-33.93 28.26,-54.37 3.06,-10.2 5.34,-20.86 6.98,-31.88 1.64,-10.98 2.8,-22.41 2.58,-33.64 -0.07,-22.65 -2.42,-46.07 -6.13,-68.83 -9.01,-44.89 -23.39,-87.64 -37.56,-117.42 -6.8,-15.02 -12.94,-27.45 -17.27,-35.99 -4.67,-8.33 -7.56,-12.97 -7.56,-12.97z"/>
     <path class="fil0" d="M3013.27 1293.01c-4.26,-8.29 -9.11,-16.32 -15.59,-23.54 -12.5,-14.76 -27.68,-27.76 -44.2,-39.14 -16.74,-11.21 -35.96,-20.18 -54.53,-27.65 -9.37,-3.74 -18.68,-7.06 -27.84,-9.9 -9.16,-2.96 -18.76,-5.24 -27.66,-7.25 -18.12,-4.14 -34.76,-6.8 -48.96,-8.59 -14.28,-1.79 -25.93,-2.69 -34.53,-3 -8.51,-0.41 -13.38,-0.34 -13.38,-0.34 0,0 2.05,3.48 5.87,9.57 3.69,6.08 8.71,14.87 15.51,25.07 3.4,5.2 7.22,10.59 11.44,16.49 2.13,2.76 4.29,5.79 6.58,8.78 2.06,3.05 4.26,6.16 6.5,9.42 9.01,12.75 19.66,26.13 31.66,39.28 11.03,13.38 23.62,26.61 37.64,38.64 3.55,3.1 7.24,5.95 10.79,8.93 3.48,2.92 6.99,5.76 10.69,8.59 7.26,5.53 14.99,10.67 23.07,15.25 16.11,9.27 34.42,16.41 53.15,20.63 18.8,4.08 39.35,5.19 61.56,1.39 3.1,-9.82 4.97,-19.65 5.45,-29.29 0,-9.35 -1.16,-18.66 -3.47,-27.51 -2.25,-8.93 -5.57,-17.57 -9.73,-25.84z"/>
     <path class="fil0" d="M2985.13 1070.13c35.92,-27.02 52.58,-64.84 55.23,-107.15 0.98,-20.93 -1.3,-42.94 -5.89,-65.03 -4.87,-21.97 -12.65,-43.43 -21.27,-64.51 -8.82,-20.81 -19.73,-40.03 -30.05,-57.97 -10.35,-17.86 -21.71,-33.11 -31.24,-46.27 -9.49,-13.3 -18.24,-23.46 -24.48,-30.61 -6.24,-6.98 -9.75,-10.95 -9.75,-10.95 0,0 -3.51,20.86 -6.8,52.1 -1.87,15.85 -3.77,34.35 -5.19,54.23 -0.79,9.83 -1.39,20.07 -1.84,30.53 -0.52,10.54 -1.08,21.41 -1.27,32.22 -0.41,43.01 1.46,87.49 13.01,124.83 5.38,18.94 13.38,36.13 24.97,50.89 10.95,15.18 25.34,27.92 44.59,37.67z"/>
     <path class="fil0" d="M2837.5 995.04c-30.85,-22.9 -71.23,-36.59 -111.45,-42.45 -19.74,-3.25 -39.73,-4.38 -58.27,-4.53 -18.43,-0.03 -35.21,0.71 -49.63,2.02 -29.16,2.98 -47.84,6.99 -47.84,6.99 0,0 2.61,3.06 7.7,8.33 4.93,5.27 12.48,12.33 21.23,21.2 8.78,8.85 19.92,18.57 31.88,29.07 11.8,10.61 25.55,21.34 40.01,31.82 14.13,10.64 29.87,20.7 46.36,29.45 16.03,8.95 33.26,16.51 51.42,21.6 35.8,10.45 75.01,12.03 116.61,-6.18 0.96,-20.51 -3.22,-39.19 -11.56,-55.68 -8.77,-15.92 -21.49,-29.94 -36.47,-41.64z"/>
    </g>
    <path class="fil1" d="M465.08 3283.14l49.43 -1.05c-0.35,7.1 0.2,13.76 1.66,19.99 3.29,15.1 10.56,28.05 21.84,38.85 9.6,9.2 18.61,14.28 27.03,15.26 8.42,0.97 15.54,-1.57 21.35,-7.62 5.16,-5.38 6.44,-12.78 3.85,-22.21 -2.59,-9.43 -6.93,-19.64 -13.01,-30.63 -6.08,-11 -11.68,-22.5 -16.8,-34.51 -5.11,-12.02 -7.03,-24.74 -5.74,-38.21 1.28,-13.46 7.4,-25.9 18.37,-37.35 13.88,-14.47 31.46,-21.11 52.74,-19.91 21.3,1.21 41.69,11.15 61.21,29.87 16.49,15.8 27.42,34.03 32.81,54.69 2.15,8.2 3.32,16.92 3.51,26.14l-49.42 1.05c-0.14,-6.26 -0.66,-11.61 -1.58,-16.04 -2.91,-12.47 -8.48,-22.66 -16.72,-30.55 -17.66,-16.94 -32.14,-19.52 -43.43,-7.75 -5.17,5.39 -6.45,12.79 -3.86,22.21 2.59,9.43 6.93,19.64 13.01,30.64 6.08,10.99 11.68,22.5 16.8,34.51 5.11,12.01 7.03,24.74 5.76,38.2 -1.28,13.47 -7.41,25.91 -18.38,37.36 -14.52,15.14 -32.91,22.12 -55.2,20.95 -22.28,-1.18 -43.51,-11.44 -63.7,-30.8 -19.35,-18.55 -32,-39.54 -37.92,-62.99 -2.86,-10.5 -4.07,-20.53 -3.6,-30.09zm257.25 134.36l48.28 34.67 23.32 -82.25 -1.14 -0.82 -70.47 48.41zm-136.83 28.74l219.4 -143.76 48.27 34.65 -66.02 253.86 -45.44 -32.63 15.58 -57.67 -76.68 -55.04 -49.66 33.2 -45.44 -32.62zm226.61 168.56l109.57 -218.83 42.2 21.13 28.08 131.35 121.98 -56.22 42.2 21.13 -109.56 218.84 -46.9 -23.48 72 -143.81 -114.17 52.32 -26.51 -122.76 -72 143.81 -46.9 -23.48zm390.14 68.88l55.42 21.47 1.98 -85.47 -1.31 -0.5 -56.1 64.5zm-125.27 62.08l176.41 -194.12 55.42 21.47 -0.37 262.31 -52.16 -20.2 0.64 -59.74 -88.03 -34.1 -39.77 44.59 -52.16 -20.2zm264.84 95.17l55.04 -238.47 105.61 24.37c25.43,5.87 44.01,17.87 55.74,36.01 11.71,18.13 14.8,39.24 9.25,63.32 -5.39,23.39 -16.49,40.32 -33.26,50.8 -7.1,4.82 -15,8.02 -23.74,9.6l28.96 99.96 -56.21 -12.97 -24.5 -88.17 -47.7 -11 -18.08 78.35 -51.11 -11.79zm80.19 -114.26l52.81 12.19c9.54,2.21 18.01,0.99 25.42,-3.64 7.4,-4.63 12.21,-11.72 14.4,-21.25 2.21,-9.54 0.99,-18.02 -3.64,-25.42 -4.63,-7.41 -11.71,-12.21 -21.25,-14.42l-52.8 -12.19 -14.95 64.72zm160.94 165l29.5 -242.94 52.07 6.32 -12.65 104.12 106.35 -92.74 62.47 7.58 -102.45 89.69 79.91 154.1 -60.74 -7.38 -58.51 -112.76 -35.24 29.18 -8.64 71.14 -52.07 -6.32zm305.17 -80.11l59.4 -1.82 -31.47 -79.49 -1.4 0.05 -26.53 81.27zm-91.19 105.98l86.84 -247.51 59.41 -1.82 101.86 241.72 -55.91 1.71 -22.69 -55.26 -94.34 2.89 -19.25 56.56 -55.92 1.71zm281.17 -11.71l-29.5 -242.95 46.86 -5.69 136.33 136.65 -18.33 -150.97 52.07 -6.32 29.5 242.94 -46.86 5.69 -136.33 -136.65 18.33 150.98 -52.07 6.32zm277.76 -44.74l-66.03 -235.65 85.84 -24.06c35.92,-10.07 68.82,-7.06 98.74,9 29.92,16.07 49.53,40.7 58.85,73.93 9.3,33.21 5.35,64.45 -11.86,93.72 -17.22,29.27 -43.78,48.93 -79.69,59l-85.84 24.06zm37.29 -61.29l35.35 -9.9c20.87,-5.85 36.26,-17.42 46.19,-34.72 9.91,-17.31 12.04,-36.06 6.37,-56.25 -5.65,-20.2 -17.22,-35.12 -34.68,-44.74 -17.47,-9.63 -36.64,-11.52 -57.51,-5.66l-35.35 9.9 39.62 141.39zm307.43 -109.06l95.72 -42.88 20 44.67 -157.93 70.75c-6.39,-14.26 -10.18,-28.13 -11.37,-41.65 -1.21,-13.5 -0.39,-25.54 2.4,-36.12 2.79,-10.58 6.64,-20.8 11.56,-30.66 4.9,-9.85 10.11,-19.02 15.64,-27.5 5.53,-8.48 10.41,-16.41 14.63,-23.79 4.22,-7.39 7.07,-14.85 8.54,-22.41 1.48,-7.55 0.73,-14.63 -2.22,-21.22 -3.72,-8.3 -9.78,-13.82 -18.15,-16.58 -8.39,-2.76 -17.27,-2.04 -26.62,2.15 -11.27,5.06 -19,14.01 -23.2,26.87 -1.93,5.97 -2.91,11.77 -2.94,17.4l-46.86 -1.99c-0.23,-11.9 1.41,-23.1 4.88,-33.6 8.47,-24.99 25.58,-43.25 51.31,-54.78 23.4,-10.49 45.25,-12.29 65.57,-5.43 20.32,6.87 34.99,20.4 44.05,40.61 5.34,11.9 7.68,23.7 7.03,35.35 -0.65,11.66 -3.45,22.55 -8.36,32.66 -4.92,10.12 -10.28,19.8 -16.11,29.05 -5.82,9.25 -11.53,19.16 -17.14,29.71 -5.62,10.56 -9.09,20.35 -10.41,29.37zm172.7 -105.69c15.92,6.82 30.04,6.68 42.35,-0.44 12.31,-7.11 19.49,-19.26 21.53,-36.46 2.05,-17.2 -3.11,-36.49 -15.46,-57.89 -12.35,-21.4 -26.5,-35.5 -42.41,-42.32 -15.91,-6.81 -30.03,-6.67 -42.35,0.44 -12.31,7.11 -19.48,19.26 -21.53,36.46 -2.05,17.2 3.11,36.49 15.47,57.89 12.35,21.4 26.49,35.5 42.4,42.32zm113.59 -25.63c-5.95,30.48 -21.53,53.01 -46.76,67.58 -25.23,14.57 -52.54,16.81 -81.91,6.72 -29.37,-10.08 -53.62,-31.67 -72.74,-64.77 -19.11,-33.1 -25.7,-64.89 -19.75,-95.38 5.95,-30.48 21.53,-53.01 46.76,-67.58 25.23,-14.56 52.53,-16.81 81.9,-6.72 29.38,10.08 53.62,31.67 72.74,64.77 19.11,33.1 25.7,64.89 19.77,95.38zm86.73 -88.72l82.86 -64.31 30.01 38.67 -136.72 106.09c-9.57,-12.33 -16.54,-24.92 -20.9,-37.76 -4.36,-12.85 -6.43,-24.74 -6.22,-35.68 0.21,-10.92 1.54,-21.77 3.98,-32.5 2.43,-10.74 5.34,-20.89 8.69,-30.43 3.37,-9.54 6.23,-18.4 8.59,-26.58 2.35,-8.17 3.36,-16.09 3,-23.79 -0.36,-7.68 -2.75,-14.38 -7.19,-20.09 -5.57,-7.19 -12.76,-11.12 -21.56,-11.81 -8.8,-0.7 -17.25,2.11 -25.35,8.39 -9.76,7.57 -15.16,18.1 -16.2,31.59 -0.46,6.26 -0.03,12.13 1.27,17.6l-46.01 9.14c-3.04,-11.51 -4.11,-22.77 -3.22,-33.79 2.32,-26.29 14.62,-48.08 36.91,-65.37 20.25,-15.71 41.06,-22.65 62.42,-20.78 21.36,1.86 38.83,11.54 52.4,29.03 8.01,10.32 13.06,21.21 15.19,32.68 2.12,11.49 1.99,22.73 -0.39,33.72 -2.39,10.99 -5.3,21.67 -8.77,32.03 -3.47,10.36 -6.68,21.34 -9.64,32.92 -2.95,11.59 -4.01,21.93 -3.15,31.01zm93.88 -63.06l-38.7 -40.39 -23.39 -178.53 44.18 -42.33 105.21 109.82 20.19 -19.35 33.87 35.34 -20.19 19.35 30.24 31.55 -37.87 36.29 -30.23 -31.56 -83.31 79.82zm5.27 -72.83l44.17 -42.32 -58.05 -60.58 13.88 102.9z"/>
    <path class="fil1" d="M523.79 2184.2c-30.57,44.37 -33.96,97.67 -29.2,152.83 7.44,86.18 23.02,172.36 41.9,258.51 17.63,80.46 45.95,159.19 79.09,236.42 214.43,499.68 1203.37,738.03 1193.19,705.42 -41.93,-134.38 -79.53,-248.51 -138.74,-345.09 -59.21,-96.59 -140.03,-175.61 -268.41,-239.83 -129.13,-64.59 -241.02,-150.68 -325.96,-269.19 -17.49,-24.41 -36.71,-47.79 -55.34,-71.52 -9.79,-12.47 -21.16,-23.53 -34.55,-32.32 -41.37,-27.16 -73.16,-14.18 -73.23,30.73 -0.07,36.66 10.12,72.69 27.65,107.77 20.1,40.26 41.76,79.83 66.63,118.12 16.99,26.18 33.61,52.79 41.6,82.26 9,33.22 -3.55,46.06 -38.04,36.55 -59.97,-16.56 -111,-52.22 -158.81,-92.51 -62.34,-52.53 -104.2,-117.84 -134.45,-189.48 -32.45,-76.8 -50.48,-155.46 -65.64,-234.47 -8.84,-46.12 -17.72,-92.23 -26.87,-138.32 -4.36,-21.95 -12.28,-43.4 -21.5,-64.48 -10.54,-24.09 -25.89,-44.79 -51.12,-57.36l-28.19 5.95zm2729.94 0c30.58,44.37 33.97,97.67 29.2,152.83 -7.43,86.18 -23.02,172.36 -41.9,258.51 -17.63,80.46 -45.95,159.19 -79.08,236.42 -233.66,544.47 -1201.91,733.33 -1193.2,705.42 41.94,-134.39 79.53,-248.51 138.74,-345.09 59.21,-96.57 140.03,-175.61 268.41,-239.83 129.14,-64.59 241.03,-150.68 325.96,-269.19 17.5,-24.41 36.73,-47.79 55.34,-71.52 9.79,-12.47 21.16,-23.53 34.56,-32.32 41.37,-27.15 73.16,-14.18 73.23,30.73 0.06,36.66 -10.12,72.69 -27.65,107.77 -20.1,40.26 -41.76,79.83 -66.63,118.12 -16.99,26.18 -33.62,52.79 -41.6,82.26 -9.01,33.22 3.55,46.06 38.03,36.55 59.98,-16.56 111.01,-52.22 158.81,-92.51 62.34,-52.53 104.2,-117.84 134.46,-189.48 32.44,-76.8 50.48,-155.46 65.63,-234.47 8.85,-46.12 17.72,-92.23 26.87,-138.32 4.36,-21.95 12.29,-43.4 21.5,-64.48 10.54,-24.09 25.89,-44.79 51.12,-57.36l28.19 5.95z"/>
    <path class="fil1" d="M366.63 2817.81l-22.19 -38.66 -41.48 48.89 0.53 0.91 63.14 -11.14zm102.33 22.92l-194.44 29.94 -22.18 -38.66 123.97 -152.75 20.88 36.39 -28.56 34.53 35.23 61.4 44.22 -7.23 20.88 36.39zm-112 -200.22l-133.69 60.71 21.68 47.75 -33.43 15.18 -59.63 -131.32 33.43 -15.17 21.69 47.74 133.69 -60.71 16.26 35.81zm-190.74 -105.01c14.53,7.15 29.56,8.09 45.13,2.79 15.55,-5.29 26.91,-15.2 34.06,-29.73 7.15,-14.53 8.09,-29.56 2.79,-45.12 -5.29,-15.56 -15.2,-26.92 -29.73,-34.07 -14.53,-7.15 -29.57,-8.08 -45.13,-2.79 -15.55,5.29 -26.91,15.2 -34.06,29.73 -7.15,14.53 -8.09,29.57 -2.79,45.13 5.29,15.55 15.2,26.91 29.73,34.06zm113.01 -7.7c-11.53,24.15 -29.8,40.48 -54.79,48.98 -24.99,8.49 -49.42,6.7 -73.29,-5.39 -23.88,-12.11 -40.34,-31.47 -49.41,-58.11 -9.07,-26.65 -7.83,-52.04 3.72,-76.19 11.54,-24.15 29.81,-40.47 54.8,-48.97 24.99,-8.5 49.42,-6.7 73.29,5.39 23.86,12.1 40.34,31.47 49.41,58.11 9.05,26.64 7.82,52.03 -3.73,76.18zm-45.09 -202.81l-180.78 31.76 -6.12 -34.86 66.58 -75.59 -88.36 -48.37 -6.13 -34.87 180.78 -31.76 6.8 38.74 -118.79 20.87 82.52 45.4 -62.11 70.82 118.81 -20.87 6.8 38.73zm-47.35 -295.26l-183.5 4.14 -3.05 -135 36.69 -0.83 2.17 95.68 43.25 -0.98 -1.69 -74.71 36.7 -0.82 1.69 74.7 66.84 -1.51 0.89 39.33zm-135.87 -218.71c10.55,12.29 24.01,19.04 40.4,20.29 16.39,1.24 30.72,-3.41 43.01,-13.95 12.28,-10.55 19.04,-24.02 20.29,-40.41 1.24,-16.38 -3.41,-30.71 -13.97,-43 -10.54,-12.29 -24.01,-19.04 -40.4,-20.29 -16.39,-1.24 -30.71,3.41 -43,13.95 -12.29,10.55 -19.06,24.02 -20.29,40.41 -1.25,16.38 3.4,30.71 13.95,43zm106.95 37.31c-20.09,17.67 -43.3,25.51 -69.62,23.5 -26.32,-1.99 -48.08,-13.26 -65.28,-33.75 -17.21,-20.51 -24.74,-44.79 -22.6,-72.86 2.13,-28.05 13.24,-50.93 33.35,-68.59 20.1,-17.67 43.31,-25.51 69.63,-23.5 26.32,1.99 48.08,13.24 65.28,33.75 17.2,20.5 24.73,44.79 22.6,72.86 -2.13,28.05 -13.26,50.92 -33.36,68.59zm42.72 -203.26l-180.78 -31.76 14.07 -80.05c3.39,-19.29 11.63,-33.67 24.75,-43.18 13.11,-9.49 28.8,-12.65 47.05,-9.44 17.73,3.12 30.85,10.74 39.36,22.88 3.9,5.12 6.61,10.92 8.13,17.41l73.72 -25.66 -7.49 42.62 -65.06 21.84 -6.35 36.16 59.4 10.43 -6.8 38.74zm-88.76 -55.52l7.04 -40.04c1.27,-7.23 0.02,-13.53 -3.74,-18.89 -3.76,-5.36 -9.26,-8.68 -16.49,-9.96 -7.23,-1.27 -13.53,-0.02 -18.89,3.74 -5.37,3.76 -8.68,9.26 -9.96,16.49l-7.04 40.03 49.07 8.63zm109.6 -169.42l-16.61 -33.16c4.92,-2.05 9.26,-4.57 13.01,-7.56 9.18,-7.08 15.61,-16.18 19.3,-27.3 3.14,-9.45 3.69,-17.19 1.64,-23.21 -2.05,-6.03 -6.06,-10.03 -12.03,-12.02 -5.32,-1.77 -10.74,-0.26 -16.3,4.53 -5.55,4.79 -11.07,11.01 -16.57,18.67 -5.5,7.66 -11.49,15.16 -17.97,22.48 -6.5,7.33 -14.51,12.73 -24.04,16.18 -9.53,3.47 -19.93,3.32 -31.21,-0.43 -14.27,-4.74 -24.42,-14.52 -30.45,-29.34 -6.04,-14.8 -5.86,-31.83 0.54,-51.07 5.41,-16.25 14.24,-29.53 26.5,-39.81 4.87,-4.1 10.4,-7.69 16.58,-10.79l16.61 33.14c-4.2,2.11 -7.66,4.18 -10.36,6.23 -7.51,5.98 -12.62,13.03 -15.33,21.16 -5.79,17.41 -2.88,28.05 8.73,31.92 5.3,1.76 10.74,0.25 16.3,-4.54 5.55,-4.79 11.07,-11 16.57,-18.66 5.5,-7.66 11.49,-15.16 17.97,-22.49 6.5,-7.32 14.51,-12.72 24.03,-16.18 9.54,-3.46 19.95,-3.31 31.22,0.44 14.93,4.97 25.58,15.18 31.95,30.66 6.36,15.47 6.24,33.16 -0.38,53.07 -6.34,19.08 -16.5,34.39 -30.48,45.96 -6.19,5.3 -12.6,9.35 -19.22,12.12zm8.35 -185.22l-97.97 -44.28 16.2 -35.84 97.97 44.27c11.79,5.33 22.85,6.21 33.19,2.64 10.35,-3.57 18.01,-10.86 22.98,-21.85 4.97,-10.99 5.37,-21.54 1.22,-31.67 -4.14,-10.12 -12.12,-17.85 -23.9,-23.19l-97.97 -44.27 16.2 -35.84 97.97 44.27c21.5,9.72 35.96,24.41 43.38,44.07 7.42,19.66 6.27,40.24 -3.45,61.75 -9.72,21.5 -24.41,35.96 -44.07,43.38 -19.66,7.42 -40.24,6.27 -61.74,-3.45zm126.95 -150.94l-9.75 -35.77c5.23,-1.05 9.97,-2.66 14.25,-4.85 10.38,-5.14 18.48,-12.78 24.29,-22.95 4.94,-8.65 7.01,-16.13 6.18,-22.45 -0.82,-6.31 -3.96,-11.03 -9.44,-14.15 -4.85,-2.77 -10.47,-2.37 -16.86,1.24 -6.39,3.59 -13.02,8.62 -19.92,15.04 -6.89,6.43 -14.25,12.6 -22.05,18.5 -7.8,5.91 -16.72,9.62 -26.75,11.14 -10.02,1.52 -20.2,-0.68 -30.52,-6.58 -13.05,-7.46 -21.08,-19.03 -24.08,-34.74 -3.01,-15.71 0.53,-32.37 10.59,-49.97 8.5,-14.88 19.78,-26.15 33.83,-33.82 5.56,-3.06 11.69,-5.5 18.37,-7.32l9.75 35.78c-4.53,1.23 -8.32,2.59 -11.37,4.07 -8.55,4.37 -14.95,10.28 -19.19,17.72 -9.11,15.94 -8.36,26.94 2.27,33.01 4.85,2.78 10.47,2.37 16.86,-1.23 6.39,-3.6 13.02,-8.62 19.92,-15.05 6.89,-6.42 14.25,-12.59 22.05,-18.5 7.8,-5.9 16.72,-9.62 26.75,-11.13 10.03,-1.52 20.2,0.66 30.52,6.57 13.66,7.8 22.09,19.92 25.28,36.34 3.2,16.43 -0.41,33.75 -10.81,51.95 -9.98,17.46 -22.95,30.48 -38.93,39.06 -7.12,4 -14.19,6.69 -21.24,8.1zm125.97 -158.84l-119.85 -84.84 -30.3 42.81 -29.97 -21.21 83.33 -117.71 29.96 21.21 -30.3 42.81 119.84 84.84 -22.72 32.1zm33.56 -173.18l29.15 -33.72 -59.86 -22.98 -0.69 0.8 31.4 55.89zm12.23 104.14l-92.58 -173.57 29.15 -33.73 185.16 66.45 -27.43 31.75 -42.03 -15.53 -46.29 53.56 21.45 39.34 -27.43 31.74zm140.34 -157.59l-132.61 -126.9 27.2 -28.41 132.6 126.9 -27.19 28.41zm61.53 -60.86l-120.08 -138.82 26.77 -23.17 142.05 27.95 -74.62 -86.27 29.74 -25.73 120.08 138.82 -26.77 23.17 -142.05 -27.95 74.62 86.27 -29.74 25.73zm161.68 -226.33l37.58 -23.98 -50.79 -39.14 -0.88 0.56 14.09 62.55zm-18.08 103.29l-39.05 -192.81 37.58 -23.98 158.4 116.65 -35.36 22.57 -35.83 -26.91 -59.69 38.08 9.3 43.82 -35.36 22.57zm178.74 -112.32l-84.07 -163.16 68.76 -35.43c15.85,-8.17 30.69,-10.55 44.53,-7.17 13.84,3.39 23.89,11.15 30.13,23.27 5.45,10.56 6.28,21.34 2.51,32.33 -1.89,5.1 -4.3,9.39 -7.23,12.87 6.24,-1.25 12.65,-1.21 19.24,0.12 14.49,3.33 24.99,11.3 31.48,23.89 6.72,13.05 7.32,26.7 1.79,40.96 -5.53,14.26 -16.77,25.76 -33.71,34.49l-73.42 37.83zm19.35 -48.32l36.13 -18.62c6.84,-3.53 11.32,-8.1 13.44,-13.71 2.12,-5.62 1.62,-11.45 -1.51,-17.52 -3.12,-6.06 -7.58,-9.85 -13.38,-11.39 -5.81,-1.53 -12.13,-0.53 -18.97,3l-36.13 18.62 20.42 39.62zm-36.03 -69.93l31.46 -16.22c5.76,-2.96 9.52,-6.81 11.3,-11.57 1.78,-4.75 1.43,-9.54 -1.05,-14.36 -2.49,-4.81 -6.18,-7.87 -11.08,-9.18 -4.9,-1.32 -10.23,-0.48 -15.98,2.48l-31.46 16.22 16.81 32.63zm178.82 38.02l-66.86 -170.93 36.62 -14.33 53.5 136.75 79.37 -31.05 13.37 34.18 -115.99 45.38zm143.4 -54.53l-50.43 -176.48 131.1 -37.47 10.09 35.3 -93.29 26.66 9.72 34.03 73.11 -20.89 9.73 34.03 -73.11 20.89 10.81 37.82 95.8 -27.38 10.09 35.3 -133.63 38.19zm222.23 -57.22l-23.63 -182.02 66.31 -8.62c27.74,-3.59 51.84,2.17 72.31,17.32 20.47,15.15 32.38,35.54 35.71,61.2 3.32,25.66 -2.97,48.43 -18.9,68.29 -15.94,19.87 -37.76,31.61 -65.5,35.21l-66.31 8.62zm34.28 -41.47l27.3 -3.55c16.13,-2.09 28.8,-9.03 38.02,-20.8 9.22,-11.77 12.83,-25.46 10.8,-41.06 -2.03,-15.6 -9,-27.92 -20.93,-36.95 -11.93,-9.02 -25.95,-12.49 -42.08,-10.4l-27.3 3.55 14.18 109.21zm163.63 18.01l-4.12 -183.5 136.31 -3.07 0.82 36.7 -96.99 2.18 0.8 35.39 76.02 -1.71 0.8 35.39 -76.02 1.71 0.88 39.33 99.61 -2.24 0.83 36.69 -138.94 3.13zm222.76 1.35l-54.07 -188.18 41.84 3.19 37.62 138.28 1.04 0.08 58.08 -131.01 41.84 3.18 -81.89 177.85 -44.45 -3.38zm139.52 14.42l31.75 -180.78 134.3 23.59 -6.35 36.15 -95.56 -16.79 -6.13 34.87 74.89 13.15 -6.13 34.87 -74.88 -13.15 -6.81 38.74 98.14 17.23 -6.35 36.16 -136.87 -24.04zm170.92 34.21l50.44 -176.48 37.82 10.81 -40.35 141.18 81.93 23.41 -10.08 35.3 -119.76 -34.23zm229.4 -67.13c-14.87,6.41 -25.34,17.24 -31.41,32.51 -6.07,15.27 -5.91,30.34 0.5,45.21 6.41,14.88 17.25,25.34 32.51,31.42 15.27,6.07 30.34,5.9 45.22,-0.51 14.87,-6.41 25.34,-17.24 31.41,-32.51 6.07,-15.27 5.9,-30.34 -0.51,-45.21 -6.41,-14.87 -17.24,-25.34 -32.51,-31.42 -15.27,-6.07 -30.34,-5.9 -45.21,0.51zm-67.49 90.97c-10.88,-24.45 -11.44,-48.95 -1.69,-73.47 9.76,-24.52 26.98,-41.94 51.68,-52.25 24.7,-10.3 50.13,-10.26 76.28,0.15 26.15,10.4 44.67,27.83 55.53,52.28 10.88,24.45 11.43,48.95 1.68,73.47 -9.75,24.52 -26.98,41.94 -51.68,52.25 -24.7,10.3 -50.12,10.26 -76.27,-0.15 -26.15,-10.4 -44.67,-27.83 -55.53,-52.28zm180.88 102.62l91.08 -159.35 67.16 38.38c16.85,9.63 27.68,22.46 32.5,38.51 4.82,16.05 2.77,31.88 -6.17,47.52 -8.93,15.63 -21.53,25.44 -37.81,29.43 -16.27,3.99 -32.83,1.17 -49.68,-8.46l-33.01 -18.86 -29.92 52.36 -34.15 -19.52zm82.28 -64.71l31.87 18.21c6.84,3.91 13.48,5.05 19.96,3.4 6.48,-1.63 11.53,-5.64 15.17,-12.02 3.65,-6.37 4.53,-12.76 2.66,-19.17 -1.88,-6.41 -6.23,-11.57 -13.06,-15.46l-31.86 -18.22 -24.73 43.26zm72.38 153.58l106.05 -149.81 28.9 20.45 5.91 100.56 96.81 -27.85 28.89 20.45 -106.05 149.81 -32.1 -22.72 69.69 -98.45 -90.57 25.84 -5.74 -94.01 -69.68 98.44 -32.11 -22.72zm195.46 145.84l126.48 -133.02 98.82 93.96 -25.31 26.6 -70.3 -66.85 -24.39 25.66 55.11 52.39 -24.39 25.66 -55.11 -52.4 -27.11 28.5 72.21 68.67 -25.3 26.6 -100.71 -95.76zm125.7 120.92l138.82 -120.08 23.16 26.77 -27.94 142.04 86.27 -74.61 25.72 29.74 -138.82 120.08 -23.16 -26.77 27.94 -142.05 -86.27 74.62 -25.72 -29.74zm153.9 190.63l119.72 -85.02 -30.36 -42.76 29.92 -21.25 83.51 117.58 -29.94 21.25 -30.36 -42.75 -119.72 85.03 -22.77 -32.07zm207.32 238.92l-11.3 35.32c-8.39,-1.78 -16.83,-4.8 -25.33,-9.08 -19.04,-10.24 -33.49,-24.92 -43.34,-44.04 -12.9,-25.01 -15.41,-50.32 -7.55,-75.9 7.85,-25.59 23.52,-44.42 46.99,-56.51 23.46,-12.08 47.89,-13.91 73.28,-5.46 25.4,8.45 44.54,25.18 57.43,50.2 9.85,19.11 13.26,39.09 10.23,59.93 -1.3,8.92 -3.77,17.48 -7.42,25.66l-35.32 -11.31c2.43,-5.18 4.28,-11.15 5.52,-17.88 2.49,-14.26 0.61,-27.46 -5.63,-39.58 -7.53,-14.61 -19,-24.37 -34.43,-29.3 -15.42,-4.93 -30.43,-3.64 -45.04,3.89 -14.61,7.52 -24.38,19 -29.32,34.43 -4.93,15.42 -3.64,30.43 3.89,45.04 6.33,12.28 16.18,21.85 29.55,28.73 6.3,3.05 12.22,5.01 17.78,5.88zm108.32 67.08c-14.83,-6.49 -29.9,-6.75 -45.21,-0.75 -15.31,5.98 -26.2,16.4 -32.69,31.23 -6.49,14.83 -6.75,29.9 -0.75,45.21 5.98,15.31 16.4,26.2 31.23,32.69 14.83,6.49 29.9,6.73 45.21,0.75 15.31,-5.99 26.2,-16.4 32.69,-31.23 6.49,-14.83 6.73,-29.9 0.75,-45.21 -5.99,-15.31 -16.4,-26.2 -31.23,-32.69zm-112.56 12.78c10.44,-24.64 27.96,-41.77 52.54,-51.39 24.59,-9.62 49.07,-8.92 73.46,2.09 24.39,11.01 41.72,29.62 51.96,55.83 10.26,26.22 10.16,51.64 -0.28,76.28 -10.45,24.64 -27.96,41.77 -52.55,51.39 -24.57,9.61 -49.06,8.91 -73.45,-2.09 -24.39,-11.01 -41.72,-29.63 -51.98,-55.84 -10.25,-26.21 -10.15,-51.64 0.29,-76.27zm46.12 203l178.88 -41.11 7.93 34.51 -91.19 112.42 111.16 -25.54 8.81 38.34 -178.88 41.11 -7.93 -34.5 91.19 -112.43 -111.16 25.54 -8.81 -38.34zm42.14 206.74l182.02 -23.63 17.38 133.91 -36.4 4.73 -12.32 -94.91 -42.9 5.56 9.62 74.11 -36.41 4.73 -9.62 -74.11 -66.3 8.6 -5.07 -39zm16.66 166.92l183.5 -4.13 3.07 136.31 -36.7 0.83 -2.18 -96.99 -35.39 0.79 1.71 76.03 -35.39 0.79 -1.71 -76.02 -39.33 0.89 2.24 99.61 -36.69 0.82 -3.13 -138.93zm-0.23 174.32l183.02 13.91 -6.16 81.05c-1.49,19.52 -8.29,34.64 -20.41,45.39 -12.13,10.73 -27.42,15.41 -45.9,14 -17.95,-1.36 -31.76,-7.67 -41.42,-18.92 -4.38,-4.72 -7.64,-10.23 -9.79,-16.53l-70.86 32.75 3.28 -43.13 62.62 -28.12 2.78 -36.6 -60.14 -4.57 2.98 -39.22zm93.76 46.57l-3.07 40.52c-0.56,7.33 1.3,13.47 5.56,18.45 4.27,4.97 10.06,7.73 17.39,8.29 7.32,0.55 13.46,-1.31 18.44,-5.57 4.97,-4.27 7.73,-10.06 8.28,-17.38l3.09 -40.53 -49.68 -3.77zm-113.67 137.12l180.77 31.76 -23.58 134.29 -36.16 -6.35 16.79 -95.55 -34.87 -6.13 -13.15 74.89 -34.87 -6.13 13.15 -74.89 -38.73 -6.8 -17.24 98.13 -36.15 -6.35 24.04 -136.87zm-33.79 171.23l174.17 57.92 -11.17 33.6 -136.36 48.6 108.23 35.99 -12.41 37.32 -174.17 -57.92 11.17 -33.58 136.36 -48.61 -108.23 -35.99 12.41 -37.32zm-73.05 351.6l-34.69 13.1c-3.82,-7.67 -6.7,-16.17 -8.63,-25.49 -3.81,-21.29 -1.28,-41.73 7.57,-61.31 11.6,-25.64 29.86,-43.34 54.78,-53.08 24.93,-9.74 49.42,-9.18 73.47,1.7 24.06,10.87 40.66,28.88 49.82,54.03 9.16,25.14 7.94,50.53 -3.65,76.19 -8.85,19.59 -22.39,34.67 -40.59,45.24 -7.8,4.53 -16.05,7.91 -24.72,10.12l-13.1 -34.7c5.59,-1.31 11.41,-3.57 17.46,-6.78 12.72,-6.92 21.88,-16.59 27.5,-29.01 6.77,-14.97 7.29,-30.04 1.58,-45.18 -5.72,-15.15 -16.07,-26.11 -31.04,-32.87 -14.98,-6.77 -30.04,-7.29 -45.18,-1.58 -15.15,5.72 -26.11,16.07 -32.87,31.04 -5.69,12.59 -7.07,26.25 -4.14,41.01 1.52,6.82 3.66,12.68 6.43,17.58zm-81.1 23.61l159.36 91.08 -67.66 118.38 -31.87 -18.21 48.15 -84.23 -30.73 -17.57 -37.73 66.02 -30.73 -17.57 37.73 -66.01 -34.15 -19.52 -49.44 86.51 -31.87 -18.22 68.96 -120.65z"/>
    <g>
     <path class="fil2" d="M1888.78 669.9l-290.37 150.25c-148.36,76.76 -237.97,255.64 -237.97,422.68l0 188.64c7.71,-0.35 15.54,-0.55 23.48,-0.62l0 -137.69c0,-159.63 85.62,-330.54 227.4,-403.9l277.47 -143.57 277.46 143.57c141.78,73.36 227.39,244.28 227.39,403.9l0 137.69c7.95,0.07 15.78,0.27 23.48,0.62l0 -188.64c0,-167.06 -89.6,-345.91 -237.96,-422.68l-290.36 -150.25z"/>
     <path class="fil2" d="M1888.78 441.08l-350.98 181.62c-179.31,92.78 -287.62,308.98 -287.62,510.88l0 330.52c9.14,-2.6 18.62,-4.91 28.38,-6.92l0 -262.77c0,-192.95 103.48,-399.51 274.84,-488.17l335.37 -173.54 335.37 173.54c171.36,88.67 274.83,295.25 274.83,488.17l0 262.77c9.76,2.02 19.22,4.31 28.38,6.92l0 -330.52c0,-201.93 -108.31,-418.1 -287.63,-510.88l-350.95 -181.62zm-638.59 1693.73l0 13.6c1.96,-2.27 3.92,-4.54 5.9,-6.8 -1.98,-2.26 -3.94,-4.54 -5.9,-6.8zm1277.17 13.6l0 -13.6c-1.96,2.26 -3.92,4.53 -5.91,6.8 1.99,2.26 3.95,4.53 5.91,6.8z"/>
    </g>
   </g>
   <g>
    <path class="fil3" d="M2049.49 2230.82c442.64,-255.56 729.54,-587.35 640.78,-741.07 -75.57,-130.9 -399.17,-90.44 -766.89,82.25l62.54 32.23c304.67,-140.79 557.81,-185.56 609.61,-95.84 64.4,111.55 -206.8,388.69 -605.74,619.02 -88.06,50.85 -174.99,95.15 -257.68,132.13l16.74 119.83c96.87,-39.78 198.44,-89.55 300.65,-148.55zm-529.12 -423.4c-38.78,27.63 -75.57,55.6 -110.2,83.64l41.13 35.96c22.76,-17.66 46.56,-35.4 71.27,-53.12l-2.2 -66.48zm-223.24 182.79c-177.38,169.53 -264.24,330.75 -209.8,425.02 53.83,93.25 233.57,99.54 465.44,33l-22.28 -110.12c-195.42,63.65 -341.66,70.18 -379.64,4.39 -37.64,-65.19 39.37,-186.92 189.49,-322.82l-43.2 -29.46z"/>
    <path class="fil3" d="M1567.4 1952.48c0,-113.05 7.05,-221.35 19.93,-321.48l113.07 40.23c-8.8,87.87 -13.6,182.55 -13.6,281.25 0,460.65 104.41,834.08 233.22,834.08 73.14,0 138.39,-120.42 181.14,-308.82l46.72 22.38c-58.5,229.12 -152.75,377.83 -259.09,377.83 -177.49,0 -321.39,-414.35 -321.39,-925.46zm55.3 -519.15c57.81,-245.21 155.42,-406.32 266.1,-406.32 109.32,0 205.9,157.24 263.95,397.43l-48.39 17.1c-42.67,-196.61 -109.37,-323.16 -184.34,-323.16 -78.66,0 -148.2,139.26 -190.44,352.58l-106.88 -37.63zm510.82 855.1c3.13,-25.43 5.92,-51.5 8.35,-78.17l59.04 -36.28c-4.05,47.56 -9.4,93.65 -15.9,137.99l-51.48 -23.54zm6.05 -617.92c-2.64,-26.14 -5.61,-51.67 -8.92,-76.53l53 -10.21c6.42,42.52 11.77,86.67 15.94,132.21l-60.02 -45.47z"/>
    <path class="fil3" d="M2049.49 1674.15c-442.64,-255.56 -873.42,-338.13 -962.17,-184.4 -72.98,126.39 108.02,373.14 420.69,598.93l-6.94 -73.19c-251.62,-184.52 -399.63,-367.47 -350.23,-453.01 64.4,-111.54 440.01,-15.25 838.95,215.08 84.46,48.77 163.16,99.63 234.2,150.57l94.72 -75.37c-80.47,-61.44 -170.99,-121.89 -269.21,-178.6zm339.2 384.09c161.49,142.1 245.9,270.68 206.84,338.33 -51.47,89.14 -301.67,45.54 -603.7,-93.11l-57.45 34.65c363.16,168.35 681.07,206.7 755.89,77.1 55,-95.28 -34.3,-258.95 -215.54,-430.48l-86.04 73.5z"/>
    <path class="fil3" d="M1826.56 1844.67c59.54,-34.37 135.68,-13.98 170.05,45.57 34.38,59.54 13.98,135.68 -45.57,170.05 -59.54,34.38 -135.68,13.99 -170.05,-45.56 -34.37,-59.54 -13.98,-135.68 45.57,-170.06z"/>
   </g>
  </g>
 </g>
</svg>
