<svg width="33" height="31" viewBox="0 0 33 31" fill="none" xmlns="http://www.w3.org/2000/svg">
<path d="M4.75081 7.3756L13.5732 13.5701C15.324 14.7993 17.676 14.7993 19.4267 13.5701L28.2492 7.3756M2.58823 20.3519C1.80392 17.2478 1.80392 14.0022 2.58823 10.8981C3.61492 6.83475 6.89339 3.69301 11.0519 2.78743L11.7447 2.63657C14.8769 1.95448 18.1231 1.95448 21.2554 2.63657L21.9481 2.78743C26.1066 3.69301 29.3851 6.83476 30.4118 10.8981C31.1961 14.0022 31.1961 17.2478 30.4118 20.3519C29.3851 24.4152 26.1066 27.557 21.9481 28.4626L21.2553 28.6134C18.1231 29.2955 14.8769 29.2955 11.7447 28.6134L11.0519 28.4626C6.89339 27.557 3.61492 24.4153 2.58823 20.3519Z" stroke="#C2C72C" stroke-width="3" stroke-linecap="round"/>
</svg>
