<svg width="25" height="28" fill="none" xmlns="http://www.w3.org/2000/svg"><path d="M22.413 9.332L7.774.713A5.08 5.08 0 005.168 0a5.08 5.08 0 00-2.602.728A5.257 5.257 0 00.673 2.699 5.432 5.432 0 000 5.38v17.3c0 1.41.546 2.764 1.518 3.762A5.116 5.116 0 005.183 28a5.095 5.095 0 002.591-.716l14.64-8.618a5.254 5.254 0 001.893-1.947A5.43 5.43 0 0025 14.06a5.43 5.43 0 00-.693-2.658 5.254 5.254 0 00-1.894-1.947v-.124zm-1.515 6.518L6.259 24.593a2.138 2.138 0 01-2.152 0 2.181 2.181 0 01-.788-.809 2.255 2.255 0 01-.288-1.104V5.318c0-.388.1-.769.288-1.105.19-.336.46-.615.788-.809.33-.188.7-.29 1.076-.295a2.3 2.3 0 011.076.295l14.639 8.681c.327.194.6.473.788.809a2.255 2.255 0 010 2.21c-.189.336-.46.614-.788.808v-.062z" fill="#fff"/></svg>